<?xml version="1.0" encoding="utf-8"?>
<!-- Generator: Adobe Illustrator 24.0.0, SVG Export Plug-In . SVG Version: 6.00 Build 0)  -->
<svg version="1.1" id="Layer_1" xmlns="http://www.w3.org/2000/svg" xmlns:xlink="http://www.w3.org/1999/xlink" x="0px" y="0px"
	 viewBox="0 0 1573 422" style="enable-background:new 0 0 1573 422;" xml:space="preserve">
<style type="text/css">
	.st0{fill:#E5234A;}
	.st1{fill:#FFFFFF;}
</style>
<g>
	<g>
		<path class="st0" d="M365.9,210.9c0,109-82.1,198.8-187.8,210.9c-13,1.5-24.4-8.9-24.4-22.1l0,0c0-11.4,8.6-20.7,19.9-22
			c36.6-4.3,70.6-20.4,97.3-46.4c7.9-7.6,13-17.9,13.2-28.8c0.2-10.8-3.9-21-11.6-28.6c-7.5-7.4-17.4-11.6-27.9-11.6
			s-20.5,4.1-27.9,11.6c-19.5,19.4-46.3,28.8-74.2,25.4c-15.7-1.9-30.7-8.1-43.2-17.9c-22.2-17.3-34.6-42.9-34.6-70.5
			c0-23.8,9.3-46.1,26.1-62.9c16.8-16.8,39.2-26.1,63-26.1s46.1,9.3,62.9,26.1c7.4,7.5,17.4,11.6,27.9,11.6
			c10.6,0,20.5-4.1,27.9-11.6c7.5-7.4,11.6-17.4,11.6-27.9s-4.1-20.5-11.6-27.9c-27-27-61.7-43.7-99.1-48
			c-11.2-1.3-19.7-10.7-19.7-22l0,0c0-13.1,11.4-23.6,24.4-22.1C283.7,12.2,365.9,101.9,365.9,210.9z"/>
		<path class="st0" d="M153.6,364.5c-39.3,0-78.7-15-108.6-44.9C16,290.6,0,252,0,211s16-79.6,45-108.6
			c59.9-59.9,157.4-59.9,217.3,0c9.8,9.8,9.8,25.7,0,35.5s-25.7,9.8-35.5,0c-19.5-19.5-45.5-30.3-73.1-30.3s-53.6,10.8-73.1,30.3
			S50.3,183.4,50.3,211s10.8,53.6,30.3,73.1s45.5,30.3,73.1,30.3s53.6-10.8,73.1-30.3c9.8-9.8,25.7-9.8,35.5,0s9.8,25.7,0,35.5
			C232.3,349.5,193,364.5,153.6,364.5z"/>
		<g>
			<path class="st1" d="M193.6,234.8c3.2,3.2,3.2,8.4,0,11.6c-6.1,6.1-13.3,10.3-21,12.6v13.3c0,4.6-3.8,8.4-8.4,8.4
				s-8.4-3.7-8.4-8.4v-11.2c-2.6-0.1-5.2-0.4-7.8-1v12.2c0,4.6-3.8,8.4-8.4,8.4s-8.4-3.7-8.4-8.4v-18.9c-3.1-2-6.1-4.3-8.7-7
				c-9.5-9.5-14.7-22.1-14.7-35.5c0-13.4,5.2-26,14.7-35.5c2.7-2.7,5.6-5,8.7-7v-19c0-4.6,3.7-8.4,8.4-8.4c4.6,0,8.4,3.8,8.4,8.4
				v12.2c2.6-0.5,5.2-0.8,7.8-1v-11.3c0-4.6,3.7-8.4,8.4-8.4c4.6,0,8.4,3.8,8.4,8.4v13.4c7.7,2.3,15,6.5,21,12.6
				c3.2,3.2,3.2,8.4,0,11.6s-8.4,3.2-11.6,0c-3.8-3.8-8.2-6.5-13.1-8.2l0,0c-3.4-1.1-7-1.7-10.8-1.7c-0.1,0-0.3,0-0.4,0
				c-8.9,0.1-17.2,3.6-23.5,9.9c-6.4,6.4-9.9,14.9-9.9,23.9s3.5,17.5,9.9,23.9c6.3,6.3,14.6,9.8,23.5,9.9h0.4
				c3.7,0,7.3-0.6,10.8-1.7l0,0c4.9-1.7,9.4-4.4,13.1-8.2C185.2,231.6,190.4,231.6,193.6,234.8z"/>
		</g>
	</g>
	<path class="st0" d="M672.4,131.2H508c-49.8,0-55.9,21.9-55.9,61.7s6.1,61.4,55.9,61.4h164.4v42.6H508
		c-74.8,0-100.3-35.6-100.3-104s25.5-104,100.3-104h164.4V131.2z"/>
	<path class="st0" d="M713.7,89h170.8c74.5,0,100,35.6,100,104s-25.5,104-100,104H713.7V89z M884.6,131.2H757.2v123.1h127.4
		c49.5,0,55.6-21.6,55.6-61.4C940.2,153.1,934.1,131.2,884.6,131.2z"/>
	<path class="st1" d="M1218.6,190.8c21.3-6.7,35.6-20.7,35.6-46.8c0-15.5-4.9-55-79.9-55H997c9.4,11.1,16.6,24.1,21.7,39.2h161.5
		c22.2,0,31.9,8.2,31.9,21.9c0,14.6-11.2,21-31.9,21h-153.1c0.6,7,0.9,14.3,0.9,21.9c0,5.8-0.2,11.5-0.5,17h155.7
		c25.5,0,33.7,12.8,33.7,24.9c0,12.2-8.2,22.8-33.7,22.8h-164.5c-5.1,15.1-12.3,28.1-21.7,39.2h181.5c57.4,0,81.2-23.4,81.2-56.2
		C1259.7,217,1247.2,199,1218.6,190.8z"/>
	<path class="st1" d="M1302.2,89H1473c74.5,0,100,35.6,100,104s-25.5,104-100,104h-170.8V89z M1473,131.2h-127.4v123.1H1473
		c49.5,0,55.6-21.6,55.6-61.4C1528.7,153.1,1522.6,131.2,1473,131.2z"/>
</g>
</svg>
