<svg xmlns="http://www.w3.org/2000/svg" width="57.51" height="60" viewBox="0 0 57.51 60">
  <g id="Group_6579" data-name="Group 6579" transform="translate(-655.001 -283)">
    <path id="Path_5153" data-name="Path 5153" d="M62.31,22.225a4.555,4.555,0,0,0-5.8,0l-3.749,3.093a4.555,4.555,0,0,1-3.178,1.032l-4.851-.3a4.555,4.555,0,0,0-4.69,3.407L38.83,34.165a4.556,4.556,0,0,1-1.964,2.7l-4.1,2.61a4.555,4.555,0,0,0-1.791,5.513l1.783,4.522a4.555,4.555,0,0,1,0,3.341l-1.783,4.522a4.555,4.555,0,0,0,1.791,5.513l4.1,2.61a4.555,4.555,0,0,1,1.964,2.7l1.216,4.706a4.555,4.555,0,0,0,4.69,3.407l4.851-.3a4.555,4.555,0,0,1,3.178,1.032l3.749,3.093a4.555,4.555,0,0,0,5.8,0L66.06,77.05a4.555,4.555,0,0,1,3.178-1.032l4.851.3a4.555,4.555,0,0,0,4.69-3.407L79.994,68.2a4.556,4.556,0,0,1,1.964-2.7l4.1-2.61a4.555,4.555,0,0,0,1.791-5.513l-1.783-4.522a4.555,4.555,0,0,1,0-3.341l1.783-4.522a4.555,4.555,0,0,0-1.791-5.513l-4.1-2.61a4.556,4.556,0,0,1-1.964-2.7L78.778,29.46a4.555,4.555,0,0,0-4.69-3.407l-4.851.3a4.555,4.555,0,0,1-3.178-1.032Z" transform="translate(624.344 261.816)" fill="#cc0136"/>
    <text id="_" data-name="!" transform="translate(684 325)" fill="#fff1f5" font-size="32" font-family="Poppins-Black, Poppins" font-weight="800"><tspan x="-7" y="0">!</tspan></text>
  </g>
</svg>
