<svg xmlns="http://www.w3.org/2000/svg" width="57.51" height="60" viewBox="0 0 57.51 60">
  <g id="Group_3673" data-name="Group 3673" transform="translate(-62 -649)">
    <path id="Path_5153" data-name="Path 5153" d="M62.31,22.225a4.555,4.555,0,0,0-5.8,0l-3.749,3.093a4.555,4.555,0,0,1-3.178,1.032l-4.851-.3a4.555,4.555,0,0,0-4.69,3.407L38.83,34.165a4.556,4.556,0,0,1-1.964,2.7l-4.1,2.61a4.555,4.555,0,0,0-1.791,5.513l1.783,4.522a4.555,4.555,0,0,1,0,3.341l-1.783,4.522a4.555,4.555,0,0,0,1.791,5.513l4.1,2.61a4.555,4.555,0,0,1,1.964,2.7l1.216,4.706a4.555,4.555,0,0,0,4.69,3.407l4.851-.3a4.555,4.555,0,0,1,3.178,1.032l3.749,3.093a4.555,4.555,0,0,0,5.8,0L66.06,77.05a4.555,4.555,0,0,1,3.178-1.032l4.851.3a4.555,4.555,0,0,0,4.69-3.407L79.994,68.2a4.556,4.556,0,0,1,1.964-2.7l4.1-2.61a4.555,4.555,0,0,0,1.791-5.513l-1.783-4.522a4.555,4.555,0,0,1,0-3.341l1.783-4.522a4.555,4.555,0,0,0-1.791-5.513l-4.1-2.61a4.556,4.556,0,0,1-1.964-2.7L78.778,29.46a4.555,4.555,0,0,0-4.69-3.407l-4.851.3a4.555,4.555,0,0,1-3.178-1.032Z" transform="translate(31.343 627.816)" fill="#1d9756"/>
    <path id="Icon_ionic-ios-cloud-done" data-name="Icon ionic-ios-cloud-done" d="M38.673,16.486,21.046,34.191h-.013a2.381,2.381,0,0,1-1.529.725,2.308,2.308,0,0,1-1.542-.751l-7.383-7.383a.525.525,0,0,1,0-.751l2.347-2.347a.51.51,0,0,1,.738,0l5.854,5.854L35.6,13.335a.521.521,0,0,1,.369-.158h0a.479.479,0,0,1,.369.158l2.307,2.386A.52.52,0,0,1,38.673,16.486Z" transform="translate(66.579 654.574)" fill="#eafbf3"/>
  </g>
</svg>
