<svg xmlns="http://www.w3.org/2000/svg" xmlns:xlink="http://www.w3.org/1999/xlink" width="138" height="138" viewBox="0 0 138 138"><defs><style>.a{fill:url(#a);}.b{fill:url(#d);}.c{filter:url(#e);}.d{filter:url(#b);}</style><linearGradient id="a" y1="0.5" x2="1" y2="0.5" gradientUnits="objectBoundingBox"><stop offset="0" stop-color="#2bd67b"/><stop offset="1" stop-color="#166c3d"/></linearGradient><filter id="b" x="0" y="0" width="138" height="138" filterUnits="userSpaceOnUse"><feOffset dx="3" dy="3" input="SourceAlpha"/><feGaussianBlur stdDeviation="10" result="c"/><feFlood flood-color="#161f2d" flood-opacity="0.302"/><feComposite operator="in" in2="c"/><feComposite in="SourceGraphic"/></filter><linearGradient id="d" x1="0.5" x2="0.5" y2="1" gradientUnits="objectBoundingBox"><stop offset="0" stop-color="#eafbf3"/><stop offset="1" stop-color="#a0edc4"/></linearGradient><filter id="e" x="41.021" y="41.082" width="53.429" height="53.573" filterUnits="userSpaceOnUse"><feOffset dx="2" dy="2" input="SourceAlpha"/><feGaussianBlur stdDeviation="3" result="f"/><feFlood flood-opacity="0.161"/><feComposite operator="in" in2="f"/><feComposite in="SourceGraphic"/></filter></defs><g transform="translate(26.677 26.738)"><g class="d" transform="matrix(1, 0, 0, 1, -26.68, -26.74)"><rect class="a" width="78" height="78" rx="20" transform="translate(27 27)"/></g><g class="c" transform="matrix(1, 0, 0, 1, -26.68, -26.74)"><path class="b" d="M297.117,895.069c-2.161,0-4.322-.006-6.483,0a11.186,11.186,0,0,1-11.121-10.027c-.038-.375-.065-.752-.066-1.129,0-4.363.019-8.727-.008-13.09a11.258,11.258,0,0,1,9.235-11.114,11.685,11.685,0,0,1,1.969-.177c2.188-.022,4.377.038,6.563-.024a9.4,9.4,0,0,1,4.408.988,13.072,13.072,0,0,1,4.3,3.243,9.623,9.623,0,0,1,2.241,5.529,17.435,17.435,0,0,0,.324,2.03,1.86,1.86,0,0,0,2.04,1.681c.888.043,1.775.118,2.664.136a1.761,1.761,0,0,1,1.68,1.9c-.006,3.078.031,6.16-.091,9.234a11.162,11.162,0,0,1-8.459,10.476,12.1,12.1,0,0,1-2.6.324C301.52,895.1,299.318,895.069,297.117,895.069Zm-.014-9.142c2.066,0,4.131.005,6.2,0A2.2,2.2,0,0,0,305.518,883a2.25,2.25,0,0,0-2.322-1.479q-5.387,0-10.774,0c-.513,0-1.027-.014-1.539,0a2.215,2.215,0,0,0-2.169,2.909,2.271,2.271,0,0,0,2.273,1.5C293.026,885.932,295.064,885.927,297.1,885.927Zm-3.2-17.282c-.984,0-1.969-.014-2.953.008a2.968,2.968,0,0,0-.985.173,2.17,2.17,0,0,0-1.331,2.456,2.252,2.252,0,0,0,2.223,1.77q3.035.017,6.069-.005a2.6,2.6,0,0,0,.941-.191,2.2,2.2,0,0,0,1.33-2.389,2.236,2.236,0,0,0-2.217-1.818C295.955,868.635,294.929,868.646,293.9,868.645Z" transform="translate(-231.42 -811.42)"/></g></g></svg>