<svg xmlns="http://www.w3.org/2000/svg" width="19.076" height="22" viewBox="0 0 19.076 22"><defs><style>.a{fill:#ff0144;}.b{fill:#fff1f5;}</style></defs><path class="a" d="M293.9,300.054a11.067,11.067,0,0,1-9.791,11,1.152,1.152,0,0,1-1.272-1.152h0a1.157,1.157,0,0,1,1.037-1.147,8.7,8.7,0,0,0,5.073-2.419,2.165,2.165,0,0,0,.688-1.5,2.025,2.025,0,0,0-.6-1.491,2.065,2.065,0,0,0-1.454-.6,2.034,2.034,0,0,0-1.455.6,4.638,4.638,0,0,1-3.868,1.324A4.54,4.54,0,0,1,280,303.73a4.642,4.642,0,1,1,6.12-6.955,2.057,2.057,0,1,0,2.909-2.909,8.684,8.684,0,0,0-5.166-2.5,1.156,1.156,0,0,1-1.027-1.147h0a1.155,1.155,0,0,1,1.272-1.152A11.066,11.066,0,0,1,293.9,300.054Z" transform="translate(-274.827 -289.057)"/><path class="a" d="M221.508,362.581a8.006,8.006,0,1,1,5.667-13.664,1.309,1.309,0,1,1-1.851,1.851,5.391,5.391,0,1,0,0,7.622,1.309,1.309,0,1,1,1.851,1.851A8,8,0,0,1,221.508,362.581Z" transform="translate(-213.5 -343.576)"/><g transform="translate(5.62 7.348)"><path class="b" d="M325.773,434.9a.428.428,0,0,1,0,.6,2.591,2.591,0,0,1-1.095.657v.693a.438.438,0,1,1-.876,0v-.584a2.167,2.167,0,0,1-.407-.052v.636a.438.438,0,1,1-.876,0v-.985a2.529,2.529,0,0,1-.454-.365,2.618,2.618,0,0,1,0-3.7,2.724,2.724,0,0,1,.454-.365v-.991a.438.438,0,0,1,.876,0v.636a3.617,3.617,0,0,1,.407-.052v-.589a.438.438,0,1,1,.876,0v.7a2.561,2.561,0,0,1,1.095.657.428.428,0,0,1-.6.6,1.78,1.78,0,0,0-.683-.428h0a1.82,1.82,0,0,0-.563-.089H323.9a1.762,1.762,0,0,0,0,3.524h.021a1.87,1.87,0,0,0,.563-.089h0a1.742,1.742,0,0,0,.683-.428A.433.433,0,0,1,325.773,434.9Z" transform="translate(-321.3 -430)"/></g></svg>