<svg xmlns="http://www.w3.org/2000/svg" width="574.912" height="585.635" viewBox="0 0 574.912 585.635"><defs><style>.a{fill:#2bd67b;font-size:44px;font-family:Poppins-ExtraBold, Poppins;font-weight:800;}.b{fill:#2a2344;}.c{fill:#fafafa;}.d{fill:#221b35;}.e{fill:#e0e0e0;}.f{fill:#00994f;}.g{fill:#dcf4e9;}.h{fill:#283237;}.i{fill:#ff003b;}.j{opacity:0.24;}.k{opacity:0.3;}</style></defs><g transform="translate(-731 -3313)"><text class="a" transform="translate(913 3504)"><tspan x="-181.94" y="0">Coming</tspan><tspan x="-132.044" y="50">Soon!</tspan></text><g transform="translate(411.034 3228.051)"><g transform="translate(440.382 590.279)"><g transform="translate(0.4 0)"><g transform="translate(0)"><g transform="translate(0)"><rect class="b" width="12.35" height="92.445" transform="translate(0 12.35) rotate(-90)"/></g></g><g transform="translate(12.012 0.512)"><path class="c" d="M453.885,593.188c.32,0,.581,2.591.581,5.786s-.261,5.787-.581,5.787-.582-2.591-.582-5.787S453.564,593.188,453.885,593.188Z" transform="translate(-453.303 -593.188)"/></g><g transform="translate(10 0.26)"><path class="c" d="M451.862,592.935c.322,0,.581,2.591.581,5.786s-.26,5.787-.581,5.787-.581-2.591-.581-5.787S451.542,592.935,451.862,592.935Z" transform="translate(-451.281 -592.935)"/></g><g transform="translate(84.715 0.512)"><path class="c" d="M526.931,593.188c.321,0,.581,2.591.581,5.786s-.26,5.787-.581,5.787-.581-2.591-.581-5.787S526.611,593.188,526.931,593.188Z" transform="translate(-526.35 -593.188)"/></g><g transform="translate(82.703 0.26)"><path class="c" d="M524.909,592.935c.321,0,.581,2.591.581,5.786s-.261,5.787-.581,5.787-.581-2.591-.581-5.787S524.589,592.935,524.909,592.935Z" transform="translate(-524.328 -592.935)"/></g><g transform="translate(23.914 5.968)"><path class="c" d="M512.556,599.251c0,.322-10.589.581-23.646.581s-23.649-.26-23.649-.581,10.586-.581,23.649-.581S512.556,598.93,512.556,599.251Z" transform="translate(-465.261 -598.67)"/></g></g><g transform="translate(0 55.605)"><g transform="translate(0 0)"><rect class="b" width="24.7" height="92.444" transform="translate(0 24.7) rotate(-90)"/></g><g transform="translate(0.231 2.083)"><path class="c" d="M534.462,666.3a2.147,2.147,0,0,1-.5.288c-.339.176-.855.414-1.541.7a26.728,26.728,0,0,1-6.267,1.794,16.325,16.325,0,0,1-10.171-1.443,13.534,13.534,0,0,1-4.83-4.378,10.167,10.167,0,0,1-1.681-7.114,7.49,7.49,0,0,1,1.7-3.678,4.861,4.861,0,0,1,3.9-1.771,5.6,5.6,0,0,1,3.918,2.113,7.659,7.659,0,0,1,1.789,4.213,11.212,11.212,0,0,1-3.188,8.753,14.072,14.072,0,0,1-8.884,4.342,23.593,23.593,0,0,1-10.313-1.281,19.012,19.012,0,0,1-9.009-6.054,9.915,9.915,0,0,1-2.1-5.333,6.921,6.921,0,0,1,1.969-5.55,4.5,4.5,0,0,1,2.891-1.268,5.286,5.286,0,0,1,3.023.851,8.021,8.021,0,0,1,3.4,4.983,11.635,11.635,0,0,1-3.645,10.881,18.191,18.191,0,0,1-10.408,4.236,25.619,25.619,0,0,1-10.79-1.063,14.9,14.9,0,0,1-8.208-6.38,10.929,10.929,0,0,1-1.028-9.812,5.159,5.159,0,0,1,3.771-3.191,5.963,5.963,0,0,1,4.657,1.124c2.609,2.07,3.044,5.62,2.2,8.323a14.393,14.393,0,0,1-4.66,6.563,20.977,20.977,0,0,1-12.677,4.925,20.3,20.3,0,0,1-10.044-2.281,20.076,20.076,0,0,1-5.237-3.883,15.133,15.133,0,0,1-1.107-1.285,2.1,2.1,0,0,1-.326-.478,23.51,23.51,0,0,0,6.873,5.24,20.118,20.118,0,0,0,9.812,2.037,20.4,20.4,0,0,0,12.171-4.9,13.6,13.6,0,0,0,4.335-6.195c.755-2.448.265-5.616-1.923-7.3a5,5,0,0,0-3.887-.917,4.138,4.138,0,0,0-3.024,2.625,9.913,9.913,0,0,0,1.01,8.851,13.834,13.834,0,0,0,7.649,5.881,24.611,24.611,0,0,0,10.307.981,17.089,17.089,0,0,0,9.752-3.96,10.5,10.5,0,0,0,3.291-9.763,6.874,6.874,0,0,0-2.883-4.26,3.54,3.54,0,0,0-4.508.274,5.793,5.793,0,0,0-1.614,4.629,8.787,8.787,0,0,0,1.862,4.725,17.974,17.974,0,0,0,8.46,5.69,22.584,22.584,0,0,0,9.828,1.268,13.033,13.033,0,0,0,8.263-3.977,10.239,10.239,0,0,0,2.977-7.951c-.226-2.718-2.3-5.366-4.8-5.534a3.983,3.983,0,0,0-3.209,1.445,6.682,6.682,0,0,0-1.533,3.245,9.423,9.423,0,0,0,1.491,6.575,12.9,12.9,0,0,0,4.524,4.211,16.005,16.005,0,0,0,9.8,1.565,29.3,29.3,0,0,0,6.244-1.562C533.726,666.57,534.443,666.259,534.462,666.3Z" transform="translate(-441.063 -650.635)"/></g></g><g transform="translate(8.256 12.269)"><g transform="translate(0 0.438)"><g transform="translate(0 0)"><rect class="d" width="42.854" height="84.189" transform="translate(0 42.854) rotate(-90)"/></g></g><g transform="translate(13.408 1.909)"><path class="e" d="M463.178,606.919c.321,0,.581,9.286.581,20.74s-.26,20.742-.581,20.742-.58-9.285-.58-20.742S462.858,606.919,463.178,606.919Z" transform="translate(-462.598 -606.919)"/></g><g transform="translate(19.789 1.376)"><path class="e" d="M469.59,606.384c.321,0,.582,9.169.582,20.474s-.261,20.476-.582,20.476-.581-9.166-.581-20.476S469.27,606.384,469.59,606.384Z" transform="translate(-469.009 -606.384)"/></g><g transform="translate(74.09)"><path class="e" d="M524.149,605c.322,0,.582,9.654.582,21.562s-.261,21.563-.582,21.563-.581-9.653-.581-21.563S523.829,605,524.149,605Z" transform="translate(-523.568 -605.001)"/></g><g transform="translate(66.589 0.579)"><path class="e" d="M516.612,605.583c.322,0,.581,9.405.581,21.005s-.26,21.008-.581,21.008-.581-9.4-.581-21.008S516.292,605.583,516.612,605.583Z" transform="translate(-516.031 -605.583)"/></g></g></g><g transform="translate(347.164 669.534)"><g transform="translate(0)"><path class="f" d="M894.886,672.731c0,.237-122.62.428-273.844.428-151.276,0-273.87-.191-273.87-.428s122.594-.427,273.87-.427C772.266,672.3,894.886,672.5,894.886,672.731Z" transform="translate(-347.172 -672.304)"/></g></g><g transform="translate(508.187 84.949)"><g transform="translate(0 20.232)"><g transform="translate(0.377 0.303)"><path class="g" d="M539.737,105.58c-26.35,41.448-24.624,98.91,4.165,138.7,19.191,26.526,47.982,44.306,70.842,67.745S654.967,370,642.9,400.442c-12.282,30.985-48.254,43.591-75.194,63.217a142.122,142.122,0,0,0-34.282,194.123H813.255S862.41,564.1,799.211,492.707s-97.141-72.563-94.8-119.378,35.112-62.029,53.838-79.585,110.015-58.519,56.178-188.164Z" transform="translate(-509.337 -105.58)"/></g><path class="h" d="M539.735,105.58s1.624-.026,4.817-.039l14.185-.039,54.605-.079,201.081-.147h.206l.073.187c3.824,9.71,7.688,19.706,10.427,30.3a176.619,176.619,0,0,1,5.946,32.927,130.716,130.716,0,0,1-1.776,34.758,111.682,111.682,0,0,1-12.648,33.787,123.09,123.09,0,0,1-10.54,15.294,142.535,142.535,0,0,1-12.89,13.791,190.13,190.13,0,0,1-14.632,12.385c-5.093,3.94-10.408,7.663-15.6,11.594-2.6,1.96-4.973,4.159-7.45,6.363-2.489,2.16-5.052,4.246-7.639,6.312-5.171,4.135-10.394,8.27-15.324,12.8-9.952,8.9-18.358,20.023-22.983,32.963a80.049,80.049,0,0,0-4.375,20.151c-.139,1.729-.371,3.456-.435,5.193-.035,1.74-.133,3.483-.051,5.224a59.543,59.543,0,0,0,1.05,10.412,47.558,47.558,0,0,0,8.4,19.169A106.4,106.4,0,0,0,728.7,424.6c10.625,9.714,21.892,18.986,32.687,29q16.27,14.932,31.525,31.512a190.009,190.009,0,0,1,14.553,17.3A121.565,121.565,0,0,1,819.2,521.968a128.409,128.409,0,0,1,12.05,44.376,162.52,162.52,0,0,1-2.725,46.647,191.56,191.56,0,0,1-6,22.885,166.845,166.845,0,0,1-8.885,22.1l-.113.229h-7.47l-272.623-.019h-.219l-.12-.181a144.28,144.28,0,0,1-23.432-66.052,139.26,139.26,0,0,1,9.681-66.673,145.152,145.152,0,0,1,36.99-52.835c7.813-7.152,16.526-13,25.253-18.42s17.547-10.44,25.877-15.929c8.295-5.5,16.287-11.359,22.777-18.529a62.233,62.233,0,0,0,14.094-24.431,60.771,60.771,0,0,0,1.112-27.273,88.86,88.86,0,0,0-8.648-25.07,122.585,122.585,0,0,0-14.085-21.4,170.589,170.589,0,0,0-17.043-17.783c-11.847-10.905-23.968-20.442-34.882-30.244-5.464-4.889-10.644-9.825-15.409-14.9A138.659,138.659,0,0,1,542.6,242.73a120.016,120.016,0,0,1-16.01-33.186,123.882,123.882,0,0,1-5.449-31.43c-.23-2.443-.139-4.841-.135-7.18.031-2.339-.039-4.627.2-6.846q.255-3.332.5-6.5c.253-2.1.6-4.13.882-6.111a116.713,116.713,0,0,1,10.975-34.848,47.308,47.308,0,0,1,2.531-4.881l2.01-3.425c1.077-1.831,1.632-2.747,1.632-2.747l-1.586,2.8-1.968,3.431a48.024,48.024,0,0,0-2.492,4.883,117.486,117.486,0,0,0-10.83,34.828c-.276,1.978-.617,4.005-.864,6.1q-.234,3.158-.484,6.483c-.236,2.214-.16,4.5-.186,6.83,0,2.333-.084,4.725.151,7.161a123.7,123.7,0,0,0,5.492,31.331,119.723,119.723,0,0,0,16,33.04,138.477,138.477,0,0,0,12.753,15.677c4.759,5.052,9.934,9.971,15.4,14.847,10.909,9.775,23.041,19.3,34.922,30.211a171.072,171.072,0,0,1,17.118,17.826,123.205,123.205,0,0,1,14.174,21.487,89.429,89.429,0,0,1,8.729,25.241,61.407,61.407,0,0,1-1.1,27.563,62.922,62.922,0,0,1-14.227,24.709c-6.544,7.239-14.578,13.131-22.893,18.654-8.352,5.511-17.166,10.535-25.883,15.954s-17.372,11.239-25.14,18.357a144.437,144.437,0,0,0-36.771,52.578,138.5,138.5,0,0,0-9.6,66.307,143.5,143.5,0,0,0,23.32,65.674l-.339-.181,272.623-.019h7.2l-.378.229a166.339,166.339,0,0,0,8.829-21.972,190.838,190.838,0,0,0,5.979-22.784A161.71,161.71,0,0,0,830.4,566.42a127.563,127.563,0,0,0-11.964-44.086,120.814,120.814,0,0,0-11.65-19.431,189.182,189.182,0,0,0-14.489-17.231Q777.1,469.124,760.827,454.2c-10.779-10-22.027-19.262-32.681-29.008a107.11,107.11,0,0,1-14.618-15.841A48.366,48.366,0,0,1,705,389.868a60.308,60.308,0,0,1-1.061-10.547c-.083-1.763.017-3.519.053-5.275.066-1.754.3-3.494.44-5.238a80.814,80.814,0,0,1,4.427-20.341c4.676-13.077,13.192-24.317,23.2-33.262,4.96-4.549,10.2-8.695,15.369-12.824,2.586-2.063,5.142-4.141,7.617-6.288,2.434-2.163,4.873-4.419,7.49-6.389,5.217-3.947,10.521-7.658,15.6-11.585a189.585,189.585,0,0,0,14.583-12.331,141.782,141.782,0,0,0,12.831-13.712,122.277,122.277,0,0,0,10.485-15.194,110.983,110.983,0,0,0,12.59-33.565,130.069,130.069,0,0,0,1.79-34.575,176.013,176.013,0,0,0-5.9-32.812c-2.72-10.565-6.567-20.542-10.374-30.235l.28.187-200.961-.147-54.647-.079-14.222-.039C541.388,105.6,539.735,105.58,539.735,105.58Z" transform="translate(-508.958 -105.276)"/></g><g transform="translate(26.345 72.209)"><path class="i" d="M803.38,181.841c41.215,6.774-23.768,79.77-60.55,108.573-21.3,16.678-44.172,34.765-54.287,59.854-11.474,28.464-2.97,60.46-8.531,89.093-.923,4.755-7.95,4.006-7.88-.836.274-18.795-.227-37.58-3.341-56.084-4.417-26.244-14.507-52.207-32.9-71.44-15.014-15.7-34.7-26.132-50.717-40.809-23.383-21.429-47.4-49.067-49.745-80.7,0,0,44.9-36.163,69.815-31.6,29.123,5.334,57.794,50.273,102.921,45.127C739.673,199.432,755.574,173.982,803.38,181.841Z" transform="translate(-535.428 -157.5)"/></g><g transform="translate(15.151 438.789)"><path class="i" d="M806.987,574.275c-1.041-10.307-3.79-21.971-12.937-26.833-5.542-2.945-12.289-2.619-18.357-1.022s-11.772,4.355-17.787,6.143a58.287,58.287,0,0,1-36.395-1.154c-11.182-4.108-20.781-11.533-31.164-17.371s-22.537-10.189-34.1-7.311c-19.934,4.961-30.306,28.959-50.014,34.752-8.76,2.576-18.166,1.13-27.07-.888s-17.843-4.606-26.967-4.266c-7.149.268-14.587,2.739-19.6,7.638l.052-.068c-.05.05-.093.105-.143.157a20.194,20.194,0,0,0-2.26,2.648c-6.112,8.147-7.089,19.105-5.209,29.056,2.106,11.141,7.309,21.438,12.9,31.307,6.579,11.622,14.052,23.194,24.93,30.942,13.418,9.56,30.3,2.962,46.72,4.258,38.311,3.024,79.531,5.087,117.847,2.117,20.24-1.57,39.21.624,55.271-11.792,11.3-8.736,18.647-21.9,22.191-35.74S808.422,588.486,806.987,574.275Z" transform="translate(-524.181 -525.817)"/></g><g class="j" transform="translate(219.558 467.507)"><path d="M735.65,554.671c-2.165,3.312-3.086,7.749-1,11.111s4.9,6.419,5.809,10.271c1.42,6.049-2.223,11.964-4.939,17.554a55.967,55.967,0,0,0-5.429,32.4c1.639,10.995,7.279,21.5,16.079,28.289,3.892,3,8.947,5.333,13.636,3.862,4.416-1.385,7.271-5.864,8.147-10.408s.153-9.222-.423-13.815a214.847,214.847,0,0,1,1.62-64.163c.626-3.535,1.226-7.571-1.014-10.377-1.431-1.792-3.713-2.635-5.889-3.358-8.54-2.843-17.756.317-26.6-1.364" transform="translate(-729.556 -554.671)"/></g><g transform="translate(3.924 565.448)"><path class="f" d="M512.906,673.068s-.77-12.843,15.98-19.992H823.213s15.348,7.767,17.236,19.727Z" transform="translate(-512.9 -653.076)"/></g><g transform="translate(24.279)"><path class="f" d="M817.072,107.048q-.232.109-.466.216L539.85,105.483s-.982-.628-2.454-1.78a10.494,10.494,0,0,1,6.55-18.754l268.612,2.17C823.646,87.208,827.1,102.311,817.072,107.048Z" transform="translate(-533.352 -84.949)"/></g><g class="j" transform="translate(80.335 124.205)"><path d="M773.042,213.209c.557,1.066-1.519,3.375-5.487,6.9s-9.791,8.361-17.177,14.315c-7.427,5.9-16.423,13.024-27.884,19.669a112.9,112.9,0,0,1-19.119,8.774,89.136,89.136,0,0,1-10.986,3.037,72.53,72.53,0,0,1-11.871,1.547,63.466,63.466,0,0,1-23.86-3.261,86.169,86.169,0,0,1-19.171-9.787c-5.517-3.659-10.273-7.269-14.756-10.725-4.463-3.465-8.533-6.8-12.169-9.944-14.537-12.6-22.182-21.857-20.709-23.646,1.524-1.859,11.814,4.033,27.852,13.888l13.1,8.043c4.7,2.863,9.758,6.023,14.913,8.947a83.076,83.076,0,0,0,16.167,7.305,51.6,51.6,0,0,0,17.8,2.1c12.605-.644,24.838-5.085,35.436-10.2,10.653-5.213,20.179-11.111,28.489-15.763a143.542,143.542,0,0,1,20.563-10.026C769.343,212.517,772.508,212.182,773.042,213.209Z" transform="translate(-589.674 -209.742)"/></g><g transform="translate(160.347 388.157)"><path class="i" d="M672.973,475.162c3.038-1.069,6.669,1.988,6.133,5.163s-4.968,4.872-7.487,2.865-1.857-6.705,1.119-7.937" transform="translate(-670.065 -474.945)"/></g><g transform="translate(25.329 48.381)"><path class="h" d="M573.345,258.65a8.509,8.509,0,0,1-.977-.985l-2.68-2.94c-1.133-1.3-2.624-2.811-4.147-4.737l-5.227-6.5c-1.784-2.524-3.811-5.242-5.847-8.255l-3-4.775c-.507-.826-1.057-1.642-1.548-2.51q-.714-1.314-1.445-2.664a110.763,110.763,0,0,1-10.2-24.547,103.165,103.165,0,0,1-3.869-26.3c-.007-2.047.106-4.044.151-5.984.046-.968.029-1.927.124-2.863s.2-1.856.3-2.762c.207-1.808.351-3.562.593-5.233q.451-2.492.866-4.781c.469-3.062,1.279-5.749,1.859-8.135.315-1.186.562-2.3.875-3.308l.9-2.734q.794-2.371,1.265-3.773a8.3,8.3,0,0,1,.5-1.295,8.539,8.539,0,0,1-.332,1.35q-.414,1.42-1.11,3.815-.373,1.25-.821,2.749c-.29,1.007-.513,2.127-.805,3.315-.534,2.388-1.3,5.074-1.727,8.128q-.387,2.278-.807,4.763c-.224,1.664-.35,3.41-.542,5.208q-.134,1.35-.272,2.746c-.089.93-.064,1.882-.1,2.845-.032,1.926-.132,3.908-.116,5.94a104.441,104.441,0,0,0,3.9,26.083,112.383,112.383,0,0,0,10.065,24.4l1.42,2.656c.483.866,1.026,1.682,1.525,2.507l2.948,4.774c2,3.016,3.992,5.744,5.739,8.282l5.113,6.563c1.485,1.95,2.937,3.486,4.029,4.821q1.606,1.912,2.558,3.044A8.438,8.438,0,0,1,573.345,258.65Z" transform="translate(-534.407 -133.559)"/></g><g transform="translate(48.682 227.605)"><path class="h" d="M557.872,503.434a3.293,3.293,0,0,1,.307-.54c.243-.384.565-.895.976-1.544l1.614-2.5,1.036-1.591c.4-.542.877-1.089,1.354-1.684l3.222-3.935c1.264-1.362,2.713-2.772,4.231-4.324a113.875,113.875,0,0,1,11.273-9.486c8.716-6.607,19.96-13.171,32.148-20.83a185.366,185.366,0,0,0,18.435-12.987,86.627,86.627,0,0,0,16.543-17.481c9.278-13.794,13.045-29.772,13.375-44.055a104.36,104.36,0,0,0-6.293-37.427,139.52,139.52,0,0,0-10.877-23.324c-1.521-2.637-2.77-4.648-3.63-6l-.966-1.549a3.366,3.366,0,0,1-.306-.544,3.42,3.42,0,0,1,.378.5l1.038,1.5c.908,1.325,2.2,3.309,3.772,5.927a133.58,133.58,0,0,1,11.16,23.29,103.936,103.936,0,0,1,6.512,37.649,85.889,85.889,0,0,1-.907,11.073,81.147,81.147,0,0,1-2.4,11.341,77.366,77.366,0,0,1-10.144,22.1A86.964,86.964,0,0,1,633,444.662a183.516,183.516,0,0,1-18.542,13c-12.233,7.639-23.483,14.133-32.208,20.651a116.227,116.227,0,0,0-11.3,9.346c-1.525,1.527-2.985,2.913-4.261,4.252l-3.263,3.869c-.486.584-.967,1.12-1.379,1.652L560.978,499q-.982,1.433-1.677,2.444c-.44.629-.787,1.124-1.047,1.5A3.462,3.462,0,0,1,557.872,503.434Z" transform="translate(-557.871 -313.632)"/></g><g transform="translate(19.496 446.419)"><path class="h" d="M542.463,533.483a3.115,3.115,0,0,1-.359.761c-.316.563-.7,1.253-1.17,2.09-.529.894-1.156,2-1.789,3.33s-1.465,2.792-2.157,4.515q-.554,1.281-1.156,2.67c-.4.93-.72,1.934-1.1,2.952-.8,2.028-1.424,4.274-2.134,6.617a88.743,88.743,0,0,0-2.9,31.561c.273,2.433.475,4.755.9,6.894.193,1.072.327,2.118.548,3.105l.651,2.836c.366,1.82.9,3.411,1.3,4.831.38,1.426.8,2.626,1.152,3.6.309.907.562,1.656.769,2.267a3.175,3.175,0,0,1,.215.813,3.088,3.088,0,0,1-.374-.75l-.923-2.216a34.875,34.875,0,0,1-1.3-3.571c-.441-1.414-1.022-3.006-1.43-4.829q-.339-1.365-.709-2.844c-.24-.991-.392-2.042-.6-3.12-.454-2.153-.686-4.491-.981-6.945a85.65,85.65,0,0,1,2.921-31.847c.738-2.358,1.391-4.615,2.229-6.648.4-1.022.743-2.029,1.159-2.959s.826-1.815,1.215-2.668c.731-1.719,1.593-3.177,2.284-4.488a34.716,34.716,0,0,1,1.926-3.276l1.31-2.012A3.091,3.091,0,0,1,542.463,533.483Z" transform="translate(-528.546 -533.482)"/></g><g transform="translate(84.273 485.879)"><path class="h" d="M745.777,573.131a1.44,1.44,0,0,1-.332.243l-1.024.641q-1.456.873-3.984,2.394l-2.891,1.713c-1.075.592-2.286,1.156-3.566,1.8-2.582,1.246-5.45,2.833-8.833,4.11l-5.247,2.152c-1.83.734-3.806,1.3-5.812,2-4,1.46-8.421,2.5-13.045,3.707a153.291,153.291,0,0,1-61.755,1.612c-4.681-.963-9.154-1.771-13.223-3.02-2.04-.589-4.044-1.053-5.91-1.69l-5.352-1.875c-3.445-1.1-6.392-2.534-9.035-3.644-1.312-.58-2.551-1.08-3.656-1.615l-2.976-1.56-4.1-2.182-1.056-.586a1.529,1.529,0,0,1-.346-.225,1.435,1.435,0,0,1,.388.148l1.095.511,4.169,2.036,3,1.488c1.112.512,2.357.988,3.673,1.546,2.654,1.065,5.6,2.454,9.048,3.513l5.347,1.815c1.863.617,3.862,1.063,5.9,1.634,4.057,1.214,8.514,1.992,13.175,2.928a155.774,155.774,0,0,0,61.443-1.6c4.6-1.179,9.013-2.188,13-3.612,2-.677,3.974-1.226,5.8-1.94l5.244-2.092c3.385-1.236,6.258-2.779,8.853-3.98,1.285-.625,2.5-1.167,3.587-1.735l2.92-1.643,4.058-2.251,1.067-.567A1.48,1.48,0,0,1,745.777,573.131Z" transform="translate(-593.631 -573.129)"/></g><g transform="translate(94.176 138.374)"><path class="h" d="M762.95,223.979a2,2,0,0,1-.349.325l-1.077.887-4.191,3.345c-3.654,2.888-8.935,7.078-15.609,12.067A226.451,226.451,0,0,1,717.3,256.749a110.987,110.987,0,0,1-15.733,7.239,71.7,71.7,0,0,1-18.156,4.039,69.133,69.133,0,0,1-34.883-7.256,118.766,118.766,0,0,1-13.472-8.013c-4.01-2.83-7.671-5.566-10.908-8.19-6.5-5.216-11.594-9.631-15.133-12.658l-4.057-3.506-1.041-.928a1.966,1.966,0,0,1-.336-.339,1.969,1.969,0,0,1,.392.272c.286.224.646.509,1.1.863l4.161,3.384c3.6,2.948,8.756,7.293,15.293,12.439,3.256,2.589,6.925,5.288,10.934,8.079a120.158,120.158,0,0,0,13.418,7.891,68.813,68.813,0,0,0,34.475,7.11,71.4,71.4,0,0,0,17.935-3.974,111.734,111.734,0,0,0,15.636-7.14,235.147,235.147,0,0,0,24.443-15.942c6.711-4.92,12.048-9.035,15.764-11.843l4.29-3.219,1.13-.82A1.925,1.925,0,0,1,762.95,223.979Z" transform="translate(-603.581 -223.978)"/></g><g class="j" transform="translate(105.46 494.259)"><path d="M614.918,586.963c7.78-6.008,18.712-4.55,28.332-2.529s19.31,5.311,29.044,3.948c7.336-1.027,14.067-4.637,21.307-6.2s16.024-.409,20.038,5.816a155.973,155.973,0,0,1-98.721-1.031" transform="translate(-614.918 -581.549)"/></g></g><g transform="translate(345.54 349.572)"><g transform="translate(0 0)"><g transform="translate(20.043)"><path class="h" d="M393.384,628.244a4.216,4.216,0,0,1,.288-.693c.23-.491.538-1.148.931-1.985a49.858,49.858,0,0,0,2.733-7.939c1.809-7.06,2.44-17.85-.233-30.666a164.517,164.517,0,0,0-5.688-20.6c-2.408-7.31-5.2-15.067-7.486-23.451-2.258-8.363-4.041-17.444-3.7-26.962.346-9.537,3.169-19.057,6.274-28.532,3.1-9.491,6.3-18.769,7.264-28.1a42.818,42.818,0,0,0-5.152-25.951c-4.11-7.572-9.281-14.049-13.151-20.757a72.1,72.1,0,0,1-7.9-19.955,74.32,74.32,0,0,1-.5-30.914,57.6,57.6,0,0,1,3.227-10.917,4.425,4.425,0,0,1-.192.726l-.653,2.092a79.906,79.906,0,0,0-2,8.172,75.27,75.27,0,0,0,.8,30.683,71.9,71.9,0,0,0,7.93,19.7c3.861,6.629,9.054,13.078,13.245,20.739a43.7,43.7,0,0,1,5.313,26.479c-.966,9.49-4.2,18.829-7.288,28.308s-5.9,18.888-6.247,28.264,1.386,18.365,3.609,26.689c2.246,8.344,5.009,16.1,7.387,23.432a162.55,162.55,0,0,1,5.595,20.72c2.6,12.91,1.861,23.808-.079,30.893a45.749,45.749,0,0,1-2.925,7.928L393.76,627.6A4.269,4.269,0,0,1,393.384,628.244Z" transform="translate(-365.678 -350.826)"/></g><g transform="translate(32.904 28.287)"><path class="i" d="M380.784,419.364s-7.858-25.128,6.238-39.841a.871.871,0,0,1,1.493.432C389.269,384.1,390.209,396.744,380.784,419.364Z" transform="translate(-378.6 -379.247)"/><g transform="translate(1.9 8.649)"><path class="h" d="M385.5,387.937a23.119,23.119,0,0,1-.53,4.635c-.515,3.194-1.123,6.942-1.792,11.083s-1.252,7.891-1.759,11.082c-.431,2.839-.689,4.6-.832,4.587a19.451,19.451,0,0,1,.14-4.671c.26-2.871.766-6.822,1.479-11.157s1.465-8.239,2.08-11.052S385.367,387.91,385.5,387.937Z" transform="translate(-380.509 -387.937)"/></g></g><g transform="translate(44.166 95.324)"><g transform="translate(0.154)"><path class="i" d="M390.069,478.947s4.805-25.885,24.146-32.3a.871.871,0,0,1,1.119,1.08C414.057,451.749,408.977,463.361,390.069,478.947Z" transform="translate(-390.069 -446.602)"/></g><g transform="translate(0 6.728)"><path class="h" d="M408.946,453.366a23.2,23.2,0,0,1-2.637,3.85l-6.767,8.958c-2.519,3.353-4.8,6.388-6.738,8.974-1.708,2.307-2.759,3.741-2.88,3.665a19.408,19.408,0,0,1,2.308-4.063c1.573-2.417,3.868-5.671,6.525-9.171s5.148-6.6,7.007-8.8S408.84,453.28,408.946,453.366Z" transform="translate(-389.915 -453.362)"/></g></g><g transform="translate(38.882 154.525)"><g transform="translate(0.013)"><path class="i" d="M384.816,544.168S381.9,518,398.541,506.248a.871.871,0,0,1,1.383.709C399.872,511.174,398.384,523.761,384.816,544.168Z" transform="translate(-384.619 -506.083)"/></g><g transform="translate(0 8.092)"><path class="h" d="M395.442,514.214a23.144,23.144,0,0,1-1.4,4.45L390.164,529.2l-3.842,10.543c-.964,2.7-1.553,4.382-1.692,4.344a19.473,19.473,0,0,1,1.03-4.558c.8-2.769,2.053-6.55,3.579-10.669s3.011-7.809,4.15-10.453S395.316,514.162,395.442,514.214Z" transform="translate(-384.606 -514.213)"/></g></g><g transform="translate(53.458 220.378)"><g transform="translate(0.132)"><path class="i" d="M399.455,609.8s-1.981-26.254,15.074-37.4a.871.871,0,0,1,1.358.758C415.682,577.366,413.744,589.891,399.455,609.8Z" transform="translate(-399.384 -572.248)"/></g><g transform="translate(0 7.957)"><path class="h" d="M411.147,580.245a23.206,23.206,0,0,1-1.563,4.4l-4.249,10.392c-1.576,3.887-3,7.4-4.217,10.4-1.06,2.667-1.708,4.324-1.846,4.28a19.467,19.467,0,0,1,1.192-4.518c.9-2.739,2.286-6.472,3.959-10.535s3.288-7.7,4.522-10.3S411.022,580.188,411.147,580.245Z" transform="translate(-399.251 -580.243)"/></g></g><g transform="translate(0 12.861)"><path class="i" d="M369.335,397.213S346,385.026,345.54,364.656a.871.871,0,0,1,1.361-.753C350.369,366.3,359.981,374.564,369.335,397.213Z" transform="translate(-345.54 -363.748)"/><g transform="translate(4.837 7.901)"><path class="h" d="M350.409,371.69a23.129,23.129,0,0,1,2.907,3.65c1.9,2.621,4.12,5.7,6.579,9.1l6.6,9.073c1.7,2.31,2.768,3.735,2.658,3.829a19.452,19.452,0,0,1-3.207-3.4c-1.848-2.211-4.287-5.361-6.853-8.928s-4.8-6.857-6.354-9.279S350.3,371.766,350.409,371.69Z" transform="translate(-350.399 -371.687)"/></g></g><g transform="translate(23.123 68.278)"><path class="i" d="M394.5,451.441s-24.034-10.748-25.728-31.053a.872.872,0,0,1,1.313-.834C373.7,421.738,383.792,429.4,394.5,451.441Z" transform="translate(-368.773 -419.428)"/><g transform="translate(5.257 7.647)"><path class="h" d="M374.063,427.115a23.138,23.138,0,0,1,3.123,3.466l7.119,8.681,7.141,8.657c1.842,2.2,2.99,3.559,2.886,3.66a19.494,19.494,0,0,1-3.407-3.2c-1.98-2.1-4.6-5.09-7.383-8.495s-5.2-6.553-6.905-8.876S373.954,427.2,374.063,427.115Z" transform="translate(-374.055 -427.111)"/></g></g><g transform="translate(24.198 120.571)"><path class="i" d="M380.68,511.884s-16.5-20.515-8.762-39.362a.871.871,0,0,1,1.548-.144C375.684,475.964,381.181,487.384,380.68,511.884Z" transform="translate(-369.852 -471.969)"/><g transform="translate(3.662 8.905)"><path class="h" d="M373.573,480.916a23.035,23.035,0,0,1,1.2,4.509c.687,3.161,1.494,6.871,2.385,10.971s1.719,7.8,2.415,10.958c.637,2.8,1.041,4.531.9,4.573a19.354,19.354,0,0,1-1.577-4.4c-.808-2.767-1.782-6.629-2.7-10.924s-1.649-8.205-2.106-11.048S373.438,480.94,373.573,480.916Z" transform="translate(-373.531 -480.916)"/></g></g><g transform="translate(26.167 198.897)"><path class="i" d="M397.036,583.091s-23.851-11.149-25.2-31.48a.871.871,0,0,1,1.326-.812C376.73,553.043,386.695,560.876,397.036,583.091Z" transform="translate(-371.831 -550.665)"/><g transform="translate(5.142 7.72)"><path class="h" d="M377.006,558.425a23.256,23.256,0,0,1,3.065,3.518l6.972,8.8,6.995,8.774c1.8,2.233,2.929,3.609,2.825,3.707a19.384,19.384,0,0,1-3.353-3.255c-1.945-2.128-4.519-5.167-7.239-8.617s-5.094-6.639-6.756-8.99S376.9,558.505,377.006,558.425Z" transform="translate(-376.997 -558.422)"/></g></g><g transform="translate(45.533 121.823)"><g transform="translate(7.802 5.988)"><path class="h" d="M444.67,479.242a1.914,1.914,0,0,1,.031.58c-.012.458-.026,1.011-.042,1.683-.071,1.581-.165,3.717-.283,6.383-.308,5.613-.737,13.438-1.249,22.8v.023l-.006.032c-1.7,9.527-6.554,20.086-13.071,30.338-4.781,7.552-9.793,14.418-14.114,20.8a147.293,147.293,0,0,0-10.583,17.492,74.177,74.177,0,0,0-4.95,12.836c-.42,1.573-.734,2.8-.916,3.639a6.53,6.53,0,0,1-.349,1.267,6.477,6.477,0,0,1,.154-1.306c.118-.854.375-2.1.74-3.7a67.7,67.7,0,0,1,4.695-13.043,139.524,139.524,0,0,1,10.456-17.7c4.293-6.43,9.277-13.308,14.033-20.821,6.483-10.2,11.31-20.6,13.076-29.975l-.007.054c.657-9.352,1.206-17.169,1.6-22.776.216-2.659.388-4.79.516-6.369.068-.668.122-1.218.168-1.675A2.01,2.01,0,0,1,444.67,479.242Z" transform="translate(-399.128 -479.242)"/></g><g transform="translate(33.855 25.287)"><path class="i" d="M430.593,539.212s10.1-24.314-2.6-40.242a.871.871,0,0,0-1.527.295C425.336,503.328,423.255,515.831,430.593,539.212Z" transform="translate(-425.304 -498.633)"/><g transform="translate(3.377 8.813)"><path class="h" d="M428.77,507.488c.135-.014.444,1.743.8,4.6s.757,6.813,1.071,11.195.464,8.361.462,11.245a19.319,19.319,0,0,1-.283,4.664c-.144,0-.242-1.778-.413-4.643-.215-3.226-.469-7.012-.748-11.2s-.556-7.973-.781-11.2A23.08,23.08,0,0,1,428.77,507.488Z" transform="translate(-428.697 -507.488)"/></g><g class="k"><path d="M430.593,539.212s10.1-24.314-2.6-40.242a.871.871,0,0,0-1.527.295C425.336,503.328,423.255,515.831,430.593,539.212Z" transform="translate(-425.304 -498.633)"/></g></g><g transform="translate(0 84.275)"><path class="i" d="M399.147,598.082s8.1-25.053-5.86-39.9a.871.871,0,0,0-1.5.417C391,562.742,389.936,575.372,399.147,598.082Z" transform="translate(-391.289 -557.9)"/><g transform="translate(3.408 8.669)"><path class="h" d="M394.754,566.611c.133-.025.584,1.7,1.171,4.519s1.307,6.729,1.975,11.072,1.14,8.3,1.372,11.17a19.444,19.444,0,0,1,.1,4.672c-.144.01-.385-1.752-.789-4.594-.476-3.2-1.035-6.951-1.653-11.1s-1.2-7.9-1.688-11.1A23.084,23.084,0,0,1,394.754,566.611Z" transform="translate(-394.713 -566.611)"/></g><g class="k"><path d="M399.147,598.082s8.1-25.053-5.86-39.9a.871.871,0,0,0-1.5.417C391,562.742,389.936,575.372,399.147,598.082Z" transform="translate(-391.289 -557.9)"/></g></g><g transform="translate(52.008)"><path class="i" d="M443.543,509.378s21.568-15.1,19.391-35.357a.871.871,0,0,0-1.446-.571C458.358,476.276,449.894,485.71,443.543,509.378Z" transform="translate(-443.543 -473.226)"/><g class="k"><path d="M443.543,509.378s21.568-15.1,19.391-35.357a.871.871,0,0,0-1.446-.571C458.358,476.276,449.894,485.71,443.543,509.378Z" transform="translate(-443.543 -473.226)"/></g><g transform="translate(0.2 8.357)"><path class="h" d="M459.034,481.624c.121.061-.56,1.71-1.793,4.312s-3.016,6.156-5.1,10.022-4.1,7.305-5.643,9.738a19.43,19.43,0,0,1-2.741,3.784c-.12-.079.749-1.629,2.142-4.139,1.549-2.838,3.367-6.169,5.375-9.85l5.35-9.871A23.109,23.109,0,0,1,459.034,481.624Z" transform="translate(-443.744 -481.622)"/></g></g><g transform="translate(16.555 75.233)"><path class="i" d="M407.922,573.2s26.014-4.056,32.983-23.2a.871.871,0,0,0-1.047-1.149C435.8,550.008,424.049,554.751,407.922,573.2Z" transform="translate(-407.922 -548.815)"/><g class="k"><path d="M407.922,573.2s26.014-4.056,32.983-23.2a.871.871,0,0,0-1.047-1.149C435.8,550.008,424.049,554.751,407.922,573.2Z" transform="translate(-407.922 -548.815)"/></g><g transform="translate(0.16 6.248)"><path class="h" d="M434.071,555.1c.083.108-1.256,1.288-3.508,3.081s-5.419,4.2-8.994,6.75-6.894,4.755-9.356,6.257a19.489,19.489,0,0,1-4.128,2.19c-.074-.124,1.391-1.134,3.746-2.774L421,564.131l9.15-6.506A23.135,23.135,0,0,1,434.071,555.1Z" transform="translate(-408.082 -555.093)"/></g></g></g></g><g transform="translate(29.683 269.316)"><path class="f" d="M382.952,621.418l-7.589,51.073h47.29l-6.131-51.073Z" transform="translate(-375.364 -621.418)"/></g><g transform="translate(34.593 284.649)"><path class="h" d="M418.436,637.317c0,.272-8.539.492-19.069.492s-19.071-.22-19.071-.492,8.538-.493,19.071-.493S418.436,637.044,418.436,637.317Z" transform="translate(-380.297 -636.824)"/></g><g transform="translate(34.281 288.713)"><path class="h" d="M419.372,641.4c0,.272-8.818.493-19.694.493s-19.7-.221-19.7-.493,8.817-.493,19.7-.493S419.372,641.128,419.372,641.4Z" transform="translate(-379.983 -640.907)"/></g></g></g></g></svg>