<svg xmlns="http://www.w3.org/2000/svg" xmlns:xlink="http://www.w3.org/1999/xlink" width="139" height="138" viewBox="0 0 139 138"><defs><style>.a{fill:url(#a);}.b{fill:url(#d);}.c{filter:url(#k);}.d{filter:url(#h);}.e{filter:url(#e);}.f{filter:url(#b);}</style><linearGradient id="a" y1="0.5" x2="1" y2="0.5" gradientUnits="objectBoundingBox"><stop offset="0" stop-color="#2bd67b"/><stop offset="1" stop-color="#166c3d"/></linearGradient><filter id="b" x="0" y="0" width="139" height="138" filterUnits="userSpaceOnUse"><feOffset dx="3" dy="3" input="SourceAlpha"/><feGaussianBlur stdDeviation="10" result="c"/><feFlood flood-color="#161f2d" flood-opacity="0.302"/><feComposite operator="in" in2="c"/><feComposite in="SourceGraphic"/></filter><linearGradient id="d" x1="0.5" x2="0.5" y2="1" gradientUnits="objectBoundingBox"><stop offset="0" stop-color="#eafbf3"/><stop offset="1" stop-color="#a0edc4"/></linearGradient><filter id="e" x="41.891" y="39.89" width="52.552" height="58.802" filterUnits="userSpaceOnUse"><feOffset dx="2" dy="2" input="SourceAlpha"/><feGaussianBlur stdDeviation="1.5" result="f"/><feFlood flood-opacity="0.161"/><feComposite operator="in" in2="f"/><feComposite in="SourceGraphic"/></filter><filter id="h" x="51.689" y="56.266" width="23.534" height="23.538" filterUnits="userSpaceOnUse"><feOffset dx="2" dy="2" input="SourceAlpha"/><feGaussianBlur stdDeviation="3" result="i"/><feFlood flood-opacity="0.161"/><feComposite operator="in" in2="i"/><feComposite in="SourceGraphic"/></filter><filter id="k" x="61.211" y="56.275" width="23.07" height="23.502" filterUnits="userSpaceOnUse"><feOffset dx="2" dy="2" input="SourceAlpha"/><feGaussianBlur stdDeviation="3" result="l"/><feFlood flood-opacity="0.161"/><feComposite operator="in" in2="l"/><feComposite in="SourceGraphic"/></filter></defs><g transform="translate(27.316 26.738)"><g class="f" transform="matrix(1, 0, 0, 1, -27.32, -26.74)"><rect class="a" width="79" height="78" rx="20" transform="translate(27 27)"/></g><g transform="translate(17.075 15.652)"><g class="e" transform="matrix(1, 0, 0, 1, -44.39, -42.39)"><path class="b" d="M364.079,924.966v-33.98a2.771,2.771,0,0,0,.11-.329,5.089,5.089,0,0,1,5.351-4.435q16.347-.006,32.693,0a5.113,5.113,0,0,1,5.394,5.367q.01,21.8,0,43.6c0,.194-.029.388-.065.831l-11.353-10.527,1.166,4.189c-.2.025-.289.047-.381.047-9.27,0-18.54.02-27.81-.011a5.021,5.021,0,0,1-4.9-3.866C364.212,925.557,364.148,925.261,364.079,924.966Zm27.239-8.279c.446.557.851,1.014,1.2,1.511a1.157,1.157,0,0,0,1.14.516,9.012,9.012,0,0,0,6.516-3.1,1.77,1.77,0,0,0,.395-1.124,32.968,32.968,0,0,0-3.423-13.528,1.386,1.386,0,0,0-.373-.5,11.872,11.872,0,0,0-6.385-2.411,2.157,2.157,0,0,0-.645.164l.007.193a16.006,16.006,0,0,1,5.411,2.688,22.12,22.12,0,0,0-18.792-.007,19.294,19.294,0,0,1,5.875-2.988,1.349,1.349,0,0,0-.73-.15,12.017,12.017,0,0,0-5.884,2.208,2.52,2.52,0,0,0-.753.891A32.475,32.475,0,0,0,371.53,914.6a1.438,1.438,0,0,0,.325.877,8.819,8.819,0,0,0,6.692,3.3c.2.008.493.016.6-.1.535-.6,1.023-1.246,1.549-1.9-2.254-.888-3.439-1.7-3.985-2.764,6.3,3.376,12.547,3.441,18.787,0A7.683,7.683,0,0,1,391.318,916.687Z" transform="translate(-319.69 -843.83)"/></g><g class="d" transform="matrix(1, 0, 0, 1, -44.39, -42.39)"><path class="b" d="M467.623,1033.211a2.614,2.614,0,0,1,2.672,2.758,2.767,2.767,0,1,1-2.672-2.758Z" transform="translate(-406.07 -969.95)"/></g><g class="c" transform="matrix(1, 0, 0, 1, -44.39, -42.39)"><path class="b" d="M536.881,1035.982a2.542,2.542,0,1,1-2.579-2.7A2.6,2.6,0,0,1,536.881,1035.982Z" transform="translate(-463.6 -970)"/></g></g></g></svg>