<?xml version="1.0" encoding="utf-8"?>
<!-- Generator: Adobe Illustrator 24.0.0, SVG Export Plug-In . SVG Version: 6.00 Build 0)  -->
<svg version="1.1" id="Layer_1" xmlns="http://www.w3.org/2000/svg" xmlns:xlink="http://www.w3.org/1999/xlink" x="0px" y="0px"
	 viewBox="0 0 391.36 391.47" style="enable-background:new 0 0 391.36 391.47;" xml:space="preserve">
<style type="text/css">
	.st0{fill:#75E4AA;}
</style>
<path class="st0" d="M207.17,0c7.42,1,14.89,1.74,22.25,3.05c45.13,8.03,82.88,29.39,113.19,63.67
	c27.65,31.27,43.76,67.91,47.74,109.4c4.92,51.21-8.16,97.74-39.59,138.6c-29.11,37.84-67.16,62.37-113.97,72.14
	c-58.48,12.2-112.11,0.23-159.73-35.85c-38.28-29-62.41-67.51-72.63-114.51c-1.8-8.3-2.5-16.84-3.73-25.26
	c-0.2-1.36-0.47-2.71-0.7-4.06c0-7.64,0-15.29,0-22.93c0.31-2.75,0.63-5.5,0.94-8.25C5.62,133.87,21.7,96.72,50.09,65.23
	c30.14-33.44,67.48-54.32,111.9-62.18C169.36,1.74,176.82,1,184.24,0C191.88,0,199.53,0,207.17,0z M195.6,371.77
	c97.03,0.16,175.71-78.35,176.17-175.77c0.45-96.96-78.61-176.2-175.96-176.36C98.77,19.48,20.09,97.98,19.64,195.41
	C19.18,292.37,98.24,371.61,195.6,371.77z"/>
<path class="st0" d="M185.83,256.83c-1.56-1.46-2.49-2.28-3.36-3.15c-11.45-11.43-22.92-22.85-34.32-34.32
	c-3.24-3.26-7.02-4.11-11.18-2.61c-3.68,1.33-5.59,4.35-5.91,8.2c-0.31,3.7,1.49,6.5,4.05,9.05c17.34,17.26,34.61,34.57,51.92,51.86
	c6.08,6.07,11.35,6.07,17.41,0.02c17.21-17.2,34.42-34.41,51.62-51.62c0.72-0.72,1.46-1.43,2.09-2.23
	c2.55-3.18,2.93-7.64,1.02-11.08c-1.97-3.54-5.77-5.55-10.04-4.5c-2.31,0.57-4.69,1.99-6.41,3.68
	c-11.38,11.14-22.58,22.46-33.85,33.71c-0.86,0.86-1.79,1.65-3.29,3.03c0-2.11,0-3.46,0-4.8c0-45.99,0-91.98-0.01-137.98
	c0-1.53,0.11-3.09-0.15-4.58c-0.68-3.95-2.97-6.68-6.74-8.08c-3.61-1.33-6.83-0.28-9.54,2.15c-2.75,2.47-3.34,5.77-3.33,9.38
	c0.05,46.25,0.03,92.49,0.03,138.74C185.83,253.1,185.83,254.5,185.83,256.83z"/>
<path class="st0" d="M185.83,256.83c0-2.33,0-3.73,0-5.12c0-46.25,0.02-92.49-0.03-138.74c0-3.61,0.58-6.91,3.33-9.38
	c2.72-2.43,5.93-3.48,9.54-2.15c3.77,1.39,6.06,4.13,6.74,8.08c0.26,1.49,0.15,3.05,0.15,4.58c0.01,45.99,0.01,91.98,0.01,137.98
	c0,1.34,0,2.69,0,4.8c1.51-1.38,2.43-2.17,3.29-3.03c11.27-11.25,22.47-22.57,33.85-33.71c1.72-1.68,4.1-3.11,6.41-3.68
	c4.27-1.05,8.07,0.96,10.04,4.5c1.92,3.44,1.53,7.9-1.02,11.08c-0.63,0.79-1.37,1.51-2.09,2.23c-17.2,17.21-34.41,34.42-51.62,51.62
	c-6.06,6.05-11.33,6.05-17.41-0.02c-17.31-17.28-34.59-34.6-51.92-51.86c-2.56-2.55-4.36-5.35-4.05-9.05
	c0.32-3.85,2.23-6.87,5.91-8.2c4.16-1.5,7.94-0.65,11.18,2.61c11.41,11.48,22.87,22.89,34.32,34.32
	C183.35,254.55,184.27,255.37,185.83,256.83z"/>
</svg>
