<svg xmlns="http://www.w3.org/2000/svg" width="83.109" height="80" viewBox="0 0 83.109 80"><defs><style>.a{fill:#550012;}.b{fill:#e5fbf2;}.c{fill:#8b001f;}.d{fill:#ffd4e0;}.e{fill:#00994f;}.f{fill:#fff1f5;}.g{fill:#fff;}.h{fill:#006e38;}.i{fill:#f3be99;}.j{fill:#403d66;}.k,.q{mix-blend-mode:multiply;isolation:isolate;}.l{fill:#486e96;}.m{fill:#eff6fd;}.n{fill:#de002f;}.o{fill:#e2c5ce;}.p{fill:#f3b891;}.q{fill:#fae8d5;}.r{fill:#f09e8e;}.s{fill:#cf9c7d;}.t{fill:#35260f;}.u{fill:#d67c6c;}.v{fill:#323282;}.w{fill:#6464bc;}</style></defs><g transform="translate(-122.762 -403.501)"><g transform="translate(122.762 403.501)"><path class="a" d="M198.033,478.171c-13.195,14.905-24.389,15.825-32.981,4.665-11.851-15.393-33.607-7.789-35.152-27.109s34.672-49.206,58.7-44.922S222.45,450.588,198.033,478.171Z" transform="translate(-129.852 -410.39)"/><path class="b" d="M141.569,499.033c-5.284-3.493-11.273,1.007-11.56,4.734s11.572,4.755,13.417,3.285S143.026,500,141.569,499.033Z" transform="translate(-124.598 -438.52)"/><path class="a" d="M243.025,415.863c-.473-5.022-6.257-6.49-8.712-4.806s2.832,9.555,4.666,9.965S243.156,417.249,243.025,415.863Z" transform="translate(-159.921 -410.39)"/></g><g transform="translate(125.694 406.196)"><g transform="translate(0 39.003)"><path class="c" d="M144.791,494.962h10.537c.6-1.16.107-2.55-.522-3.694a13.742,13.742,0,0,1-1.747-3.486,22.515,22.515,0,0,1-.2-2.467,3.019,3.019,0,0,0-1.03-2.173c-.883-.647-2.162-.442-3.1-1A3.186,3.186,0,0,1,147.4,479.7c-.109-.951.014-1.914-.045-2.87a3.586,3.586,0,0,0-1.074-2.578c-1.12-.937-2.918-.677-4.012-1.644-.74-.654-.981-1.724-1.671-2.432a2.532,2.532,0,0,0-4.089,2.879c.356.729,1.059,1.286,1.239,2.077.328,1.45-1.25,2.739-1.167,4.224.067,1.2,1.178,2.054,2.212,2.674s2.2,1.309,2.507,2.475c.409,1.55-.915,3.135-.605,4.707.228,1.157,1.259,1.948,2.157,2.712S144.971,493.8,144.791,494.962Z" transform="translate(-129.914 -469.44)"/><g transform="translate(0 7.569)"><path class="d" d="M134.878,499.771h8.511a3.952,3.952,0,0,0-1.594-4.482c-.871-.589-2.022-.853-2.595-1.735-.629-.968-.3-2.3-.791-3.344a4.14,4.14,0,0,0-2.578-1.864,7.4,7.4,0,0,1-2.921-1.4c-1.04-1.019-1.23-2.626-2.056-3.825a3.156,3.156,0,0,0-2.729-1.455,2.109,2.109,0,0,0-1.956,2.149c.141,1.289,1.675,2.245,1.45,3.522-.131.745-.822,1.242-1.227,1.88a2.748,2.748,0,0,0,.755,3.615,9.639,9.639,0,0,0,2.141.825,2.309,2.309,0,0,1,1.6,1.51c.151.747-.318,1.487-.31,2.249a2.474,2.474,0,0,0,1.491,2.056A6.752,6.752,0,0,0,134.878,499.771Z" transform="translate(-126.011 -481.655)"/></g></g><g transform="translate(58.913 42.517)"><path class="c" d="M221.105,497.16h7.688c4.483-6.116,9-14.47,8.756-22.049C227.059,478.2,220.848,491.752,221.105,497.16Z" transform="translate(-221.098 -475.111)"/><g transform="translate(5.313 6.595)"><path class="d" d="M229.678,501.209h5.7c3.836-4.019,7.486-9.836,7.308-15.453C234.91,488.044,229.488,497.2,229.678,501.209Z" transform="translate(-229.673 -485.756)"/></g></g><g transform="translate(23.726)"><rect class="e" width="33.558" height="64.386" rx="5.643"/><path class="f" d="M197.433,412.944v54.741a2.166,2.166,0,0,1-2.165,2.164H168.276a2.163,2.163,0,0,1-2.164-2.164V412.944a2.162,2.162,0,0,1,2.164-2.164h7.293a.42.42,0,0,1,.422.419v.341a1.218,1.218,0,0,0,1.217,1.217h9.127a1.218,1.218,0,0,0,1.217-1.217V411.2a.42.42,0,0,1,.42-.419h7.295A2.164,2.164,0,0,1,197.433,412.944Z" transform="translate(-164.993 -408.121)"/><path class="b" d="M197.433,412.944V414.8H166.112v-1.859a2.162,2.162,0,0,1,2.164-2.164h7.293a.42.42,0,0,1,.422.419v.341a1.218,1.218,0,0,0,1.217,1.217h9.127a1.218,1.218,0,0,0,1.217-1.217V411.2a.42.42,0,0,1,.42-.419h7.295A2.164,2.164,0,0,1,197.433,412.944Z" transform="translate(-164.993 -408.121)"/><g transform="translate(3.659 4.172)"><rect width="0.228" height="1.316" transform="translate(26.011)"/><rect width="0.228" height="0.976" transform="translate(25.648 0.339)"/><rect width="0.228" height="0.658" transform="translate(25.285 0.658)"/><path d="M171.121,413.315a1.116,1.116,0,0,0-.893.351.1.1,0,0,0,.029.143.105.105,0,0,0,.057.017.1.1,0,0,0,.086-.046,1.135,1.135,0,0,1,1.443,0,.1.1,0,0,0,.172-.114A1.119,1.119,0,0,0,171.121,413.315Z" transform="translate(-170.211 -413.257)"/><path d="M171.284,413.972a.76.76,0,0,0-.628.26.1.1,0,0,0,.172.114.7.7,0,0,1,.913,0,.1.1,0,0,0,.086.046.1.1,0,0,0,.057-.017.1.1,0,0,0,.029-.143A.759.759,0,0,0,171.284,413.972Z" transform="translate(-170.374 -413.507)"/><circle cx="0.205" cy="0.205" r="0.205" transform="translate(0.705 0.848)"/></g><g transform="translate(4.641 12.319)"><path class="c" d="M2.919,0H14.462a2.919,2.919,0,0,1,2.919,2.919v0a2.919,2.919,0,0,1-2.919,2.919H0a0,0,0,0,1,0,0V2.919A2.919,2.919,0,0,1,2.919,0Z" transform="translate(1.194)"/><path class="c" d="M2.919,0H14.462a2.919,2.919,0,0,1,2.919,2.919v0a2.919,2.919,0,0,1-2.919,2.919H0a0,0,0,0,1,0,0V2.919A2.919,2.919,0,0,1,2.919,0Z" transform="translate(1.194 19.054)"/><path class="c" d="M2.315,0H13.457a2.315,2.315,0,0,1,2.315,2.315v0a2.315,2.315,0,0,1-2.315,2.315H0a0,0,0,0,1,0,0V2.315A2.315,2.315,0,0,1,2.315,0Z" transform="translate(1.194 26.037)"/><path class="d" d="M184.861,443.05H201.12V439.9A1.122,1.122,0,0,0,200,438.779H184.861a1.122,1.122,0,0,0-1.122,1.122v2.027A1.122,1.122,0,0,0,184.861,443.05Z" transform="translate(-176.339 -431.091)"/><path class="d" d="M184.861,481.885H201.12v-3.149A1.122,1.122,0,0,0,200,477.614H184.861a1.122,1.122,0,0,0-1.122,1.122v2.027A1.122,1.122,0,0,0,184.861,481.885Z" transform="translate(-176.339 -445.865)"/><path class="d" d="M191.127,451.578h12.429v-3.286a.985.985,0,0,0-.986-.986H191.127a.985.985,0,0,0-.986.986v2.3A.985.985,0,0,0,191.127,451.578Z" transform="translate(-178.775 -434.335)"/><g transform="translate(0 41.11)"><path class="d" d="M193.446,497.973H174.422a2.625,2.625,0,1,1,0-5.251h19.024a2.625,2.625,0,1,1,0,5.251Zm-19.024-5.045a2.419,2.419,0,0,0,0,4.839h19.024a2.419,2.419,0,1,0,0-4.839Z" transform="translate(-171.796 -492.722)"/></g><path class="d" d="M206.63,496.1a1.4,1.4,0,1,1-1.4-1.4A1.4,1.4,0,0,1,206.63,496.1Z" transform="translate(-183.981 -452.364)"/></g><g transform="translate(2.094 13.345)"><g transform="translate(16.746 18.052)"><circle class="d" cx="5.444" cy="5.444" r="5.444"/><g transform="translate(2.389 5.527)"><path class="c" d="M204.273,467.371a2.888,2.888,0,0,1-5.692-.389,2.838,2.838,0,0,1,.062-.9Z" transform="translate(-198.569 -466.084)"/><path class="g" d="M204.273,467.371a2.868,2.868,0,0,1-.335.836l-5.357-1.226a2.838,2.838,0,0,1,.062-.9Z" transform="translate(-198.569 -466.084)"/></g><path class="c" d="M208.438,462.95c-.37-1.051-1.489-.391-1.489-.391s-.527-1.188-1.439-.547.677,2.928.677,2.928S208.811,464.01,208.438,462.95Z" transform="translate(-198.712 -458.936)"/><path class="c" d="M198.16,460.691c.79-.786,1.512.3,1.512.3s.991-.841,1.534.133-1.882,2.343-1.882,2.343S197.364,461.484,198.16,460.691Z" transform="translate(-195.952 -458.397)"/></g><g transform="translate(0 0)"><circle class="d" cx="3.449" cy="3.449" r="3.449" transform="translate(0 6.823) rotate(-81.516)"/><path class="c" d="M173.776,435.852a3.108,3.108,0,0,1-1.929.025.2.2,0,0,1,.138-.384h0a2.285,2.285,0,0,0,2.773-1.042.2.2,0,1,1,.356.2A2.535,2.535,0,0,1,173.776,435.852Z" transform="translate(-169.217 -430.431)"/><path class="c" d="M171.894,433.492a.135.135,0,0,1-.175-.079.673.673,0,1,0-1.261.474.136.136,0,0,1-.255.1.945.945,0,0,1,1.77-.665A.136.136,0,0,1,171.894,433.492Z" transform="translate(-168.62 -429.806)"/><path class="c" d="M175.919,431.979a.135.135,0,0,1-.175-.079.673.673,0,1,0-1.261.474.136.136,0,0,1-.255.1A.945.945,0,1,1,176,431.8.135.135,0,0,1,175.919,431.979Z" transform="translate(-170.152 -429.231)"/><path class="c" d="M177.72,432.586c.058.155-.1.356-.344.449s-.5.043-.555-.111.1-.356.344-.449S177.662,432.431,177.72,432.586Z" transform="translate(-171.156 -429.701)"/><path class="c" d="M170.593,435.264c.058.154-.1.356-.344.449s-.5.043-.555-.112.1-.356.344-.449S170.535,435.109,170.593,435.264Z" transform="translate(-168.444 -430.72)"/></g></g></g><g transform="translate(6.483 10.633)"><g transform="translate(4.438 26.481)"><g transform="translate(1.146 23.12)"><path class="h" d="M151.612,507.612a1.475,1.475,0,0,1,.253,1.732H145.52a.632.632,0,0,1,.253-.735,32.154,32.154,0,0,1,3.276-1Z" transform="translate(-145.488 -505.192)"/><path class="i" d="M150.147,503.942l.675,2.184a5.424,5.424,0,0,0,2.563,0l-.588-2.42Z" transform="translate(-147.26 -503.706)"/></g><g transform="translate(6.843 23.188)"><path class="h" d="M160.806,507.612a1.476,1.476,0,0,1,.253,1.732h-6.345a.633.633,0,0,1,.253-.735,32.153,32.153,0,0,1,3.276-1Z" transform="translate(-154.682 -505.26)"/><path class="i" d="M160.148,504.047l.174,2.121a5.426,5.426,0,0,0,2.564,0v-2.352Z" transform="translate(-156.761 -503.816)"/></g><path class="j" d="M146.146,466.391h6.313s-3.458,8.6-3.805,11.488c-.362,3.015,2.423,12.071,2.423,12.071a7.2,7.2,0,0,1-3.819.3s-3.59-9.28-3.62-12.4C143.611,475.095,146.146,466.391,146.146,466.391Z" transform="translate(-143.638 -466.39)"/><path class="j" d="M161.221,466.39l-.022,23.6s-.278.089-.706.177l-.2.039a5.743,5.743,0,0,1-2.843-.084l-2.256-23.737Z" transform="translate(-148.034 -466.39)"/><g class="k" transform="translate(7.291 1.265)"><path class="l" d="M155.592,468.521c-.008-.119-.194-.12-.186,0q.086,1.27.172,2.541c.008.118.195.12.186,0Z" transform="translate(-155.406 -468.432)"/></g><path class="m" d="M163.219,490.172l-.2.039q-.238-2.334-.389-4.674-.312-4.851-.263-9.714.046-4.72.438-9.433h.206q-.213,2.574-.325,5.16-.21,4.857-.056,9.717Q162.77,485.726,163.219,490.172Z" transform="translate(-150.759 -466.39)"/></g><g transform="translate(6.946 9.07)"><path class="n" d="M158.367,455.7s-7.818,2.034-10.681,0l.893-8.607a23.8,23.8,0,0,0,.317-6.339c.447-1.762,3.73-2.489,4.581-2.465.509.015,3.141-.165,4.572,1.931.7,1.025.265,5.148.317,8.5C158.428,452.677,158.367,455.7,158.367,455.7Z" transform="translate(-147.686 -438.289)"/></g><path class="d" d="M151.023,438.624l.059,8.815-3.048,10.747-2.47-1.576s2.064-6.621,2.076-8.908C147.653,445.28,145.768,439.288,151.023,438.624Z" transform="translate(-139.933 -429.346)"/><path class="d" d="M157.946,438.21l-.937,7.772,1.089,11.891,4.664-2.2s-.932-7.064-.705-9.422C162.271,444.017,163.775,438.21,157.946,438.21Z" transform="translate(-144.287 -429.189)"/><g transform="translate(16.095 17.623)"><g class="k"><path class="o" d="M163.664,452.108a.1.1,0,0,0-.141.037,2.225,2.225,0,0,1-1,.758.106.106,0,0,0-.072.127.1.1,0,0,0,.126.072,2.477,2.477,0,0,0,1.12-.853A.1.1,0,0,0,163.664,452.108Z" transform="translate(-162.452 -452.094)"/></g><g class="k" transform="translate(0.541 0.407)"><path class="o" d="M164.125,452.765a.1.1,0,0,0-.141.037,3.077,3.077,0,0,1-.627.86c-.1.092.05.238.145.146a3.236,3.236,0,0,0,.66-.9A.105.105,0,0,0,164.125,452.765Z" transform="translate(-163.325 -452.751)"/></g></g><path class="i" d="M138.29,442.782a5.8,5.8,0,0,1-.952-1.53c-.046-.421.243-2.043,1.129-2.024s1.413,2.95,1.413,2.95Z" transform="translate(-136.801 -429.576)"/><g transform="translate(1.224 11.203)"><path class="d" d="M145.506,441.731a54.309,54.309,0,0,1-3,4.73A26.77,26.77,0,0,1,140.526,443a3.43,3.43,0,0,0-2.076.743s1.7,5.974,3.745,5.974,4.348-2.841,4.348-2.841Z" transform="translate(-138.45 -441.731)"/></g><g transform="translate(6.472)"><path class="h" d="M153.832,428.7a3.227,3.227,0,0,1-.015-1.092c.048-.362.128-.719.183-1.079a1.8,1.8,0,0,0,.008-.676.633.633,0,0,0-.39-.484,1.3,1.3,0,0,0-.5-1.442,1.909,1.909,0,0,0-1.461-.228c-.5.094-.97.294-1.462.413a4.672,4.672,0,0,1-2.219,0,.927.927,0,0,0-.783.019.768.768,0,0,0-.259.517,1.433,1.433,0,0,0,.639,1.4.669.669,0,0,0-.166.524,1.216,1.216,0,0,0,.192.529,2.647,2.647,0,0,0,1.633,1.088c.633.167,1.289.2,1.923.358.428.105.844.266,1.277.346A2.308,2.308,0,0,0,153.832,428.7Z" transform="translate(-146.92 -423.65)"/><path class="p" d="M153.953,427.91c.191,2.182.693,6.043.693,6.043-.507.864-2.364.724-2.317.432a1.657,1.657,0,0,0-.1-.713,1.027,1.027,0,0,0-.315-.486.576.576,0,0,0-.294-.059h-.033c-.615,0-1.81.21-2.318-.543-.631-.935-.66-3.512-.571-4.753a2.213,2.213,0,0,1,1.911-1.892C152.116,425.7,153.761,425.715,153.953,427.91Z" transform="translate(-147.582 -424.482)"/><path class="h" d="M152.013,426.649a.612.612,0,0,0,.665.579,4.053,4.053,0,0,0,.691,1.463.622.622,0,0,0,.362.278.494.494,0,0,0,.441-.211,1.765,1.765,0,0,0,.284-1,4.707,4.707,0,0,0-.039-1.3,1.724,1.724,0,0,0-.67-1.087,2.469,2.469,0,0,0-1.319-.306,7.25,7.25,0,0,0-1.6.087,3.076,3.076,0,0,0-1.442.658,2.088,2.088,0,0,0-.594.848,1.254,1.254,0,0,0-.1.462c.006.147.1.193.232.226a3.6,3.6,0,0,0,2.059-.115A3.469,3.469,0,0,0,152.013,426.649Z" transform="translate(-147.594 -424.182)"/><path class="q" d="M155.826,436.652a5.937,5.937,0,0,1-1.692.5.053.053,0,0,0,.015.1,6.044,6.044,0,0,0,1.719-.512C155.93,436.72,155.888,436.623,155.826,436.652Z" transform="translate(-149.648 -428.594)"/><g transform="translate(1.193 3.967)"><path class="r" d="M149.586,432.576c.019.126-.132.253-.336.283s-.384-.049-.4-.175.133-.253.336-.283S149.568,432.45,149.586,432.576Z" transform="translate(-148.846 -430.943)"/><path class="r" d="M152.615,432.138c.018.126-.133.253-.337.283s-.384-.049-.4-.175.133-.253.336-.283S152.6,432.012,152.615,432.138Z" transform="translate(-149.998 -430.777)"/><path class="s" d="M150.923,432.936a.2.2,0,0,0-.149.021.15.15,0,0,0-.063.126.2.2,0,0,0,.057.133.423.423,0,0,0,.126.084.053.053,0,0,0,.068-.029.054.054,0,0,0-.029-.069l-.024-.012-.012-.007,0,0a.3.3,0,0,1-.042-.031l0,0-.009-.01-.007-.011h0l-.01-.023v-.016h0a.045.045,0,0,1,0-.009l0-.009v0l0-.007,0,0,0,0,.007-.006c-.007.007,0,0,0,0l.01,0h.032l.029,0a.052.052,0,0,0,.058-.045A.054.054,0,0,0,150.923,432.936Z" transform="translate(-149.556 -431.147)"/><path class="t" d="M151.527,431.325a.209.209,0,0,1-.135.255c-.093.014-.183-.079-.2-.206a.209.209,0,0,1,.135-.255C151.419,431.106,151.509,431.2,151.527,431.325Z" transform="translate(-149.737 -430.458)"/><path class="h" d="M151.465,430.1a.529.529,0,0,0-.5.029c-.044.027,0,.1.04.069a.443.443,0,0,1,.421-.029.04.04,0,0,0,.041-.069Z" transform="translate(-149.644 -430.052)"/><path class="h" d="M149.759,430.291a.51.51,0,0,0-.541.116c-.036.037.02.094.057.057a.43.43,0,0,1,.463-.1.04.04,0,0,0,.049-.028A.04.04,0,0,0,149.759,430.291Z" transform="translate(-148.983 -430.13)"/><path class="t" d="M149.925,431.557a.209.209,0,0,1-.135.255c-.093.013-.183-.079-.2-.206a.208.208,0,0,1,.135-.254C149.817,431.338,149.907,431.43,149.925,431.557Z" transform="translate(-149.127 -430.546)"/><path class="u" d="M151.389,434.321a.057.057,0,0,1,.006-.114.559.559,0,0,0,.347-.152,1.04,1.04,0,0,0,.234-.326.057.057,0,1,1,.1.05,1.165,1.165,0,0,1-.261.361.676.676,0,0,1-.419.181Z" transform="translate(-149.794 -431.439)"/></g><g transform="translate(5.785 4.126)"><path class="p" d="M156.6,430.65a.891.891,0,0,1,.734-.337.645.645,0,0,1,.569.5,1.309,1.309,0,0,1-.011.565,1.935,1.935,0,0,1-.195.563.843.843,0,0,1-.955.486c-.529-.185-.554-.84-.414-1.294A1.34,1.34,0,0,1,156.6,430.65Z" transform="translate(-156.258 -430.31)"/><path class="s" d="M157.592,431.077a.7.7,0,0,0-.511.426,1.535,1.535,0,0,0-.162.682c0,.063.1.068.1.006a1.461,1.461,0,0,1,.109-.546l.008,0a.66.66,0,0,1,.41-.048.05.05,0,0,0,.061-.031.049.049,0,0,0-.032-.061.77.77,0,0,0-.392.02.591.591,0,0,1,.432-.35C157.676,431.165,157.654,431.07,157.592,431.077Z" transform="translate(-156.509 -430.601)"/></g></g><g transform="translate(0 9.093)"><path class="v" d="M141.076,442.545h-2.347a.19.19,0,0,1-.152-.1l-2.069-3.923c-.108-.208.079-.195.135-.195h2.347a.191.191,0,0,1,.152.1l1.985,4.015C141.155,442.5,141.132,442.545,141.076,442.545Z" transform="translate(-136.475 -438.326)"/><path class="n" d="M141.012,442.709h-2.346a.191.191,0,0,1-.152-.1l-1.985-4.014c-.028-.056,0-.1.051-.1h2.346a.19.19,0,0,1,.152.1l1.986,4.014C141.091,442.663,141.068,442.709,141.012,442.709Z" transform="translate(-136.49 -438.388)"/></g><g transform="translate(2.055 9.886)"><g transform="translate(0 0.99)"><path class="i" d="M143.356,443.2s-2.229-2.455-3.138-1.874c-.927.594-.1,3.074.2,3.221a15.707,15.707,0,0,0,2.093.4Z" transform="translate(-139.792 -441.216)"/><path class="i" d="M144.89,443.187s-.265-1.95-.648-1.983-.416,1.164-.416,1.164Z" transform="translate(-141.327 -441.204)"/><path class="i" d="M145.026,444.4l1.314.7-1.077,1.744-1.082-.69Z" transform="translate(-141.462 -442.422)"/></g><g transform="translate(2.977)"><path class="d" d="M155.858,439.737a1.875,1.875,0,0,1,1.045,2.406c-1.089,2.268-3.326,6.038-5.062,6.423-2.2.486-7.211-3.229-7.211-3.229-.252-.68,1.035-2.283,1.731-2.488,0,0,3.6,2.009,4.465,1.822a14.981,14.981,0,0,0,2.833-4.1,1.712,1.712,0,0,1,2.2-.84Z" transform="translate(-144.598 -439.606)"/></g><g class="k" transform="translate(10.977 2.973)"><path class="o" d="M161.138,444.479a8.724,8.724,0,0,1-2.549,4.109c-.342.347-.695.683-1.047,1.019-.1.092.05.237.145.146a13.658,13.658,0,0,0,3.21-3.934,6.245,6.245,0,0,0,.44-1.285C161.364,444.4,161.166,444.349,161.138,444.479Z" transform="translate(-157.51 -444.405)"/></g></g></g><g transform="translate(54.955 12.296)"><g transform="translate(5.94 47.293)"><path class="p" d="M229.127,507.51l-4.831-3.674a1.525,1.525,0,0,1,.943-1.116.871.871,0,0,1,.253-.055l1.952,1.484s.23.292.531.685a18.27,18.27,0,0,1,1.385,1.97A.605.605,0,0,1,229.127,507.51Z" transform="translate(-224.296 -502.665)"/></g><path class="h" d="M229.127,507.544,224.3,503.87a1.525,1.525,0,0,1,.943-1.116,1.484,1.484,0,0,1,.006.167,1.485,1.485,0,0,0,.162.636,1.815,1.815,0,0,0,.482.595,3.584,3.584,0,0,0,1.605.636c.159.029.319.055.48.08a18.27,18.27,0,0,1,1.385,1.97A.605.605,0,0,1,229.127,507.544Z" transform="translate(-218.356 -455.406)"/><path class="p" d="M227.24,471.868s4.157,9.251,4.156,9.489c0,.219-5.164,9.266-5.164,9.266a2.016,2.016,0,0,0,1.914,1.455s8.165-9.486,8.165-10.9c0-1.971-3.391-10.178-3.391-10.178Z" transform="translate(-219.093 -443.327)"/><g transform="translate(3.387 50.479)"><path class="p" d="M226.388,509.462l-6.068,0a1.551,1.551,0,0,1,.045-1.418.988.988,0,0,1,.2-.239l2.452,0s.566.146,1.221.33a14.233,14.233,0,0,1,1.912.621A.606.606,0,0,1,226.388,509.462Z" transform="translate(-220.175 -507.807)"/></g><path class="h" d="M226.388,509.61l-6.068,0a1.551,1.551,0,0,1,.045-1.418,2.556,2.556,0,0,0,1.913.727,3.406,3.406,0,0,0,.809-.128,4.272,4.272,0,0,0,.688-.26c.113-.056.222-.113.331-.175.041-.023.082-.051.128-.076a14.233,14.233,0,0,1,1.912.621A.606.606,0,0,1,226.388,509.61Z" transform="translate(-216.789 -457.476)"/><path class="p" d="M220.473,470.057l.2,23.391a4.181,4.181,0,0,0,2.466,0l2.522-23.388Z" transform="translate(-216.902 -442.967)"/><path class="p" d="M232.515,443.444l.9,8.638,2.793,6.127-1.889.867-3.393-6.689Z" transform="translate(-220.877 -432.843)"/><path class="n" d="M231.864,444.034s.436,3.423,1.024,8.237l1.546,2.688a3.937,3.937,0,0,1-2.794,1.509l-2.794-7.541Z" transform="translate(-220.088 -433.067)"/><g transform="translate(13.438 25.366)"><path class="p" d="M236.4,468.142a10.64,10.64,0,0,0,.265,1.962c.445.445,2.98.429,3.138-.186s-1.514-2.643-1.514-2.643Z" transform="translate(-236.398 -467.275)"/><path class="p" d="M239.446,467.425s1.7.086,1.618.506-1.361.363-1.361.363Z" transform="translate(-237.558 -467.332)"/></g><path class="h" d="M227.983,430.453a9.088,9.088,0,0,0,.719,2.461,6.075,6.075,0,0,1,.408,1.953,3.635,3.635,0,0,1-3.02,3.336,14.522,14.522,0,0,1-4.025.165,8.127,8.127,0,0,0-3.955.6,13.148,13.148,0,0,1-1.21.634,1.523,1.523,0,0,1-1.32-.032,1.707,1.707,0,0,1-.655-.973,4.531,4.531,0,0,1,2.106-5.348c.651-.362,1.379-.559,2.055-.87a3,3,0,0,0,1.613-1.467,7.186,7.186,0,0,0,.259-1.412,3.3,3.3,0,0,1,.8-1.642,4.471,4.471,0,0,1,1.9-.987,9.858,9.858,0,0,1,1.791-.5,2.925,2.925,0,0,1,2.1.411,1.839,1.839,0,0,1,.732,1.1,8.571,8.571,0,0,1-.288,2.178A3.308,3.308,0,0,0,227.983,430.453Z" transform="translate(-214.709 -426.333)"/><g transform="translate(2.559 9.244)"><path class="n" d="M218.839,468.1c6.758-.368,9.077-3.026,14.613-2.273,0,0-5.183-10.1-5.224-10.248a45.093,45.093,0,0,1-.739-5.745c1.834-3.8.985-5.82.883-6.221-.428-1.685-3.567-2.381-4.381-2.357A5.074,5.074,0,0,0,219.7,443.2c-.372.545.488,4.133.138,7.411-.157,1.468-.344,5.5-.514,7.326C219.014,461.231,218.839,468.1,218.839,468.1Z" transform="translate(-218.839 -441.253)"/></g><g class="k" transform="translate(8.608 28.452)"><path class="w" d="M229.915,477.273a8.99,8.99,0,0,1-1.094-4.921c.008-.128-.19-.127-.2,0a9.185,9.185,0,0,0,1.121,5.021C229.8,477.485,229.976,477.385,229.915,477.273Z" transform="translate(-228.603 -472.256)"/></g><g class="k" transform="translate(3.876 18.661)"><path class="w" d="M224.111,456.468a10.993,10.993,0,0,1-3.076,1.308.1.1,0,0,0,.053.191,11.177,11.177,0,0,0,3.123-1.328C224.319,456.573,224.22,456.4,224.111,456.468Z" transform="translate(-220.965 -456.453)"/></g><g transform="translate(6.569 1.049)"><path class="p" d="M226.585,431.327c-.183,2.086-.663,5.779-.663,5.779.485.826,2.261.692,2.216.413a1.579,1.579,0,0,1,.1-.681.973.973,0,0,1,.3-.465.54.54,0,0,1,.281-.057h.032c.587,0,1.731.2,2.217-.519.6-.895.631-3.359.546-4.545a2.116,2.116,0,0,0-1.828-1.81C228.342,429.212,226.769,429.228,226.585,431.327Z" transform="translate(-225.544 -428.528)"/><path class="h" d="M226.691,432.029a1.236,1.236,0,0,1-1.041-.168,1.115,1.115,0,0,1-.263-.95,3.236,3.236,0,0,1,1.7-2.469,3.827,3.827,0,0,1,3.028-.191,1.974,1.974,0,0,1,.693.381,1.071,1.071,0,0,1,.313.511.352.352,0,0,1-.1.413,9.756,9.756,0,0,1-.9.838,8.071,8.071,0,0,1-2.107,1.261A6.521,6.521,0,0,1,226.691,432.029Z" transform="translate(-225.337 -428.027)"/><path class="q" d="M227.247,439.688a5.687,5.687,0,0,0,1.618.482.05.05,0,0,1-.014.1,5.764,5.764,0,0,1-1.644-.489C227.148,439.752,227.188,439.66,227.247,439.688Z" transform="translate(-226.022 -432.461)"/><g transform="translate(3.488 3.271)"><path class="r" d="M233.84,435.789c-.017.121.127.242.322.271s.367-.047.385-.168-.127-.242-.322-.271S233.858,435.668,233.84,435.789Z" transform="translate(-232.044 -434.185)"/><path class="r" d="M230.944,435.37c-.017.121.127.242.322.271s.367-.047.385-.169-.127-.242-.322-.27S230.962,435.249,230.944,435.37Z" transform="translate(-230.943 -434.026)"/><path class="s" d="M232.847,436.133a.189.189,0,0,1,.142.02.144.144,0,0,1,.06.121.186.186,0,0,1-.054.127.4.4,0,0,1-.12.08.05.05,0,0,1-.065-.027.051.051,0,0,1,.027-.066l.024-.012.012-.006,0,0a.271.271,0,0,0,.04-.03l0,0,.009-.009.007-.01h0l.01-.022v0l0-.011h0a.035.035,0,0,0,0-.009v-.009l0,0,0-.007,0,0,0,0-.007-.006c.007.006,0,0,0,0l-.009,0h-.031l-.027,0a.05.05,0,0,1-.056-.043A.052.052,0,0,1,232.847,436.133Z" transform="translate(-231.651 -434.38)"/><path class="t" d="M232.39,434.624a.042.042,0,0,1-.041-.03.6.6,0,0,0-.042-.111.183.183,0,0,0-.068-.074.176.176,0,0,0-.159.008.621.621,0,0,0-.149.119.043.043,0,0,1-.061,0,.044.044,0,0,1,0-.061.7.7,0,0,1,.172-.135.263.263,0,0,1,.238-.006.26.26,0,0,1,.1.109.7.7,0,0,1,.048.125.044.044,0,0,1-.029.055Z" transform="translate(-231.291 -433.688)"/><path class="t" d="M234.01,434.867a.044.044,0,0,1-.04-.026.616.616,0,0,0-.1-.165.176.176,0,0,0-.144-.066.183.183,0,0,0-.09.043.629.629,0,0,0-.079.088.044.044,0,0,1-.068-.055.707.707,0,0,1,.091-.1.264.264,0,0,1,.136-.063.258.258,0,0,1,.219.094.675.675,0,0,1,.11.188.044.044,0,0,1-.022.058A.047.047,0,0,1,234.01,434.867Z" transform="translate(-231.91 -433.77)"/><path class="h" d="M234.288,433.744a.532.532,0,0,0-.538-.141c-.049.015-.028.092.022.077a.451.451,0,0,1,.46.121C234.267,433.838,234.324,433.782,234.288,433.744Z" transform="translate(-232 -433.411)"/><path class="h" d="M232.6,433.42a.5.5,0,0,0-.563-.049.04.04,0,0,0-.009.056.041.041,0,0,0,.056.009.422.422,0,0,1,.465.046C232.592,433.514,232.643,433.452,232.6,433.42Z" transform="translate(-231.354 -433.307)"/><path class="u" d="M232.041,437.585a.052.052,0,0,1-.022,0,1.131,1.131,0,0,1-.636-.39.057.057,0,0,1,.008-.081.057.057,0,0,1,.081.009,1.02,1.02,0,0,0,.572.35.057.057,0,0,1,0,.112Z" transform="translate(-231.105 -434.751)"/></g><g transform="translate(0 3.466)"><path class="p" d="M226.583,433.947a.851.851,0,0,0-.7-.322.617.617,0,0,0-.544.476,1.253,1.253,0,0,0,.011.54,1.834,1.834,0,0,0,.186.538.805.805,0,0,0,.914.465c.5-.177.53-.8.4-1.237A1.28,1.28,0,0,0,226.583,433.947Z" transform="translate(-225.312 -433.622)"/><path class="s" d="M226.19,434.355a.668.668,0,0,1,.489.408,1.473,1.473,0,0,1,.155.653c0,.059-.094.065-.094,0a1.374,1.374,0,0,0-.1-.522l-.007,0a.626.626,0,0,0-.392-.046.048.048,0,0,1-.059-.03.048.048,0,0,1,.03-.059.745.745,0,0,1,.375.019.563.563,0,0,0-.413-.335C226.111,434.44,226.131,434.349,226.19,434.355Z" transform="translate(-225.625 -433.901)"/></g></g><path class="p" d="M218.686,444.391s-3.566,6.177-2.187,7.956,8.823-2.165,8.823-2.165l-.563-1.771s-5.7,1.6-5.784,1.564C218.753,449.887,218.686,444.391,218.686,444.391Z" transform="translate(-215.27 -433.203)"/><path class="n" d="M221.223,449.063a5.225,5.225,0,0,1,1.089,2.739s-4.326,2.39-6.246.929,2.089-7.963,2.379-8.34l.744,4.9Z" transform="translate(-215.028 -433.203)"/><g transform="translate(9.743 11.635)"><path class="h" d="M230.495,449.148h2.245a.182.182,0,0,0,.146-.1l1.979-3.752c.1-.2-.076-.185-.13-.185H232.49a.182.182,0,0,0-.146.1l-1.9,3.84C230.419,449.1,230.441,449.148,230.495,449.148Z" transform="translate(-230.435 -445.113)"/><path class="j" d="M230.618,449.3h2.245a.182.182,0,0,0,.146-.1l1.9-3.84c.027-.054,0-.1-.049-.1h-2.245a.182.182,0,0,0-.146.1l-1.9,3.84C230.542,449.261,230.564,449.3,230.618,449.3Z" transform="translate(-230.481 -445.173)"/></g><g transform="translate(9.49 13.877)"><path class="p" d="M230.589,451.871a18.535,18.535,0,0,0,1.82-.432c.128-.094.823-2.5.35-2.6s-2.734,1.263-2.734,1.263Z" transform="translate(-230.026 -448.769)"/><path class="p" d="M230.026,450.061s.273-1.292,1.1-1.33l-.48.969Z" transform="translate(-230.026 -448.731)"/></g></g></g></g></svg>