<svg xmlns="http://www.w3.org/2000/svg" width="17.075" height="17.075" viewBox="0 0 17.075 17.075"><defs><style>.a{fill:#4cdc8f;}</style></defs><path class="a" d="M9.1.563A8.537,8.537,0,1,0,17.637,9.1,8.536,8.536,0,0,0,9.1.563Zm4.957,9.5a.414.414,0,0,1-.413.413H10.477v3.167a.414.414,0,0,1-.413.413H8.136a.414.414,0,0,1-.413-.413V10.477H4.556a.414.414,0,0,1-.413-.413V8.136a.414.414,0,0,1,.413-.413H7.723V4.556a.414.414,0,0,1,.413-.413h1.928a.414.414,0,0,1,.413.413V7.723h3.167a.414.414,0,0,1,.413.413Z" transform="translate(-0.563 -0.563)"/></svg>