<svg xmlns="http://www.w3.org/2000/svg" xmlns:xlink="http://www.w3.org/1999/xlink" width="88.433" height="90" viewBox="0 0 88.433 90"><defs><style>.a{fill:none;}.b{clip-path:url(#a);}.c{fill:#e5fbf2;}.d{fill:#00994f;}.e{fill:#de002f;}.f{fill:#008b5c;}.g{fill:#ff9692;}.h{fill:#122755;}.i{fill:#435475;}.j{fill:#8b001f;}.k{fill:#fff;}.l{fill:#86efc0;}.m{fill:#ff003b;}.n{mix-blend-mode:multiply;isolation:isolate;}.o{clip-path:url(#c);}.p{fill:#d87d7a;}.q{fill:#009bbe;}</style><clipPath id="a"><rect class="a" width="88.433" height="90"/></clipPath><clipPath id="c"><rect class="a" width="8.294" height="6.432"/></clipPath></defs><g class="b"><g class="b"><path class="c" d="M.02,52.909C-.831,34.412,25.2,11.2,47.6,15.046c23.675,4.064,44.432,55.473,22,72.788S.883,71.671.02,52.909" transform="translate(0 -2.655)"/><path class="c" d="M15.43,14.325c1.3,2.558,22.871-3.39,25.057-7.616S31.783-.958,25.807.241,13.75,11.018,15.43,14.325" transform="translate(-2.75 0)"/><rect class="d" width="84.552" height="0.291" transform="translate(3.88 78.345)"/><path class="d" d="M26.65,81.223a23.046,23.046,0,0,0,2.175-7.64s1.154-5.562,4.55-4.831c0,0,3.342.949,1.473,4.831L31.6,77.365a13.262,13.262,0,0,0-1.583,3.858Z" transform="translate(-4.838 -12.469)"/><path class="d" d="M20.6,80.8a1.813,1.813,0,0,1-1.5,1.319h0A2.007,2.007,0,0,1,16.977,80.8c-.031-.085-.063-.168-.094-.254A1.619,1.619,0,0,1,15.8,79.7a31.575,31.575,0,0,1-3.156-7.5c-.534-2.324-.767-4.54-1.928-6.665-1.666-3.048-4.2-6.227-4.183-9.836,0-.057,0-.117,0-.174a7.411,7.411,0,0,1,.124-1.181A5.008,5.008,0,0,1,8.149,51.58c.027-.025.056-.052.083-.075A3.611,3.611,0,0,1,9.9,50.679a1.093,1.093,0,0,1,.124-.024,3.57,3.57,0,0,1,.748-.042c2.342.117,3.83,2.182,4.67,4.145,1.207,2.819,1.386,5.818,1.672,8.808.029.306.061.615.095.922a30.477,30.477,0,0,0,.477,3.145A19.833,19.833,0,0,0,18.8,71.008c.084.205.17.409.255.613.325.771.657,1.539.951,2.312v0a15.96,15.96,0,0,1,.8,2.676v0c.016.079.029.156.042.236v0A8.174,8.174,0,0,1,20.6,80.8" transform="translate(-1.185 -9.188)"/><path class="d" d="M45.721,28.129l0,.124v0a6.909,6.909,0,0,1-2.243,4.558,33,33,0,0,1-4.6,3.151l0,0c-.134.092-.267.188-.4.285a.6.6,0,0,0-.061.047l0,0a9.333,9.333,0,0,0-3.054,4.552l0,0c-.092.259-.176.523-.254.789a35.339,35.339,0,0,0-.9,4.4,43.017,43.017,0,0,1-1.312,6.527A30.056,30.056,0,0,1,30.5,57.854c-1.656,3-3.76,6.066-4.1,9.57a25.285,25.285,0,0,1-.516,4.763v0c-.038.181-.079.357-.123.536a18.511,18.511,0,0,1-1.274,3.627,1.9,1.9,0,0,1-2.572.674,1.564,1.564,0,0,1-.186-.124h0a1.959,1.959,0,0,1-.486-2.447,13.266,13.266,0,0,0,.781-2.091v-.012c.034-.1.063-.211.093-.316V72.03a18.045,18.045,0,0,0,.52-3.31v0c.016-.212.028-.424.038-.638a1.456,1.456,0,0,1-.049-.5c.02-.246.046-.487.077-.726,0-1.177-.065-2.352-.154-3.507v0l-.029-.334v0c-.14-1.724-.345-3.45-.521-5.175,0-.034-.008-.067-.01-.1a51.679,51.679,0,0,1-.335-6.285c0-.152.008-.307.014-.458l.029-.636,0-.009a19.447,19.447,0,0,1,2.776-9.231c.065-.1.13-.208.193-.311l0,0,0,0c.176-.279.349-.554.512-.827l0,0a13.155,13.155,0,0,0,1.8-4.06l.012-.053,0,0c.056-.256.111-.511.165-.766a25.294,25.294,0,0,1,1.505-5.3c1.561-3.462,4.655-6.934,8.516-7.741.038-.007.075-.016.115-.022h0l.151-.027a7.7,7.7,0,0,1,2.982.079l.109.025a7.507,7.507,0,0,1,2.123.85c.021.014.045.028.067.04a6.466,6.466,0,0,1,1.9,1.747l.049.072a5.8,5.8,0,0,1,1.021,2.873c.012.151.018.3.016.449" transform="translate(-3.816 -3.973)"/><path class="e" d="M13.692,84a23.642,23.642,0,0,0,4.748,9.644l7.715.049A33.712,33.712,0,0,0,29.912,84Z" transform="translate(-2.486 -15.25)"/><path class="f" d="M22.208,81.748v.029c0,.25-.011.479-.015.684-.011.429-.02.762-.025.987-.006.113-.01.2-.011.258a.246.246,0,0,1-.012.087.434.434,0,0,1-.008-.089c0-.057-.006-.142-.007-.255,0-.225-.006-.558-.011-.987,0-.113,0-.231,0-.358V81.75c-.008-.259-.027-.542-.042-.846-.035-.6-.047-1.3-.137-2.059-.038-.381-.077-.78-.117-1.195s-.118-.843-.177-1.287c-.044-.272-.078-.548-.121-.829.085.205.17.409.255.613.009.065.017.129.028.192.056.447.128.878.168,1.3s.07.817.1,1.2c.081.764.083,1.46.109,2.067.007.3.024.59.024.849" transform="translate(-3.907 -13.712)"/><path class="g" d="M59.343,47.814c.657-1.134.71-2.833-1.31-5.247,0,0-3.3-1.78-5.26,3.7L51,50.461s2.617,3.1,6.277,1.723l-.359-2.465a5.306,5.306,0,0,0,1.918-1.231l.777.174Z" transform="translate(-9.258 -7.678)"/><path class="h" d="M73.822,63.281a.553.553,0,0,0-.537.565l.107,4.255-5.683.142a.485.485,0,0,0,.025.969l5.812-.147a.546.546,0,0,0,.427.192.552.552,0,0,0,.537-.565l-.123-4.874a.553.553,0,0,0-.565-.537" transform="translate(-12.206 -11.488)"/><path class="i" d="M49.236,52.273s-5.947,11.362-7.944,18.47c0,0,5.9,2.359,17.855-2.1L55.513,54s-2.441,1.249-6.277-1.722" transform="translate(-7.496 -9.49)"/><path class="h" d="M98.831,91.955l.733.2,1.407-2.153s-.778-.075-1.707,1.287Z" transform="translate(-17.942 -16.34)"/><path class="g" d="M52.987,91.952s7.369.782,18.524-4.148c0,0,10.464,3,19.163,2.683l-.013-.494L71.6,82.261s-5.353-1.053-6.255.158c0,0-6.486,8.023-12.362,9.533" transform="translate(-9.619 -14.857)"/><path class="j" d="M77.124,84.5l-3,3.97c-1.62-.383-2.608-.667-2.608-.667-11.155,4.931-18.524,4.149-18.524,4.149,5.875-1.511,12.363-9.534,12.363-9.534.9-1.21,6.255-.157,6.255-.157Z" transform="translate(-9.619 -14.857)"/><path class="g" d="M40.639,74.083s-8.016,16.955,2.415,17.352c0,0,3.576.57,11.13-3.315a26.127,26.127,0,0,0,7.486-6.52l2.807-3.765s1.572,4.8,11.668,12.811l.725-.017s-4.772-8.8-6.99-14.381L67.464,70.67s-10.3-.334-16.151,2.979c0,0-4.112,1.72-10.674.434" transform="translate(-6.844 -12.828)"/><path class="e" d="M69.828,76.127l-4.689,3.045a7.9,7.9,0,0,1-.66-1.337L61.67,81.6a26.137,26.137,0,0,1-7.485,6.52C46.63,92,43.055,91.434,43.055,91.434c-10.432-.4-2.415-17.352-2.415-17.352,6.562,1.287,10.674-.433,10.674-.433,5.853-3.313,16.151-2.979,16.151-2.979Z" transform="translate(-6.844 -12.828)"/><path class="h" d="M84.592,95.022l.25.719,2.57-.065s-.38-.683-2.028-.674Z" transform="translate(-15.357 -17.247)"/><path class="k" d="M71.174,75.05a1.186,1.186,0,0,1-.152-.255c-.088-.172-.218-.425-.385-.751-.325-.657-.793-1.609-1.373-2.786-.147-.286-.265-.642-.558-.724a1.773,1.773,0,0,0-.511-.034l-.566.011c-.769.02-1.589.057-2.451.124a35.79,35.79,0,0,0-5.548.852,27.089,27.089,0,0,0-5.294,1.837A23.537,23.537,0,0,0,50.4,75.66a21.9,21.9,0,0,0-2.347,2.012c-.522.512-.789.818-.809.8a1.183,1.183,0,0,1,.175-.238c.121-.151.3-.372.556-.638A18.769,18.769,0,0,1,50.284,75.5a22.494,22.494,0,0,1,3.942-2.413,26.455,26.455,0,0,1,5.338-1.875,34.18,34.18,0,0,1,5.594-.836c.868-.061,1.693-.089,2.466-.1l.57,0a1.9,1.9,0,0,1,.576.051.808.808,0,0,1,.444.384c.094.16.156.313.227.462L70.734,74l.339.773a1.151,1.151,0,0,1,.1.278" transform="translate(-8.577 -12.758)"/><path class="l" d="M58.845,66.96c-8.485,3.749-14.08,3.009-16.908,2.067a142.133,142.133,0,0,1,7.415-16.755C53.188,55.244,55.629,54,55.629,54Z" transform="translate(-7.613 -9.49)"/><path class="g" d="M48.174,63.5a13.948,13.948,0,0,0,6.991,6.552l10.129-2.432-.016-.593A92.367,92.367,0,0,0,56.012,68.3s1.021-8.843-.882-11.209c0,0-4.727.614-6.955,6.409" transform="translate(-8.746 -10.364)"/><path class="l" d="M60.763,68.7l-5.6,1.345A13.952,13.952,0,0,1,48.173,63.5c2.229-5.795,6.956-6.409,6.956-6.409,1.9,2.364.882,11.21.882,11.21,1.133-.278,2.861-.541,4.523-.754Z" transform="translate(-8.745 -10.364)"/><path class="g" d="M69.074,69.221s1.415-.134,1.558.291c0,0,.336.289-1.542.3Z" transform="translate(-12.54 -12.563)"/><path class="k" d="M56.609,89.008c.006.008-.062.063-.195.16s-.332.237-.591.412c-.518.352-1.272.854-2.228,1.438a30.908,30.908,0,0,1-3.478,1.851,20.485,20.485,0,0,1-2.184.823,16.038,16.038,0,0,1-2.45.54,8.173,8.173,0,0,1-4.783-.563,4.919,4.919,0,0,1-1.65-1.352,5.656,5.656,0,0,1-.9-1.623,5.334,5.334,0,0,1-.245-2.648,4.035,4.035,0,0,1,.189-.7.84.84,0,0,1,.1-.232.828.828,0,0,1-.047.247,5.751,5.751,0,0,0-.135.7,5.526,5.526,0,0,0,1.215,4.11,4.73,4.73,0,0,0,1.585,1.269,8.045,8.045,0,0,0,4.632.516,16.138,16.138,0,0,0,2.409-.525,21.219,21.219,0,0,0,2.16-.8,33.43,33.43,0,0,0,3.479-1.785c.966-.56,1.734-1.036,2.27-1.359a6.566,6.566,0,0,1,.844-.482" transform="translate(-6.869 -15.815)"/><path class="m" d="M68.812,78.846l-.956-2.613L61.567,87.061s1.5-.552,7.245-8.215" transform="translate(-11.177 -13.84)"/><path class="e" d="M73.361,88.884l-1.973-1.1-8.212,4.461a42.418,42.418,0,0,0,10.185-3.36" transform="translate(-11.469 -15.936)"/><path class="h" d="M54.376,45.314l3.4.64s1.04-1.147-1.1-2.676c0,0-2.83-2.923-5.933-.424,0,0-2.751,4.961-3.022,5.182a15.444,15.444,0,0,0-8.717,5.327s-3.049,4.386-2.357,8.409c0,0,.711,4.009,4.156,5.323Z" transform="translate(-6.636 -7.596)"/><path class="k" d="M62.213,67.377a7.339,7.339,0,0,1-1.173.322l-1.344.312-1.886.419c.008-.572.016-1.179.025-1.815.007-.58.007-1.184,0-1.806a31.844,31.844,0,0,0-.458-5.492c-.252-1.39-.542-2.22-.494-2.235a2.594,2.594,0,0,1,.238.571,14.972,14.972,0,0,1,.449,1.625,26.922,26.922,0,0,1,.543,5.528c.006.624,0,1.231-.01,1.813-.013.526-.026,1.03-.038,1.5l1.586-.313,1.356-.255a7.258,7.258,0,0,1,1.2-.177" transform="translate(-10.326 -10.363)"/><g class="n" transform="translate(38.15 52.894)"><g class="o"><path class="l" d="M48.04,64.626l-1.428,2.748a22.249,22.249,0,0,0,8.294,3.684S48.72,69.7,48.04,64.626" transform="translate(-46.612 -64.626)"/></g></g><path class="k" d="M55.693,71.376a1.179,1.179,0,0,1-.405-.048,3.652,3.652,0,0,1-.464-.112,5.811,5.811,0,0,1-.6-.195,9.4,9.4,0,0,1-1.495-.7A10.837,10.837,0,0,1,48.78,66.3a8.084,8.084,0,0,1-.484-1,1.148,1.148,0,0,1-.123-.389c.043-.019.284.5.775,1.286A12.657,12.657,0,0,0,51.27,68.93,12.338,12.338,0,0,0,52.857,70.1a11.387,11.387,0,0,0,1.436.737c.849.358,1.412.489,1.4.537" transform="translate(-8.745 -11.785)"/><path class="p" d="M57.852,51.347a5.229,5.229,0,0,1-1.647.073l1.685.783Z" transform="translate(-10.204 -9.322)"/><path class="k" d="M56.7,43.5a5.065,5.065,0,0,0-.845-.666,3.589,3.589,0,0,0-1.17-.442,3.421,3.421,0,0,0-1.637.095,3.494,3.494,0,0,0-1.652,1.081,19.77,19.77,0,0,0-1.332,1.916c-.458.692-.922,1.418-1.432,2.169a2.973,2.973,0,0,1-1.027.961,9.666,9.666,0,0,1-1.337.5,14.33,14.33,0,0,0-4.7,2.469A12.512,12.512,0,0,0,38.8,54.934a16.791,16.791,0,0,0-1.224,2.681c-.115.33-.2.587-.258.763a1.433,1.433,0,0,1-.1.264,1.4,1.4,0,0,1,.057-.276c.042-.18.117-.441.221-.776a15.2,15.2,0,0,1,1.173-2.728,12.387,12.387,0,0,1,2.766-3.424A14.3,14.3,0,0,1,46.2,48.919,9.7,9.7,0,0,0,47.5,48.43a2.759,2.759,0,0,0,.958-.9c.5-.737.98-1.47,1.438-2.156a19.62,19.62,0,0,1,1.364-1.926A3.633,3.633,0,0,1,53,42.345a3.506,3.506,0,0,1,1.7-.068,3.568,3.568,0,0,1,1.19.487,3.287,3.287,0,0,1,.625.516,1.941,1.941,0,0,1,.137.16c.029.038.043.058.04.061" transform="translate(-6.756 -7.662)"/><path class="q" d="M47.526,87.752c.043.014.094.02.1.034a.4.4,0,0,1-.018.118c-.029-.015-.069-.021-.083-.044s0-.061,0-.107" transform="translate(-8.626 -15.931)"/><path class="k" d="M19.276,93.309a4.8,4.8,0,0,1-1.021-.893,13.692,13.692,0,0,1-3.241-5.638,4.721,4.721,0,0,1-.257-1.331,25.55,25.55,0,0,0,1.779,4.207,25.527,25.527,0,0,0,2.74,3.655" transform="translate(-2.678 -15.512)"/><path class="k" d="M45.227,24.073c-.017.019-.223-.162-.64-.423a6.366,6.366,0,0,0-1.914-.772,7.352,7.352,0,0,0-3.043-.028,10.312,10.312,0,0,0-3.457,1.432,14.848,14.848,0,0,0-2.906,2.393,10.513,10.513,0,0,0-1.736,2.531c-.394.788-.654,1.457-.845,1.914a4.331,4.331,0,0,1-.314.7,3.92,3.92,0,0,1,.213-.742,19.157,19.157,0,0,1,.769-1.96A10.189,10.189,0,0,1,33.077,26.5a14.453,14.453,0,0,1,2.949-2.457A10.257,10.257,0,0,1,39.583,22.6a7.313,7.313,0,0,1,3.137.089,5.876,5.876,0,0,1,1.926.872,4.126,4.126,0,0,1,.446.363c.095.092.142.143.135.15" transform="translate(-5.513 -4.079)"/><path class="k" d="M9.905,51.611c0,.025-.2,0-.53.065a2.5,2.5,0,0,0-1.232.685,5.621,5.621,0,0,0-1.065,4.484,7.677,7.677,0,0,0,.778,2.5c.363.729.754,1.361,1.044,1.916a8.675,8.675,0,0,1,.6,1.356,1.612,1.612,0,0,1,.123.532c-.043.011-.258-.728-.9-1.792-.309-.537-.717-1.158-1.1-1.9A7.57,7.57,0,0,1,6.8,56.881a7.436,7.436,0,0,1,.147-2.709A3.882,3.882,0,0,1,8.007,52.22a2.437,2.437,0,0,1,1.35-.65,1,1,0,0,1,.548.041" transform="translate(-1.224 -9.36)"/><path class="k" d="M35.118,70.311c-.02.015-.093-.082-.255-.219a2.084,2.084,0,0,0-.773-.411,2.4,2.4,0,0,0-1.279-.007,2.894,2.894,0,0,0-1.324.842,5.812,5.812,0,0,0-1.249,2.642,7.166,7.166,0,0,1-.31,1.215,4.691,4.691,0,0,1,.119-1.256,7.341,7.341,0,0,1,.354-1.332,4.445,4.445,0,0,1,.884-1.458,3.02,3.02,0,0,1,1.463-.9,2.465,2.465,0,0,1,1.4.07,1.906,1.906,0,0,1,.789.521c.146.17.19.288.178.3" transform="translate(-5.431 -12.591)"/></g></g></svg>