<svg xmlns="http://www.w3.org/2000/svg" width="93.498" height="90" viewBox="0 0 93.498 90"><defs><style>.a{fill:#e5fbf2;}.b{fill:#8b001f;}.c{fill:#ffd4e0;}.d{fill:#00994f;}.e{fill:#fff1f5;}.f{fill:#fff;}.g{fill:#006e38;}.h{fill:#f3be99;}.i{fill:#403d66;}.j,.p{mix-blend-mode:multiply;isolation:isolate;}.k{fill:#486e96;}.l{fill:#eff6fd;}.m{fill:#de002f;}.n{fill:#e2c5ce;}.o{fill:#f3b891;}.p{fill:#fae8d5;}.q{fill:#f09e8e;}.r{fill:#cf9c7d;}.s{fill:#35260f;}.t{fill:#d67c6c;}.u{fill:#323282;}.v{fill:#6464bc;}</style></defs><g transform="translate(-122.762 -403.501)"><g transform="translate(122.762 403.501)"><path class="a" d="M206.555,486.643c-14.844,16.768-27.437,17.8-37.1,5.248-13.332-17.317-37.808-8.763-39.546-30.5s39.006-55.357,66.032-50.537S234.025,455.613,206.555,486.643Z" transform="translate(-129.852 -410.39)"/><path class="a" d="M143.015,499.19c-5.944-3.929-12.682,1.133-13.005,5.325s13.019,5.35,15.095,3.7S144.654,500.274,143.015,499.19Z" transform="translate(-123.922 -431.113)"/><path class="a" d="M244.194,416.548c-.532-5.65-7.039-7.3-9.8-5.407s3.186,10.75,5.249,11.211S244.341,418.106,244.194,416.548Z" transform="translate(-150.702 -410.39)"/></g><g transform="translate(126.06 406.533)"><g transform="translate(0 43.879)"><path class="b" d="M145.856,498.152H157.71c.675-1.3.12-2.868-.588-4.156a15.458,15.458,0,0,1-1.965-3.922,25.328,25.328,0,0,1-.228-2.775,3.4,3.4,0,0,0-1.158-2.445c-.993-.728-2.432-.5-3.489-1.13a3.584,3.584,0,0,1-1.492-2.737c-.123-1.07.016-2.154-.05-3.229a4.034,4.034,0,0,0-1.209-2.9c-1.26-1.054-3.282-.762-4.514-1.849-.833-.736-1.1-1.94-1.88-2.737a2.848,2.848,0,0,0-4.6,3.238c.4.82,1.192,1.446,1.393,2.336.369,1.632-1.406,3.081-1.313,4.752.075,1.355,1.325,2.311,2.489,3.008s2.474,1.472,2.82,2.785c.46,1.743-1.029,3.527-.681,5.3.257,1.3,1.416,2.191,2.426,3.052S146.059,496.84,145.856,498.152Z" transform="translate(-129.119 -469.44)"/><g transform="translate(0 8.515)"><path class="c" d="M135.987,502.036h9.575a4.446,4.446,0,0,0-1.793-5.042c-.98-.663-2.274-.96-2.919-1.952-.708-1.089-.339-2.585-.89-3.762a4.658,4.658,0,0,0-2.9-2.1,8.324,8.324,0,0,1-3.286-1.58c-1.17-1.146-1.384-2.954-2.313-4.3a3.55,3.55,0,0,0-3.07-1.637,2.373,2.373,0,0,0-2.2,2.417c.158,1.451,1.884,2.526,1.632,3.963-.147.839-.925,1.4-1.381,2.115a3.092,3.092,0,0,0,.85,4.066,10.844,10.844,0,0,0,2.409.928,2.6,2.6,0,0,1,1.8,1.7c.169.841-.358,1.673-.349,2.53a2.783,2.783,0,0,0,1.677,2.313A7.6,7.6,0,0,0,135.987,502.036Z" transform="translate(-126.011 -481.655)"/></g></g><g transform="translate(66.277 47.832)"><path class="b" d="M221.106,499.916h8.649c5.043-6.88,10.12-16.279,9.851-24.8C227.8,478.584,220.817,493.832,221.106,499.916Z" transform="translate(-221.098 -475.111)"/><g transform="translate(5.977 7.42)"><path class="c" d="M229.679,503.141h6.411c4.315-4.522,8.421-11.066,8.222-17.385C235.564,488.33,229.465,498.631,229.679,503.141Z" transform="translate(-229.673 -485.756)"/></g></g><g transform="translate(26.692)"><rect class="d" width="37.753" height="72.434" rx="5.643"/><path class="e" d="M201.348,413.215V474.8a2.436,2.436,0,0,1-2.435,2.435H168.547a2.434,2.434,0,0,1-2.435-2.435V413.215a2.432,2.432,0,0,1,2.435-2.435h8.2a.472.472,0,0,1,.475.472v.384a1.371,1.371,0,0,0,1.37,1.37h10.268a1.37,1.37,0,0,0,1.37-1.37v-.384a.472.472,0,0,1,.473-.472h8.207A2.435,2.435,0,0,1,201.348,413.215Z" transform="translate(-164.853 -407.788)"/><path class="a" d="M201.348,413.215v2.092H166.112v-2.092a2.432,2.432,0,0,1,2.435-2.435h8.2a.472.472,0,0,1,.475.472v.384a1.371,1.371,0,0,0,1.37,1.37h10.268a1.37,1.37,0,0,0,1.37-1.37v-.384a.472.472,0,0,1,.473-.472h8.207A2.435,2.435,0,0,1,201.348,413.215Z" transform="translate(-164.853 -407.788)"/><g transform="translate(4.117 4.694)"><rect width="0.257" height="1.48" transform="translate(29.263)"/><rect width="0.257" height="1.098" transform="translate(28.854 0.382)"/><rect width="0.257" height="0.74" transform="translate(28.446 0.74)"/><path d="M171.235,413.315a1.256,1.256,0,0,0-1,.4.117.117,0,0,0,.032.161.119.119,0,0,0,.064.019.117.117,0,0,0,.1-.052,1.276,1.276,0,0,1,1.623,0,.116.116,0,0,0,.193-.128A1.259,1.259,0,0,0,171.235,413.315Z" transform="translate(-170.211 -413.25)"/><path d="M171.364,413.972a.855.855,0,0,0-.707.293.116.116,0,0,0,.193.128.793.793,0,0,1,1.027,0,.117.117,0,0,0,.1.052.114.114,0,0,0,.064-.02.116.116,0,0,0,.032-.16A.854.854,0,0,0,171.364,413.972Z" transform="translate(-170.341 -413.449)"/><circle cx="0.23" cy="0.23" r="0.23" transform="translate(0.794 0.954)"/></g><g transform="translate(5.221 13.859)"><path class="b" d="M3.284,0H16.27a3.283,3.283,0,0,1,3.283,3.283v0A3.283,3.283,0,0,1,16.27,6.567H0a0,0,0,0,1,0,0V3.284A3.284,3.284,0,0,1,3.284,0Z" transform="translate(1.344)"/><path class="b" d="M3.283,0H16.27a3.283,3.283,0,0,1,3.283,3.283v0A3.283,3.283,0,0,1,16.27,6.567H0a0,0,0,0,1,0,0V3.283A3.283,3.283,0,0,1,3.283,0Z" transform="translate(1.344 21.436)"/><path class="b" d="M2.6,0H15.139a2.6,2.6,0,0,1,2.6,2.6v0a2.6,2.6,0,0,1-2.6,2.6H0a0,0,0,0,1,0,0V2.6A2.6,2.6,0,0,1,2.6,0Z" transform="translate(1.344 29.292)"/><path class="c" d="M185,443.584h18.291v-3.543a1.262,1.262,0,0,0-1.262-1.262H185a1.262,1.262,0,0,0-1.262,1.262v2.281A1.262,1.262,0,0,0,185,443.584Z" transform="translate(-175.415 -430.13)"/><path class="c" d="M185,482.419h18.291v-3.543a1.262,1.262,0,0,0-1.262-1.262H185a1.262,1.262,0,0,0-1.262,1.262v2.281A1.262,1.262,0,0,0,185,482.419Z" transform="translate(-175.415 -441.896)"/><path class="c" d="M191.25,452.112h13.982v-3.7a1.109,1.109,0,0,0-1.109-1.109H191.25a1.109,1.109,0,0,0-1.109,1.109V451A1.109,1.109,0,0,0,191.25,452.112Z" transform="translate(-177.354 -432.714)"/><g transform="translate(0 46.248)"><path class="c" d="M196.152,498.629h-21.4a2.954,2.954,0,1,1,0-5.907h21.4a2.954,2.954,0,1,1,0,5.907Zm-21.4-5.676a2.722,2.722,0,0,0,0,5.444h21.4a2.722,2.722,0,1,0,0-5.444Z" transform="translate(-171.796 -492.722)"/></g><path class="c" d="M206.98,496.274A1.577,1.577,0,1,1,205.4,494.7,1.577,1.577,0,0,1,206.98,496.274Z" transform="translate(-181.501 -447.072)"/></g><g transform="translate(2.356 15.013)"><g transform="translate(18.839 20.309)"><circle class="c" cx="6.124" cy="6.124" r="6.124"/><g transform="translate(2.688 6.218)"><path class="b" d="M204.986,467.532a3.249,3.249,0,0,1-6.4-.438,3.192,3.192,0,0,1,.07-1.011Z" transform="translate(-198.569 -466.084)"/><path class="f" d="M204.986,467.532a3.226,3.226,0,0,1-.376.941l-6.027-1.379a3.192,3.192,0,0,1,.07-1.011Z" transform="translate(-198.569 -466.084)"/></g><path class="b" d="M208.84,463.091c-.416-1.182-1.676-.44-1.676-.44s-.593-1.336-1.619-.615.761,3.294.761,3.294S209.26,464.283,208.84,463.091Z" transform="translate(-197.898 -458.575)"/><path class="b" d="M198.184,460.727c.889-.884,1.7.332,1.7.332s1.115-.946,1.726.149-2.118,2.636-2.118,2.636S197.288,461.619,198.184,460.727Z" transform="translate(-195.7 -458.146)"/></g><g transform="translate(0 0)"><circle class="c" cx="3.881" cy="3.881" r="3.881" transform="translate(0 7.676) rotate(-81.516)"/><path class="b" d="M174.034,436.04a3.5,3.5,0,0,1-2.171.028.229.229,0,0,1,.155-.431h0a2.57,2.57,0,0,0,3.12-1.172.229.229,0,1,1,.4.223A2.852,2.852,0,0,1,174.034,436.04Z" transform="translate(-168.905 -429.942)"/><path class="b" d="M172.113,433.59a.152.152,0,0,1-.2-.089.758.758,0,1,0-1.418.533.153.153,0,0,1-.286.107,1.064,1.064,0,0,1,1.991-.748A.153.153,0,0,1,172.113,433.59Z" transform="translate(-168.43 -429.444)"/><path class="b" d="M176.138,432.078a.152.152,0,0,1-.2-.089.758.758,0,0,0-1.418.533.153.153,0,0,1-.286.107,1.063,1.063,0,1,1,1.991-.748A.152.152,0,0,1,176.138,432.078Z" transform="translate(-169.649 -428.986)"/><path class="b" d="M177.834,432.606c.066.174-.108.4-.388.505s-.56.049-.625-.125.108-.4.388-.505S177.769,432.431,177.834,432.606Z" transform="translate(-170.449 -429.36)"/><path class="b" d="M170.707,435.284c.066.174-.108.4-.388.505s-.56.049-.625-.125.108-.4.388-.5S170.642,435.109,170.707,435.284Z" transform="translate(-168.29 -430.172)"/></g></g></g><g transform="translate(7.294 11.962)"><g transform="translate(4.993 29.791)"><g transform="translate(1.289 26.01)"><path class="g" d="M152.378,507.612a1.66,1.66,0,0,1,.285,1.949h-7.139a.712.712,0,0,1,.285-.827,36.176,36.176,0,0,1,3.685-1.122Z" transform="translate(-145.488 -504.889)"/><path class="h" d="M150.147,503.972l.759,2.457a6.1,6.1,0,0,0,2.884,0l-.661-2.723Z" transform="translate(-146.899 -503.706)"/></g><g transform="translate(7.698 26.087)"><path class="g" d="M161.572,507.612a1.66,1.66,0,0,1,.284,1.949h-7.138a.712.712,0,0,1,.284-.827,36.175,36.175,0,0,1,3.685-1.122Z" transform="translate(-154.682 -504.966)"/><path class="h" d="M160.148,504.076l.2,2.386a6.1,6.1,0,0,0,2.884,0v-2.646Z" transform="translate(-156.338 -503.816)"/></g><path class="i" d="M146.459,466.391h7.1s-3.891,9.676-4.281,12.923c-.408,3.392,2.725,13.579,2.725,13.579-1.614.841-4.3.335-4.3.335s-4.039-10.44-4.072-13.95C143.608,476.183,146.459,466.391,146.459,466.391Z" transform="translate(-143.638 -466.39)"/><path class="i" d="M161.975,466.39l-.025,26.555s-.313.1-.795.2l-.227.044a6.461,6.461,0,0,1-3.2-.095l-2.538-26.7Z" transform="translate(-147.139 -466.39)"/><g class="j" transform="translate(8.202 1.423)"><path class="k" d="M155.615,468.532c-.009-.134-.218-.135-.209,0q.1,1.429.194,2.858c.009.133.219.135.21,0Z" transform="translate(-155.406 -468.432)"/></g><path class="l" d="M163.326,493.144l-.227.044q-.268-2.625-.438-5.258-.351-5.458-.3-10.928.051-5.31.493-10.612h.231q-.239,2.9-.365,5.8-.236,5.464-.063,10.932Q162.822,488.143,163.326,493.144Z" transform="translate(-149.31 -466.39)"/></g><g transform="translate(7.814 10.204)"><path class="m" d="M159.7,457.877s-8.795,2.288-12.016,0l1-9.683a26.769,26.769,0,0,0,.357-7.131c.5-1.982,4.2-2.8,5.154-2.773.572.017,3.534-.186,5.144,2.173.787,1.153.3,5.792.357,9.564C159.771,454.476,159.7,457.877,159.7,457.877Z" transform="translate(-147.686 -438.289)"/></g><path class="c" d="M151.706,438.624l.067,9.917-3.429,12.091-2.778-1.773s2.322-7.449,2.335-10.021C147.914,446.112,145.794,439.371,151.706,438.624Z" transform="translate(-139.229 -428.187)"/><path class="c" d="M158.063,438.21l-1.054,8.743,1.225,13.378,5.246-2.479s-1.048-7.947-.793-10.6C162.929,444.743,164.62,438.21,158.063,438.21Z" transform="translate(-142.696 -428.061)"/><g transform="translate(18.106 19.826)"><g class="j"><path class="n" d="M163.816,452.11a.118.118,0,0,0-.158.041,2.5,2.5,0,0,1-1.121.853.119.119,0,0,0-.081.143.117.117,0,0,0,.142.081,2.786,2.786,0,0,0,1.259-.96A.116.116,0,0,0,163.816,452.11Z" transform="translate(-162.452 -452.094)"/></g><g class="j" transform="translate(0.609 0.458)"><path class="n" d="M164.225,452.766a.118.118,0,0,0-.159.041,3.461,3.461,0,0,1-.705.967c-.108.1.056.268.163.164a3.641,3.641,0,0,0,.742-1.014A.118.118,0,0,0,164.225,452.766Z" transform="translate(-163.325 -452.751)"/></g></g><path class="h" d="M138.41,443.226a6.53,6.53,0,0,1-1.071-1.722c-.052-.473.273-2.3,1.271-2.276s1.589,3.319,1.589,3.319Z" transform="translate(-136.735 -428.369)"/><g transform="translate(1.377 12.603)"><path class="c" d="M146.388,441.731s-3.116,5.322-3.373,5.322-2.229-3.9-2.229-3.9a3.858,3.858,0,0,0-2.336.836s1.914,6.721,4.213,6.721,4.892-3.2,4.892-3.2Z" transform="translate(-138.45 -441.731)"/></g><g transform="translate(7.281)"><path class="g" d="M154.7,429.33a3.63,3.63,0,0,1-.017-1.228c.054-.408.144-.809.206-1.214a2.024,2.024,0,0,0,.009-.76.712.712,0,0,0-.439-.544,1.46,1.46,0,0,0-.563-1.622,2.148,2.148,0,0,0-1.644-.257c-.558.106-1.092.33-1.644.465a5.256,5.256,0,0,1-2.5,0,1.043,1.043,0,0,0-.881.022.864.864,0,0,0-.291.581,1.612,1.612,0,0,0,.719,1.579.753.753,0,0,0-.187.59,1.368,1.368,0,0,0,.216.6,2.978,2.978,0,0,0,1.837,1.224c.712.188,1.45.227,2.164.4.482.118.95.3,1.437.39A2.6,2.6,0,0,0,154.7,429.33Z" transform="translate(-146.92 -423.65)"/><path class="o" d="M154.615,428.169c.215,2.454.78,6.8.78,6.8-.57.972-2.659.814-2.606.487a1.865,1.865,0,0,0-.112-.8,1.155,1.155,0,0,0-.355-.547.648.648,0,0,0-.331-.067h-.038c-.691-.006-2.037.236-2.608-.611-.71-1.052-.742-3.951-.642-5.347a2.49,2.49,0,0,1,2.15-2.129C152.548,425.682,154.4,425.7,154.615,428.169Z" transform="translate(-147.448 -424.312)"/><path class="g" d="M152.428,426.849a.688.688,0,0,0,.749.651,4.56,4.56,0,0,0,.777,1.646.7.7,0,0,0,.407.313.556.556,0,0,0,.5-.237,1.985,1.985,0,0,0,.32-1.131,5.3,5.3,0,0,0-.044-1.467,1.94,1.94,0,0,0-.754-1.223,2.778,2.778,0,0,0-1.484-.344,8.155,8.155,0,0,0-1.8.1,3.461,3.461,0,0,0-1.623.74,2.349,2.349,0,0,0-.668.954,1.41,1.41,0,0,0-.114.519c.007.165.114.217.261.254a4.053,4.053,0,0,0,2.317-.129A3.9,3.9,0,0,0,152.428,426.849Z" transform="translate(-147.457 -424.074)"/><path class="p" d="M156.043,436.652a6.679,6.679,0,0,1-1.9.567.059.059,0,0,0,.017.117,6.8,6.8,0,0,0,1.934-.576C156.16,436.729,156.113,436.62,156.043,436.652Z" transform="translate(-149.093 -427.587)"/><g transform="translate(1.342 4.463)"><path class="q" d="M149.679,432.6c.021.142-.148.285-.378.318s-.432-.055-.453-.2.149-.285.378-.319S149.659,432.457,149.679,432.6Z" transform="translate(-148.846 -430.762)"/><path class="q" d="M152.708,432.161c.02.142-.149.285-.379.318s-.432-.055-.453-.2.149-.285.378-.319S152.687,432.019,152.708,432.161Z" transform="translate(-149.763 -430.629)"/><path class="r" d="M150.95,432.936a.223.223,0,0,0-.167.024.169.169,0,0,0-.07.142.219.219,0,0,0,.064.149.475.475,0,0,0,.141.095.06.06,0,0,0,.077-.033.061.061,0,0,0-.033-.077l-.027-.013-.014-.008,0,0a.33.33,0,0,1-.047-.035l0,0-.01-.011-.008-.013h0l-.011-.026V433.1h0a.05.05,0,0,1,0-.01l0-.01v0l0-.008,0,0,0,0,.008-.007c-.008.008,0,0,0,0l.011,0h.036a.234.234,0,0,1,.032,0A.059.059,0,0,0,151,433,.06.06,0,0,0,150.95,432.936Z" transform="translate(-149.411 -430.924)"/><path class="s" d="M151.57,431.351a.236.236,0,0,1-.152.286c-.1.015-.206-.088-.227-.231a.235.235,0,0,1,.152-.287C151.448,431.1,151.549,431.208,151.57,431.351Z" transform="translate(-149.555 -430.375)"/><path class="g" d="M151.53,430.109a.6.6,0,0,0-.565.032c-.049.031,0,.109.045.078a.5.5,0,0,1,.473-.032.045.045,0,0,0,.046-.078Z" transform="translate(-149.481 -430.052)"/><path class="g" d="M149.828,430.295a.574.574,0,0,0-.609.131c-.04.041.023.105.064.064a.484.484,0,0,1,.521-.109.045.045,0,0,0,.055-.031A.046.046,0,0,0,149.828,430.295Z" transform="translate(-148.955 -430.114)"/><path class="s" d="M149.968,431.583a.235.235,0,0,1-.152.286c-.1.015-.206-.089-.227-.232a.234.234,0,0,1,.152-.286C149.846,431.336,149.947,431.44,149.968,431.583Z" transform="translate(-149.07 -430.445)"/><path class="t" d="M151.4,434.4a.064.064,0,0,1,.007-.128.629.629,0,0,0,.39-.171,1.171,1.171,0,0,0,.263-.367.065.065,0,1,1,.116.056,1.311,1.311,0,0,1-.293.406.761.761,0,0,1-.471.2Z" transform="translate(-149.601 -431.157)"/></g><g transform="translate(6.508 4.642)"><path class="o" d="M156.646,430.693a1,1,0,0,1,.825-.379.726.726,0,0,1,.64.56,1.472,1.472,0,0,1-.013.636,2.177,2.177,0,0,1-.219.634.948.948,0,0,1-1.075.547c-.595-.208-.623-.945-.466-1.455A1.507,1.507,0,0,1,156.646,430.693Z" transform="translate(-156.258 -430.31)"/><path class="r" d="M157.677,431.077a.783.783,0,0,0-.575.48,1.726,1.726,0,0,0-.183.767c0,.07.109.077.109.006a1.644,1.644,0,0,1,.123-.615l.009,0a.743.743,0,0,1,.461-.054.057.057,0,0,0,.069-.035.055.055,0,0,0-.036-.069.866.866,0,0,0-.441.022.664.664,0,0,1,.487-.394C157.77,431.176,157.746,431.069,157.677,431.077Z" transform="translate(-156.458 -430.542)"/></g></g><g transform="translate(0 10.23)"><path class="u" d="M141.651,443.072h-2.64a.214.214,0,0,1-.171-.114l-2.327-4.413c-.121-.233.089-.219.152-.219h2.64a.214.214,0,0,1,.171.115l2.233,4.517C141.74,443.021,141.714,443.072,141.651,443.072Z" transform="translate(-136.475 -438.326)"/><path class="m" d="M141.574,443.236h-2.64a.215.215,0,0,1-.171-.115l-2.233-4.516c-.031-.063-.006-.115.058-.115h2.64a.214.214,0,0,1,.171.115l2.234,4.516C141.663,443.184,141.637,443.236,141.574,443.236Z" transform="translate(-136.487 -438.376)"/></g><g transform="translate(2.312 11.122)"><g transform="translate(0 1.114)"><path class="h" d="M143.8,443.445s-2.508-2.762-3.53-2.108c-1.043.668-.109,3.459.225,3.624a17.673,17.673,0,0,0,2.355.453Z" transform="translate(-139.792 -441.214)"/><path class="h" d="M145.023,443.435s-.3-2.194-.729-2.23-.468,1.31-.468,1.31Z" transform="translate(-141.014 -441.204)"/><path class="h" d="M145.131,444.4l1.478.783L145.4,447.15l-1.217-.776Z" transform="translate(-141.122 -442.174)"/></g><g transform="translate(3.35)"><path class="c" d="M157.266,439.753a2.109,2.109,0,0,1,1.175,2.707c-1.225,2.551-3.742,6.793-5.695,7.226-2.474.547-8.112-3.632-8.112-3.632-.284-.765,1.165-2.569,1.947-2.8,0,0,4.052,2.26,5.023,2.05.33-.072,2.211-2.578,3.187-4.607a1.926,1.926,0,0,1,2.473-.944Z" transform="translate(-144.598 -439.606)"/></g><g class="j" transform="translate(12.349 3.345)"><path class="n" d="M161.591,444.488a9.815,9.815,0,0,1-2.868,4.623c-.385.39-.781.769-1.178,1.147-.109.1.056.267.163.164a15.365,15.365,0,0,0,3.611-4.426,7.025,7.025,0,0,0,.495-1.446C161.846,444.4,161.623,444.342,161.591,444.488Z" transform="translate(-157.51 -444.405)"/></g></g></g><g transform="translate(61.825 13.833)"><g transform="translate(6.682 53.205)"><path class="o" d="M229.731,508.116l-5.435-4.133a1.715,1.715,0,0,1,1.061-1.255.98.98,0,0,1,.284-.062l2.2,1.669s.259.329.6.771a20.555,20.555,0,0,1,1.559,2.216A.681.681,0,0,1,229.731,508.116Z" transform="translate(-224.296 -502.665)"/></g><path class="g" d="M229.731,508.143l-5.435-4.133a1.716,1.716,0,0,1,1.061-1.255,1.67,1.67,0,0,1,.007.188,1.671,1.671,0,0,0,.183.716,2.043,2.043,0,0,0,.542.669,4.033,4.033,0,0,0,1.806.716c.178.032.359.062.54.09a20.555,20.555,0,0,1,1.559,2.216A.681.681,0,0,1,229.731,508.143Z" transform="translate(-217.614 -449.487)"/><path class="o" d="M227.366,471.976s4.677,10.408,4.676,10.675c0,.246-5.809,10.424-5.809,10.424a2.268,2.268,0,0,0,2.153,1.637s9.185-10.672,9.185-12.258c0-2.217-3.815-11.45-3.815-11.45Z" transform="translate(-218.201 -439.868)"/><g transform="translate(3.81 56.789)"><path class="o" d="M227.165,509.669l-6.827,0a1.745,1.745,0,0,1,.051-1.6,1.111,1.111,0,0,1,.22-.268l2.758,0s.636.164,1.373.371a16.014,16.014,0,0,1,2.151.7A.681.681,0,0,1,227.165,509.669Z" transform="translate(-220.175 -507.807)"/></g><path class="g" d="M227.165,509.787l-6.827,0a1.745,1.745,0,0,1,.051-1.6,2.875,2.875,0,0,0,2.152.818,3.829,3.829,0,0,0,.91-.144,4.8,4.8,0,0,0,.774-.292c.128-.063.25-.128.373-.2.046-.026.093-.058.144-.086a16.005,16.005,0,0,1,2.151.7A.681.681,0,0,1,227.165,509.787Z" transform="translate(-216.365 -451.136)"/><path class="o" d="M220.473,470.057l.226,26.315a4.7,4.7,0,0,0,2.774,0l2.837-26.312Z" transform="translate(-216.456 -439.581)"/><path class="o" d="M232.714,443.444l1.007,9.718,3.142,6.892-2.125.976-3.817-7.525Z" transform="translate(-219.621 -431.517)"/><path class="m" d="M232.241,444.034s.491,3.85,1.151,9.266l1.74,3.024a4.429,4.429,0,0,1-3.143,1.7l-3.143-8.483Z" transform="translate(-218.993 -431.696)"/><g transform="translate(15.117 28.537)"><path class="o" d="M236.4,468.251a11.972,11.972,0,0,0,.3,2.207c.5.5,3.352.483,3.53-.21s-1.7-2.974-1.7-2.974Z" transform="translate(-236.398 -467.275)"/><path class="o" d="M239.446,467.425s1.907.1,1.821.569-1.531.409-1.531.409Z" transform="translate(-237.321 -467.32)"/></g><path class="g" d="M229.642,430.968a10.224,10.224,0,0,0,.809,2.769,6.834,6.834,0,0,1,.459,2.2,4.09,4.09,0,0,1-3.4,3.753,16.337,16.337,0,0,1-4.529.185,9.142,9.142,0,0,0-4.449.678,14.79,14.79,0,0,1-1.361.713,1.713,1.713,0,0,1-1.485-.036,1.921,1.921,0,0,1-.737-1.1,5.1,5.1,0,0,1,2.369-6.016c.732-.408,1.551-.629,2.312-.979a3.378,3.378,0,0,0,1.814-1.65,8.084,8.084,0,0,0,.291-1.589,3.711,3.711,0,0,1,.9-1.848,5.029,5.029,0,0,1,2.134-1.11,11.09,11.09,0,0,1,2.014-.563,3.291,3.291,0,0,1,2.362.462,2.069,2.069,0,0,1,.824,1.238,9.642,9.642,0,0,1-.324,2.45A3.718,3.718,0,0,0,229.642,430.968Z" transform="translate(-214.709 -426.333)"/><g transform="translate(2.879 10.399)"><path class="m" d="M218.839,471.453c7.6-.414,10.212-3.4,16.44-2.557,0,0-5.831-11.366-5.877-11.529s-1.034-6.043-.832-6.463c2.063-4.271,1.108-6.547.993-7-.482-1.9-4.013-2.679-4.929-2.652-.547.016-3.291-.07-4.831,2.187-.418.613.549,4.649.155,8.338-.177,1.652-.387,6.185-.579,8.242C219.036,463.728,218.839,471.453,218.839,471.453Z" transform="translate(-218.839 -441.253)"/></g><g class="j" transform="translate(9.684 32.009)"><path class="v" d="M230.078,477.9a10.114,10.114,0,0,1-1.231-5.536c.009-.144-.213-.143-.223,0a10.333,10.333,0,0,0,1.262,5.649C229.955,478.138,230.147,478.026,230.078,477.9Z" transform="translate(-228.603 -472.256)"/></g><g class="j" transform="translate(4.361 20.994)"><path class="v" d="M224.5,456.47a12.368,12.368,0,0,1-3.46,1.471.111.111,0,0,0,.059.215,12.572,12.572,0,0,0,3.513-1.494C224.738,456.588,224.627,456.394,224.5,456.47Z" transform="translate(-220.965 -456.453)"/></g><g transform="translate(7.391 1.181)"><path class="o" d="M226.668,431.575c-.206,2.347-.746,6.5-.746,6.5.545.93,2.543.779,2.493.465a1.777,1.777,0,0,1,.107-.766,1.094,1.094,0,0,1,.339-.523.607.607,0,0,1,.316-.064h.036c.661-.006,1.947.226,2.494-.584.68-1.006.71-3.779.614-5.113a2.381,2.381,0,0,0-2.056-2.036C228.645,429.2,226.875,429.213,226.668,431.575Z" transform="translate(-225.497 -428.426)"/><path class="g" d="M226.855,432.529a1.39,1.39,0,0,1-1.172-.19,1.254,1.254,0,0,1-.3-1.069,3.641,3.641,0,0,1,1.914-2.778,4.305,4.305,0,0,1,3.407-.215,2.221,2.221,0,0,1,.779.429,1.2,1.2,0,0,1,.353.574.4.4,0,0,1-.112.465,10.973,10.973,0,0,1-1.013.942,9.08,9.08,0,0,1-2.37,1.418A7.335,7.335,0,0,1,226.855,432.529Z" transform="translate(-225.332 -428.027)"/><path class="p" d="M227.255,439.689a6.4,6.4,0,0,0,1.821.542.056.056,0,0,1-.016.112,6.485,6.485,0,0,1-1.85-.551C227.145,439.761,227.189,439.657,227.255,439.689Z" transform="translate(-225.878 -431.559)"/><g transform="translate(3.925 3.68)"><path class="q" d="M233.84,435.811c-.02.137.143.273.362.3s.413-.053.434-.189-.143-.273-.362-.3S233.861,435.675,233.84,435.811Z" transform="translate(-231.82 -434.006)"/><path class="q" d="M230.944,435.392c-.02.137.143.273.362.3s.413-.053.434-.19-.143-.272-.362-.3S230.965,435.256,230.944,435.392Z" transform="translate(-230.943 -433.88)"/><path class="r" d="M232.853,436.133a.212.212,0,0,1,.16.023.161.161,0,0,1,.068.136.209.209,0,0,1-.061.143.445.445,0,0,1-.135.09.056.056,0,0,1-.073-.031.057.057,0,0,1,.031-.074l.027-.013.013-.007,0,0a.306.306,0,0,0,.045-.033l0,0,.01-.01.008-.012h0l.011-.024v0l0-.013h0a.039.039,0,0,0,0-.01v-.01l0,0,0-.008,0,0,0,0-.008-.007c.008.007,0,0,0,0l-.01,0H232.9l-.031,0a.056.056,0,0,1-.063-.049A.058.058,0,0,1,232.853,436.133Z" transform="translate(-231.507 -434.162)"/><path class="s" d="M232.456,434.663a.048.048,0,0,1-.046-.033.668.668,0,0,0-.047-.125.206.206,0,0,0-.076-.083.2.2,0,0,0-.178.009.7.7,0,0,0-.168.134.049.049,0,0,1-.069,0,.049.049,0,0,1,0-.069.785.785,0,0,1,.193-.152.3.3,0,0,1,.268-.007.292.292,0,0,1,.116.123.786.786,0,0,1,.054.141.05.05,0,0,1-.033.061Z" transform="translate(-231.22 -433.61)"/><path class="s" d="M234.076,434.91a.049.049,0,0,1-.045-.029.693.693,0,0,0-.107-.186.2.2,0,0,0-.162-.074.205.205,0,0,0-.1.049.705.705,0,0,0-.089.1.049.049,0,1,1-.077-.061.8.8,0,0,1,.1-.112.3.3,0,0,1,.153-.071.29.29,0,0,1,.246.105.759.759,0,0,1,.124.212.049.049,0,0,1-.024.065A.053.053,0,0,1,234.076,434.91Z" transform="translate(-231.713 -433.675)"/><path class="g" d="M234.359,433.765a.6.6,0,0,0-.606-.159c-.055.017-.031.1.024.086a.507.507,0,0,1,.518.137C234.335,433.871,234.4,433.807,234.359,433.765Z" transform="translate(-231.785 -433.39)"/><path class="g" d="M232.675,433.434a.567.567,0,0,0-.634-.055.045.045,0,0,0-.01.063.046.046,0,0,0,.063.01.474.474,0,0,1,.523.052C232.663,433.54,232.72,433.47,232.675,433.434Z" transform="translate(-231.27 -433.307)"/><path class="t" d="M232.125,437.646a.058.058,0,0,1-.024,0,1.272,1.272,0,0,1-.716-.438.064.064,0,0,1,.009-.091.064.064,0,0,1,.091.01,1.147,1.147,0,0,0,.643.394.064.064,0,0,1,0,.126Z" transform="translate(-231.072 -434.457)"/></g><g transform="translate(0 3.9)"><path class="o" d="M226.742,433.988a.958.958,0,0,0-.789-.362.694.694,0,0,0-.612.536,1.41,1.41,0,0,0,.012.608,2.063,2.063,0,0,0,.21.606.906.906,0,0,0,1.028.523c.568-.2.6-.9.445-1.392A1.44,1.44,0,0,0,226.742,433.988Z" transform="translate(-225.312 -433.622)"/><path class="r" d="M226.2,434.355a.752.752,0,0,1,.551.459,1.657,1.657,0,0,1,.174.735c0,.067-.105.073-.105.006a1.545,1.545,0,0,0-.117-.588l-.008,0a.7.7,0,0,0-.441-.052.054.054,0,0,1-.066-.034.053.053,0,0,1,.033-.066.839.839,0,0,1,.422.022.634.634,0,0,0-.465-.376C226.108,434.45,226.131,434.348,226.2,434.355Z" transform="translate(-225.561 -433.844)"/></g></g><path class="o" d="M219,444.391s-4.012,6.949-2.46,8.95,9.926-2.436,9.926-2.436l-.634-1.993s-6.409,1.8-6.507,1.759C219.074,450.574,219,444.391,219,444.391Z" transform="translate(-215.156 -431.804)"/><path class="m" d="M221.932,449.647a5.878,5.878,0,0,1,1.225,3.081s-4.867,2.689-7.027,1.045,2.35-8.959,2.677-9.383l.837,5.514Z" transform="translate(-214.963 -431.804)"/><g transform="translate(10.961 13.09)"><path class="g" d="M230.5,449.652h2.525a.205.205,0,0,0,.164-.11l2.226-4.221c.116-.222-.085-.208-.146-.208h-2.525a.2.2,0,0,0-.164.109l-2.136,4.319C230.417,449.6,230.442,449.652,230.5,449.652Z" transform="translate(-230.435 -445.113)"/><path class="i" d="M230.625,449.808h2.525a.2.2,0,0,0,.164-.109l2.136-4.319c.03-.061.006-.109-.055-.109H232.87a.2.2,0,0,0-.164.109L230.57,449.7C230.54,449.76,230.565,449.808,230.625,449.808Z" transform="translate(-230.472 -445.16)"/></g><g transform="translate(10.676 15.612)"><path class="o" d="M230.66,452.251a20.853,20.853,0,0,0,2.048-.486c.144-.106.926-2.815.394-2.927s-3.075,1.421-3.075,1.421Z" transform="translate(-230.026 -448.761)"/><path class="o" d="M230.026,450.228s.307-1.454,1.241-1.5l-.539,1.09Z" transform="translate(-230.026 -448.731)"/></g></g></g></g></svg>