<svg xmlns="http://www.w3.org/2000/svg" xmlns:xlink="http://www.w3.org/1999/xlink" width="87.83" height="70" viewBox="0 0 87.83 70"><defs><style>.a{fill:none;}.b{clip-path:url(#a);}.c{fill:#550012;}.d{fill:#e3795f;}.e{fill:#de002f;}.f{fill:#ffa9c3;}.g{fill:#6ebba5;}.h{fill:#528c7d;}.i{fill:#bef5db;}.j{fill:#8b001f;}.k{fill:#00da71;}.l{fill:#dfdce5;}.m{fill:#fff;}.n{fill:#00994f;}.o,.q{fill:#8d4237;}.p{fill:#006e38;}.q{mix-blend-mode:multiply;isolation:isolate;}.r{fill:#dd97ac;}.s{fill:#f3b5c4;}</style><clipPath id="a"><rect class="a" width="87.83" height="70"/></clipPath></defs><g transform="translate(0 0)"><g class="b" transform="translate(0 0)"><path class="c" d="M71.276,71.809C81.478,70.27,95.436,40.9,91.716,27.3S50.1.515,28.45,9.678s-10.934,43.2.867,51.119,35.255,12.023,41.96,11.012" transform="translate(-4.723 -1.961)"/><path class="c" d="M6.3,55.1C.289,54.04-2.751,77.129,4.749,82.385s14.8-.7,15.059-4.585S11.214,55.959,6.3,55.1" transform="translate(-0.093 -16.272)"/><rect class="d" width="60.178" height="6.299" transform="translate(10.561 36.169)"/><path class="e" d="M59.469,69.266A116.2,116.2,0,0,0,16.027,56.249l1.682-19.7A134.352,134.352,0,0,1,67.938,51.6Q63.7,60.433,59.469,69.266" transform="translate(-4.736 -10.802)"/><path class="f" d="M17.921,53.267q.573-6.143,1.146-12.285a2.816,2.816,0,0,0,3.188-2.334A133.382,133.382,0,0,1,64.37,51.267,2.994,2.994,0,0,0,65.9,55.016l-5.2,11.071a2.5,2.5,0,0,0-3.47,1.226A117.139,117.139,0,0,0,20.253,56.232a2.65,2.65,0,0,0-2.332-2.964" transform="translate(-5.296 -11.421)"/><path class="g" d="M56.662,56.536a6.819,6.819,0,0,1-8.494,4.242,7.276,7.276,0,0,1-4.957-8.394,6.577,6.577,0,0,1,8.6-4.622,7,7,0,0,1,4.852,8.774" transform="translate(-12.724 -14.015)"/><path class="h" d="M49.647,60.375,49.94,59.2a6.372,6.372,0,0,1-1.426-.668.761.761,0,0,1-.275-.988c.008-.013.014-.027.022-.042a.731.731,0,0,1,1.055-.257,4.692,4.692,0,0,0,1.308.605c.714.2,1.273.07,1.4-.424.122-.47-.2-.888-1.069-1.461-1.25-.826-2.048-1.687-1.772-2.9.249-1.1,1.262-1.754,2.737-1.625l.29-1.18q.651.181,1.3.367-.139.545-.278,1.091a5.961,5.961,0,0,1,1.154.514.757.757,0,0,1,.3,1.028.768.768,0,0,1-1.073.227,4.31,4.31,0,0,0-1.1-.485c-.847-.241-1.207.035-1.291.382-.1.411.292.793,1.282,1.5,1.393.964,1.81,1.837,1.5,2.944a2.414,2.414,0,0,1-2.831,1.624q-.163.632-.327,1.263c-.4-.116-.8-.229-1.2-.34" transform="translate(-14.231 -14.852)"/><path class="g" d="M35.945,52.66q-5.187-1.2-10.467-1.948.122-.948.244-1.894,5.349.761,10.614,1.975-.2.933-.391,1.867" transform="translate(-7.529 -14.427)"/><path class="g" d="M74.5,65.31q-4.827-2.361-9.816-4.3.315-.9.631-1.793,5.054,1.961,9.954,4.357L74.5,65.31" transform="translate(-19.116 -17.501)"/><path class="e" d="M66.142,42.847A104.928,104.928,0,0,0,26.848,60.125l-9.7-16.731A121.34,121.34,0,0,1,62.586,23.418q1.778,9.714,3.557,19.429" transform="translate(-5.069 -6.92)"/><path class="f" d="M26.968,57.2q-2.988-5.248-5.975-10.5a3.086,3.086,0,0,0,1.057-3.883,120.414,120.414,0,0,1,38.094-16.75,2.66,2.66,0,0,0,3.215,2l2.31,12.108a2.636,2.636,0,0,0-1.881,3.182A105.751,105.751,0,0,0,30.335,58.071a2.284,2.284,0,0,0-3.367-.874" transform="translate(-6.204 -7.704)"/><path class="e" d="M57.466,40.889a7.348,7.348,0,0,1-3.915,8.774,6.316,6.316,0,0,1-8.319-3.521A7.092,7.092,0,0,1,49.013,37a6.132,6.132,0,0,1,8.453,3.891" transform="translate(-13.212 -10.773)"/><path class="i" d="M54.336,49.548q-.219-.562-.438-1.124a5.534,5.534,0,0,1-1.424.376.691.691,0,0,1-.751-.611c0-.015,0-.031-.007-.046a.756.756,0,0,1,.636-.876,4.094,4.094,0,0,0,1.3-.35c.639-.3.98-.754.8-1.229-.17-.452-.642-.576-1.6-.483-1.381.139-2.449-.039-2.919-1.177a2.518,2.518,0,0,1,1.119-3.033l-.442-1.122q.58-.271,1.163-.535l.4,1.044a5.284,5.284,0,0,1,1.138-.325.688.688,0,0,1,.793.626.79.79,0,0,1-.666.863,3.758,3.758,0,0,0-1.083.315c-.759.347-.871.795-.74,1.125.154.39.655.445,1.781.381,1.564-.12,2.356.309,2.745,1.384a2.629,2.629,0,0,1-1.188,3.091l.46,1.212q-.539.245-1.078.5" transform="translate(-14.707 -11.625)"/><path class="g" d="M39.112,51.2Q34.618,53.544,30.3,56.3q-.436-.83-.871-1.66,4.371-2.8,8.931-5.179l.748,1.732" transform="translate(-8.698 -14.618)"/><path class="e" d="M74.717,37.6Q69.842,38.8,65.085,40.43q-.264-.914-.53-1.827,4.82-1.655,9.767-2.866l.4,1.865" transform="translate(-19.078 -10.561)"/><path class="e" d="M69.439,59.994a106.5,106.5,0,0,0-42.979,6.3L20.746,47.53a123.117,123.117,0,0,1,49.692-7.283q-.5,9.874-1,19.747" transform="translate(-6.131 -11.828)"/><path class="f" d="M27.2,62.865q-1.739-5.871-3.478-11.743a2.97,2.97,0,0,0,1.953-3.477,122.17,122.17,0,0,1,41.665-6.106,2.808,2.808,0,0,0,2.72,2.793q-.265,6.165-.531,12.33a2.549,2.549,0,0,0-2.606,2.58A107.3,107.3,0,0,0,30.332,64.6,2.416,2.416,0,0,0,27.2,62.865" transform="translate(-7.01 -12.261)"/><path class="e" d="M62.476,51.509a7.073,7.073,0,0,1-5.925,7.453,6.7,6.7,0,0,1-7.427-5.615A6.835,6.835,0,0,1,55,45.5a6.483,6.483,0,0,1,7.473,6.007" transform="translate(-14.489 -13.427)"/><path class="i" d="M57.726,58.609l-.173-1.2a5.757,5.757,0,0,1-1.5-.014.727.727,0,0,1-.6-.791l0-.046a.735.735,0,0,1,.835-.679,4.21,4.21,0,0,0,1.371.006c.7-.117,1.146-.47,1.079-.978-.063-.482-.5-.728-1.472-.89-1.4-.232-2.419-.688-2.619-1.913a2.421,2.421,0,0,1,1.815-2.638q-.089-.6-.177-1.2.639-.108,1.278-.209.077.559.154,1.117a5.386,5.386,0,0,1,1.2-.013.722.722,0,0,1,.64.816.769.769,0,0,1-.862.659,3.854,3.854,0,0,0-1.147.017c-.833.135-1.048.538-1,.892.061.419.546.605,1.677.842,1.578.3,2.264.924,2.4,2.067a2.528,2.528,0,0,1-1.9,2.677q.088.648.174,1.295-.593.093-1.184.194" transform="translate(-16.141 -14.199)"/><path class="g" d="M42.144,56.937q-5,1.08-9.922,2.607-.239-.919-.478-1.839,4.984-1.548,10.061-2.644Z" transform="translate(-9.381 -16.272)"/><path class="g" d="M80.832,53.3q-5.11-.138-10.206.181-.05-.954-.1-1.908,5.163-.323,10.35-.184-.022.955-.044,1.911" transform="translate(-20.842 -15.174)"/><rect class="j" width="60.178" height="26.485" transform="translate(10.561 36.169)"/><path class="c" d="M92.857,79.339H77.965a1.253,1.253,0,0,0,0,2.5H76.035a1.253,1.253,0,0,0,0,2.5h.335a1.225,1.225,0,0,0-1.2,1.253,1.291,1.291,0,0,0,.1.5H92.857Z" transform="translate(-22.117 -23.447)"/><rect class="c" width="54.781" height="2.056" transform="translate(12.779 37.473)"/><path class="k" d="M35.868,81.57H21a6.95,6.95,0,0,1-6.95-6.95V72.072A6.949,6.949,0,0,1,21,65.122H35.868a6.949,6.949,0,0,1,6.948,6.95v2.549a6.949,6.949,0,0,1-6.948,6.949" transform="translate(-4.153 -19.245)"/><rect class="i" width="7.083" height="4.118" transform="translate(11.749 49.148)"/><rect class="i" width="12.561" height="0.769" transform="translate(24.282 48.105)"/><rect class="e" width="23.117" height="0.95" transform="translate(12.793 56.89)"/><rect class="e" width="23.117" height="0.95" transform="translate(12.793 59.126)"/><rect class="c" width="25.543" height="0.683" transform="translate(13.475 42.931)"/><path class="l" d="M78.408,40.951a5.688,5.688,0,1,1-7.924-1.389,5.687,5.687,0,0,1,7.924,1.389" transform="translate(-20.115 -11.386)"/><path class="e" d="M78.044,41.861a4.774,4.774,0,1,1-6.65-1.165,4.773,4.773,0,0,1,6.65,1.165" transform="translate(-20.499 -11.77)"/><path class="i" d="M75.844,48.505l-.208-.769a3.867,3.867,0,0,1-1.016.089.485.485,0,0,1-.461-.478v-.03a.484.484,0,0,1,.514-.491,2.836,2.836,0,0,0,.92-.086c.461-.125.729-.389.641-.712-.083-.308-.4-.432-1.049-.473-.945-.057-1.646-.3-1.858-1.087a1.549,1.549,0,0,1,.978-1.812l-.208-.769.793-.215.193.713a3.6,3.6,0,0,1,.768-.093.485.485,0,1,1-.011.97,2.565,2.565,0,0,0-.739.092c-.526.142-.635.414-.573.641.072.268.4.361,1.16.434,1.056.08,1.565.42,1.762,1.148a1.607,1.607,0,0,1-1.036,1.888l.223.826Z" transform="translate(-21.655 -12.315)"/><path class="i" d="M86.026,66.794A5.689,5.689,0,1,1,78.1,65.406a5.688,5.688,0,0,1,7.924,1.389" transform="translate(-22.366 -19.024)"/><path class="e" d="M85.661,67.7a4.773,4.773,0,1,1-6.649-1.165A4.773,4.773,0,0,1,85.661,67.7" transform="translate(-22.75 -19.407)"/><path class="m" d="M83.461,74.348l-.208-.769a3.9,3.9,0,0,1-1.017.089.485.485,0,0,1-.46-.478v-.03a.485.485,0,0,1,.514-.491,2.83,2.83,0,0,0,.919-.086c.461-.125.729-.389.642-.712-.083-.308-.4-.432-1.049-.473-.945-.057-1.646-.3-1.858-1.088a1.549,1.549,0,0,1,.979-1.811l-.208-.769.793-.215.193.713a3.59,3.59,0,0,1,.768-.093.485.485,0,1,1-.011.97,2.563,2.563,0,0,0-.739.092c-.526.142-.635.414-.573.641.072.268.4.361,1.16.434,1.056.08,1.565.42,1.762,1.148a1.607,1.607,0,0,1-1.036,1.888l.223.826Z" transform="translate(-23.906 -19.952)"/><path class="i" d="M71.366,59.954a5.688,5.688,0,1,1-5.688-5.689,5.688,5.688,0,0,1,5.688,5.689" transform="translate(-17.728 -16.036)"/><path class="e" d="M70.834,60.338a4.774,4.774,0,1,1-4.773-4.774,4.773,4.773,0,0,1,4.773,4.774" transform="translate(-18.112 -16.42)"/><path class="i" d="M65.631,64l.272-.749a3.88,3.88,0,0,1-.883-.511.484.484,0,0,1-.1-.655l.018-.025a.484.484,0,0,1,.7-.106,2.812,2.812,0,0,0,.8.458c.449.163.821.1.935-.215.108-.3-.075-.58-.588-.989-.741-.59-1.173-1.193-.9-1.958a1.55,1.55,0,0,1,1.841-.921L68,57.576l.774.28-.252.694a3.544,3.544,0,0,1,.682.365.485.485,0,1,1-.566.788,2.58,2.58,0,0,0-.657-.349c-.513-.186-.759-.025-.839.2-.094.26.122.526.7,1.021.819.671,1.039,1.243.782,1.953a1.607,1.607,0,0,1-1.932.95l-.292.8Z" transform="translate(-19.16 -17.015)"/><rect class="c" width="25.763" height="13.808" transform="translate(41.796 47.197)"/><path class="c" d="M76.77,80.59h0a1.225,1.225,0,0,0,1.2,1.252H76.035a1.253,1.253,0,0,0,0,2.5h.335a1.146,1.146,0,0,0-.48.1H89.677V79.338H77.965a1.225,1.225,0,0,0-1.2,1.252" transform="translate(-22.117 -23.446)"/><path class="n" d="M0,88.194H0a.374.374,0,0,0,.333.4h82.99a.411.411,0,0,0,0-.807H.333a.374.374,0,0,0-.333.4" transform="translate(0 -25.944)"/><path class="e" d="M93.71,89.063H78.332a1.117,1.117,0,0,1,0-2.235H93.71a1.117,1.117,0,0,1,0,2.235" transform="translate(-22.819 -25.66)"/><path class="i" d="M93.266,85.891H77.888a1.117,1.117,0,0,1,0-2.235H93.266a1.117,1.117,0,0,1,0,2.235" transform="translate(-22.688 -24.722)"/><path class="e" d="M95.827,82.719H80.449a1.117,1.117,0,1,1,0-2.234H95.827a1.117,1.117,0,0,1,0,2.234" transform="translate(-23.445 -23.785)"/><path class="o" d="M98.938,75.5a12.771,12.771,0,0,0-.023,2.059c.054.271.356.827.218,1.081a.694.694,0,0,1-.3.318l-3.589.056c-.2,0-.066-.12.092-.235a7.288,7.288,0,0,1,1.291-.7c.054-.025.249-.148.32-.19a2.445,2.445,0,0,0,.514-.447,4.461,4.461,0,0,0,.28-1.651Z" transform="translate(-28.118 -22.311)"/><path class="p" d="M96.007,46.011s-1.542-.761-1.246.894,2.557,20.257,2.557,20.257l2.118.117s.271-6.2.211-7.093a16.213,16.213,0,0,0-.41-2.268l-.18-5.5-2-6.794Z" transform="translate(-27.993 -13.482)"/><path class="k" d="M96.84,78.855a3.3,3.3,0,0,0,2.044-.079,1.606,1.606,0,0,1,.165.84c-.087.25-.2.361-.311.364-.867.023-3.186,0-3.848.007a.106.106,0,0,1-.084-.175,17.5,17.5,0,0,1,2.035-.957" transform="translate(-28.01 -23.28)"/><path class="o" d="M93.206,25.771A24.43,24.43,0,0,1,91.7,22.34c-.2-.921-.9-5.562-.844-5.861s1.167-1.018,1.031-1.272-1.193-.254-1.434-.233a2.195,2.195,0,0,0-.936.334c-.208.172.234,5.733.366,6.93a31.194,31.194,0,0,0,1.753,4.884Z" transform="translate(-26.438 -4.423)"/><path class="o" d="M109.205,56.968a12.8,12.8,0,0,0,1.315-1.584c.129-.244.245-.867.513-.977a.692.692,0,0,1,.43-.06l2.824,2.217c.154.121-.024.136-.219.125a7.323,7.323,0,0,1-1.443-.268c-.058-.014-.288-.042-.369-.054a2.5,2.5,0,0,0-.68.023c-.378.057-1.257,1.106-1.257,1.106Z" transform="translate(-32.273 -16.057)"/><path class="k" d="M112.847,56.341a3.3,3.3,0,0,0-1.636-1.226c.1-.282.207-.652.391-.766.225-.139.38-.11.468-.043.687.528,2.487,1.976,3.005,2.386a.105.105,0,0,1-.044.188,17.4,17.4,0,0,1-2.183-.538" transform="translate(-32.866 -16.032)"/><path class="p" d="M105.229,27.9a3.146,3.146,0,0,0-3.591-1.8,3.307,3.307,0,0,0-2.143-1.3c-1.637-.232-3.749.562-3.534,2.271a3.17,3.17,0,0,0,.642,3.65,2.772,2.772,0,0,0,3.25,2.776,3.379,3.379,0,0,0,3.274,1.406,7.452,7.452,0,0,1,.814-.15c-.1-.011,2.126,1.445,3.659-1.147,1.564-2.644.024-5.6-2.371-5.7" transform="translate(-28.271 -7.315)"/><path class="k" d="M95.664,46.447a25.9,25.9,0,0,1,3.515-1.363c.434,1.4,1.784.947,2.585,3.408.336,1.031.681,7.886.681,7.886s1.365-1.132,3.314-3.11c.15-.152,1.616,1.242,1.616,1.242-3.87,5.229-5.54,5.5-6.186,5.209C99.84,59.107,97,50.559,97,50.559c-.342-.665-1.336-4.112-1.336-4.112" transform="translate(-28.271 -13.319)"/><path class="o" d="M103.808,32.656s5-.006,6.072-.068c.969-.056,4.813.042,4.964.025s1.144-1.7,1.309-1.52-.553.834-.33,1,2.607-.21,2.576-.034c-.059.33-1.451.288-1.45.447s1.457-.089,1.555.175-1.4.108-1.46.225,1.39.334,1.242.58c-.08.133-1.284-.223-1.279-.042s.884.6.777.742-.69-.445-1.2-.452a3.942,3.942,0,0,0-1.689-.05c-.4.11-3.468.485-6.059.707-2.657.227-4.835.3-4.835.3Z" transform="translate(-30.678 -9.184)"/><path class="i" d="M92.937,35.687A6.3,6.3,0,0,1,93.065,34c-.243-.834-.76-2.614-.946-2.964,0,0,.871-1.673,1.763-1.662,0,0,.91,2.052,1.614,2.419a1.7,1.7,0,0,0,.354.106c.68,0,3.054-.077,3.5-.085l-.25,3.369c-1.72,3.374-1.255,5.143-.6,5.8.308.308-4.294,1.558-4.507,1.122a47.269,47.269,0,0,1-1.055-6.416" transform="translate(-27.224 -8.681)"/><path class="i" d="M100.667,32.963a21.946,21.946,0,0,1,3.608-.1s.443,2.207.085,2.738c0,0-2.834.422-2.754.654Z" transform="translate(-29.75 -9.703)"/><path class="o" d="M98.611,30.735a16.437,16.437,0,0,0,0,1.706,1.755,1.755,0,0,1-1.577,1.7c-1.063.02-.156-1.129-.063-1.622s.2-2.426.2-2.426Z" transform="translate(-28.525 -8.892)"/><path class="q" d="M97.424,30.091s-.026.449-.063.969a1.236,1.236,0,0,0,1.477.36c.007-.373.021-.685.021-.685Z" transform="translate(-28.773 -8.892)"/><path class="o" d="M98.769,25.895a1.766,1.766,0,0,1,.94.782,2.372,2.372,0,0,1-.818,3.021c-1.3.706-2.187-.48-2.128-1.574s.394-2.534,2.006-2.23" transform="translate(-28.595 -7.64)"/><path class="o" d="M96.377,28.317c.088.271.287.449.445.4s.214-.312.127-.583-.288-.449-.445-.4-.214.313-.127.583" transform="translate(-28.47 -8.193)"/><path class="p" d="M99.355,25.844s.659,1.8,1.333,2,.6,1.082.6,1.082.125-2.032-.485-2.542a2.706,2.706,0,0,0-1.451-.545" transform="translate(-29.362 -7.637)"/><path class="o" d="M100.8,29.017c-.109.278-.046.563.142.637s.429-.091.538-.368.047-.563-.141-.637-.429.091-.539.368" transform="translate(-29.774 -8.461)"/><path class="r" d="M89.272,15.87s1.465.064,1.637.064.673-.518.673-.518Z" transform="translate(-26.382 -4.556)"/><path class="i" d="M91.74,2.421a5.688,5.688,0,1,1-7.924-1.389A5.689,5.689,0,0,1,91.74,2.421" transform="translate(-24.054 0)"/><path class="e" d="M91.375,3.331a4.774,4.774,0,1,1-6.649-1.165,4.774,4.774,0,0,1,6.649,1.165" transform="translate(-24.438 -0.384)"/><path class="i" d="M89.175,9.975l-.209-.769a3.892,3.892,0,0,1-1.016.089.485.485,0,0,1-.46-.478v-.03A.485.485,0,0,1,88,8.3a2.833,2.833,0,0,0,.919-.086c.461-.125.729-.389.642-.712-.083-.308-.4-.432-1.05-.473-.945-.057-1.645-.3-1.858-1.088a1.549,1.549,0,0,1,.978-1.811l-.207-.769.793-.215.193.713a3.585,3.585,0,0,1,.768-.093.485.485,0,1,1-.011.969,2.609,2.609,0,0,0-.738.092c-.526.142-.635.415-.573.642.072.268.4.361,1.16.434,1.055.08,1.565.42,1.762,1.148a1.608,1.608,0,0,1-1.036,1.888l.223.826Z" transform="translate(-25.595 -0.928)"/><path class="s" d="M91.6,15.745l.6-.544s-.285-.341-.166-.406c.193-.106.523.306.493.406a2.377,2.377,0,0,1-.384.423Z" transform="translate(-27.069 -4.367)"/></g></g></svg>