<svg xmlns="http://www.w3.org/2000/svg" xmlns:xlink="http://www.w3.org/1999/xlink" width="80.793" height="80" viewBox="0 0 80.793 80"><defs><style>.a{fill:#e5fbf2;}.b{clip-path:url(#a);}.c{fill:#550012;}.d{fill:#ff003b;}.e{fill:#8b001f;}.f{fill:#ff6e9c;}.g{fill:#00994f;}.h{fill:#ffa9c3;}.i{fill:#ec9792;}.j{fill:#122755;}.k{fill:#006e38;}.l{fill:#e08481;}.m{fill:#090a50;}.n{fill:#fff;}</style><clipPath id="a"><rect class="a" width="80.793" height="80"/></clipPath></defs><g class="b"><path class="a" d="M66.054,71.616C53.805,85.453,43.413,86.307,35.437,75.947c-11-14.29-31.2-7.231-32.634-25.166S34.991,5.1,57.292,9.076s31.43,36.933,8.762,62.54" transform="translate(-0.939 -2.96)"/><path class="c" d="M15.22,97.415c-5.623-3.718-12,1.072-12.3,5.038s12.318,5.061,14.282,3.5-.426-7.509-1.978-8.535" transform="translate(-0.991 -32.716)"/><path class="a" d="M115.262,13.773c-.439-4.663-5.809-6.025-8.088-4.462s2.629,8.871,4.331,9.251,3.878-3.5,3.756-4.789" transform="translate(-36.293 -2.96)"/><path class="d" d="M61.3,85.634c2.131-2.868,3.842-2.893,3.842-2.893s.778-5.038.157-7.182-3.421-.264-3.421-.264,3.716-7.283,2.191-8.1c-2.838-1.523-7.31,6.2-7.31,6.2s1.047-3.4-.96-3.387c-3.028.018-3.289,7.815-3.289,7.815s-.6-1.537-2.464-.656c-2.012.948-2.557,6.655-2.671,11.067h10.6a12.847,12.847,0,0,0,3.32-2.6" transform="translate(-16.134 -22.813)"/><path class="e" d="M57.021,72.766s.124-3.874-1.883-3.862c-3.027.018-2.737,8.911-2.737,8.911s-1.265-2.516-3.133-1.636c-2.049.966-2.292,7.275-2.213,12.047h3.522l13.381-21.04c-2.838-1.523-6.938,5.581-6.938,5.581" transform="translate(-16.019 -22.805)"/><path class="d" d="M87.167,93.123s9.663,1.113,12,.293.791-2.131.791-2.131,4.95-.632,5.428-2.106-1.865-1.483-1.865-1.483,4.969-2.741,4.411-3.8c-1.039-1.98-6.615.721-6.615.721s1.925-1.547.766-2.321c-1.748-1.167-4.932,3.214-4.932,3.214S97.411,84.39,96,84.17c-2.541-.4-8.828,8.953-8.828,8.953" transform="translate(-29.682 -27.955)"/><path class="e" d="M96.47,82.926c1.416.22,1.165,2.159,1.165,2.159s3.293-5.225,5.04-4.058c1.159.774-.42,2.953-.42,2.953s5.122-2.49,6.16-.509L88.57,92.082c.729-1.1,5.526-9.527,7.9-9.157" transform="translate(-30.16 -27.533)"/><path class="d" d="M86.31,86.457s8.793-6.119,10.059-8.808-1.158-2.466-1.158-2.466,3.617-4.763,2.759-6.409-2.834.349-2.834.349,1.829-6.551.452-6.967c-2.565-.774-5.076,7.521-5.076,7.521s-.958-4.59-2.593-4.249c-2.465.514,0,7.3,0,7.3s-.728-2.21-2.106-1.185c-2.472,1.84.5,14.915.5,14.915" transform="translate(-28.885 -21.148)"/><path class="e" d="M82.436,71.642a3.5,3.5,0,0,0,1.864-2.28s.011-3.836,2.476-4.351c1.635-.341,2.78,2.742,2.78,2.742s2.5-6.378,5.065-5.6l-9.305,24.2c-.324-1.543-4.73-13.831-2.88-14.706" transform="translate(-27.917 -21.141)"/><path class="f" d="M73.28,98H55.548a1.024,1.024,0,0,1,0-2.048H73.28a1.024,1.024,0,1,1,0,2.048" transform="translate(-18.567 -32.675)"/><path class="e" d="M77.983,94.99H60.251a1.024,1.024,0,0,1,0-2.048H77.983a1.024,1.024,0,1,1,0,2.048" transform="translate(-20.168 -31.649)"/><path class="f" d="M74.22,92.136H56.488a1.024,1.024,0,0,1,0-2.048H74.22a1.024,1.024,0,1,1,0,2.048" transform="translate(-18.887 -30.677)"/><path class="e" d="M71.086,89.044H53.353a1.024,1.024,0,1,1,0-2.048H71.086a1.024,1.024,0,0,1,0,2.048" transform="translate(-17.819 -29.624)"/><path class="a" d="M90.661,81.941a8.866,8.866,0,1,1-8.866-8.866,8.866,8.866,0,0,1,8.866,8.866" transform="translate(-24.834 -24.884)"/><path class="g" d="M89.971,82.678a7.44,7.44,0,1,1-7.44-7.44,7.44,7.44,0,0,1,7.44,7.44" transform="translate(-25.57 -25.62)"/><path class="e" d="M27.355,81.648S13.577,74.855,11.209,71.312s1.113-3.745,1.113-3.745-6.148-5.979-5.284-8.5,4.093-.111,4.093-.111-4-8.9-2.131-9.782C12.471,47.53,17.342,57,17.342,57s-1.047-4.113,1.344-3.979c3.605.2,3.457,9.506,3.457,9.506s.407-3.567,2.581-2.408c3.9,2.079,2.632,21.532,2.632,21.532" transform="translate(-2.368 -16.68)"/><path class="d" d="M26.563,58.678c-1.7-.942-3.388,1.811-3.388,1.811s.171-7.267-3.434-7.469C17.35,52.886,18.4,57,18.4,57s-4.871-9.469-8.342-7.821L28.426,81.5c.13-2.257,1.5-20.954-1.863-22.82" transform="translate(-3.424 -16.681)"/><path class="e" d="M24.631,91.157s-11.269,1.4-14.186.152-.827-2.788-.827-2.788S3.354,87.291,2.87,85.369s2.508-1.733,2.508-1.733S-.73,79.711.073,78.4c1.5-2.439,8.381,1.488,8.381,1.488s-2.325-2.14-.779-3.028c2.331-1.339,6.019,4.525,6.019,4.525s-.229-1.445,1.6-1.605c3.277-.288,9.339,11.377,9.339,11.377" transform="translate(0 -26.105)"/><path class="d" d="M15.4,78.182c-1.827.16-1.671,2.656-1.671,2.656s-3.755-6.951-6.086-5.611c-1.545.888.283,3.805.283,3.805S1.607,75.415.111,77.854L24.7,90.548c-.837-1.461-6.238-12.634-9.3-12.365" transform="translate(-0.038 -25.558)"/><path class="g" d="M1.8,99.356h0a.317.317,0,0,0,.317.317H81.089a.317.317,0,1,0,0-.634H2.117a.317.317,0,0,0-.317.317" transform="translate(-0.613 -33.725)"/><path class="h" d="M48.7,97.491H27.873a1.5,1.5,0,1,1,0-3H48.7a1.5,1.5,0,1,1,0,3" transform="translate(-8.98 -32.175)"/><path class="d" d="M54.079,92.98H34.471a1.5,1.5,0,1,1,0-3.005H54.079a1.5,1.5,0,0,1,0,3.005" transform="translate(-11.226 -30.638)"/><path class="h" d="M50.265,88.422H31.579a1.5,1.5,0,1,1,0-3.006H50.265a1.5,1.5,0,0,1,0,3.006" transform="translate(-10.242 -29.086)"/><path class="d" d="M50.181,83.877H31.455a1.5,1.5,0,1,1,0-3H50.181a1.5,1.5,0,0,1,0,3" transform="translate(-10.2 -27.539)"/><path class="h" d="M51.061,79.588H32.044a1.5,1.5,0,0,1,0-3.005H51.061a1.5,1.5,0,0,1,0,3.005" transform="translate(-10.4 -26.078)"/><path class="d" d="M49.817,75.089H30.8a1.5,1.5,0,0,1,0-3.005H49.817a1.5,1.5,0,0,1,0,3.005" transform="translate(-9.977 -24.546)"/><path class="d" d="M51.661,66.287H33.5a1.5,1.5,0,0,1,0-3H51.661a1.5,1.5,0,0,1,0,3" transform="translate(-10.897 -21.549)"/><path class="h" d="M54.492,70.667H37.106a1.5,1.5,0,1,1,0-3.005H54.492a1.5,1.5,0,0,1,0,3.005" transform="translate(-12.124 -23.04)"/><path class="a" d="M25.982,75.279a8.822,8.822,0,1,1-12.466.5,8.823,8.823,0,0,1,12.466-.5" transform="translate(-3.807 -24.838)"/><path class="g" d="M25.753,77.055a7.4,7.4,0,1,1-10.461.423,7.4,7.4,0,0,1,10.461-.423" transform="translate(-4.54 -25.571)"/><path class="i" d="M59.815,28.163a1.687,1.687,0,0,0,.1-.7,12.133,12.133,0,0,0-.154-1.6,9.369,9.369,0,0,1,1.919-.762s3.15-.161,3.619-.513.863-.5.645-.131a8.729,8.729,0,0,1-1.524,1.758c-.2.132-2.651.747-2.7.747s-.029,1.539-.029,1.539Z" transform="translate(-20.349 -8.253)"/><path class="e" d="M57.371,29.089s-2.04-.347-2.077-.143c-.824,4.512-.963,6-1.055,6.051-.311.16-4.749-3.736-5.483-3.991a3.048,3.048,0,0,0-1.1-.09c-.872.026-.578,0-1.038.027h0l-.039,0,0,.821c.983.884,3.234,14.283,3.423,14.274.212-.011,4.66,1.109,4.581.735a13.22,13.22,0,0,1-3.867-6.065c-.286-1.191-.427-2.472-.582-3.595.989.5,4.849,2.4,5.46,2.144,1.9-.781,1.769-10.17,1.769-10.17" transform="translate(-15.862 -9.835)"/><path class="i" d="M74.559,64.521s4.139,3.242,4.277,3.817c.2.828,3.989-.26,3.075-.429-.21-.038-.883-.208-.938-.239-.3-.158-3.979-4.6-3.979-4.6Z" transform="translate(-25.389 -21.478)"/><path class="j" d="M85.819,70.295l-2.643-.215a3.744,3.744,0,0,1-2.207.654,3.39,3.39,0,0,0-.121,1.438c.019.134.042.538.176.528.489-.032,1.789-.357,3.271-.653a12.754,12.754,0,0,0,3.142-1.11c1.151-.688-1.618-.643-1.618-.643" transform="translate(-27.52 -23.864)"/><path class="k" d="M45.9,52.127a18.1,18.1,0,0,0,6.383-.275c3.879-.907,8.167-1.746,9.424-1.016,1.012.588,7.329,10.132,7.329,10.132l-2.44,1.78-6.955-7.788s-8.873,3.274-10.866,2.911c-4.539-.826-4.6-4.451-2.875-5.745" transform="translate(-15.273 -17.216)"/><path class="k" d="M49.752,50.017l3.033,3.6-5.627,1.714-.719-3.392Z" transform="translate(-15.813 -17.032)"/><path class="i" d="M60.652,74.979s-.184,5.006-.3,5.854,2.124,3.386,1.838,2.5c-.066-.2-.235-.877-.235-.94,0-.336.83-6.045.83-6.045Z" transform="translate(-20.55 -25.532)"/><path class="j" d="M61.938,87.924,60.872,85.5a3.744,3.744,0,0,1-1.625-1.631,3.378,3.378,0,0,0-1.323.576c-.109.08-.849.621-.8.747a14.184,14.184,0,0,0,2.3,2.519,29.832,29.832,0,0,0,2.715,1.945c1.152.685-.2-1.73-.2-1.73" transform="translate(-19.452 -28.558)"/><path class="g" d="M59.338,56.223c-1.06-1.413-9.613-2.755-9.613-2.755l-2.385-4.584-5.275,3.252a47.608,47.608,0,0,0,.923,5.318c.527,1.494,4.072,1.571,6.236,1.548,1.992-.02,5.63.385,5.63.385l-1.23,10.856a16.988,16.988,0,0,0,3.1.461c.076-.01,3.934-12.723,2.615-14.481" transform="translate(-14.324 -16.646)"/><path class="a" d="M44.988,32.022l-2.976.164s-.068.024-.088.028c-.243.044-.022,8.716.193,11.954a21.675,21.675,0,0,0,.656,4.6,48.484,48.484,0,0,0,5.274-1.2A9.1,9.1,0,0,0,49.8,45.816a13.051,13.051,0,0,1-1.912-4.484c-.493-2.141-1.1-5.935-1.451-6.727a11.275,11.275,0,0,0-1.454-2.583" transform="translate(-14.24 -10.904)"/><path class="l" d="M42.2,28.08l-.084,2.627s1.926,3.32,2.915,2.856c.83-.387.094-2.913.094-2.913s-.144-.578-.344-1.243a4.818,4.818,0,0,1-.247-1.338c.021-.9-2.334.011-2.334.011" transform="translate(-14.341 -9.423)"/><path class="m" d="M44.551,19.2a6.867,6.867,0,0,1,1.055,2.725,6.483,6.483,0,0,1-.191,2.1l-3.15-3.765Z" transform="translate(-14.392 -6.54)"/><path class="l" d="M47.347,22.566c.044.436-.125.81-.379.836s-.495-.307-.539-.743.125-.81.379-.836.495.307.539.743" transform="translate(-15.808 -7.431)"/><path class="i" d="M40.708,21.071c-.072-.015-.066,3.609.985,4.463s2.879.927,3.413.069c.59-.95.028-4.77-1.534-5.581s-2.865,1.05-2.865,1.05" transform="translate(-13.853 -6.748)"/><path class="j" d="M39.328,17.885A5.821,5.821,0,0,0,37.6,20.352c-.667,1.537.657,3.13,1.767,3.763a2.151,2.151,0,0,1,1.2,1.41l.044-.483a1.307,1.307,0,0,0-.172-.817c-.095-.2-.4-.894-.517-1.077-.312-.481-.373-.586-.22-1.043.119-.353-.018-1.13.165-1.711l1.494-.322a3.121,3.121,0,0,0,1.407-.77c1.356-1.564-1.325-3.308-3.44-1.417" transform="translate(-12.741 -5.81)"/><path class="i" d="M40.93,25.025c.184.4.146.807-.086.914s-.567-.129-.752-.526-.145-.807.086-.914.568.129.752.526" transform="translate(-13.613 -8.334)"/><path class="i" d="M25.939,7.856c.169.7.476,1.8.476,1.8-.024.3-.114,1.565-.22,3.111l2.273-.909a24.654,24.654,0,0,1,.074-2.674c.086-.131.23.032.927-.965a1.95,1.95,0,0,0,.238-.8s.042-.633-.1-.692a.3.3,0,0,0-.357.145c-.052.109-.038.364-.09.474a.787.787,0,0,1-.518.234,8.455,8.455,0,0,1,.017-1.872s.077-.53.117-.7c.033-.147.168-.58.168-.58s.158-.627-.038-.675c-.115-.028-.408.481-.608,1.023a11.007,11.007,0,0,1-.4,1.193c-.146-.02-.069-1.043-.069-1.043a3.3,3.3,0,0,0,.141-.689c.137-.271.227-.774-.013-.815a4.153,4.153,0,0,0-.361.631s-.125.449-.2.659a12.306,12.306,0,0,0-.214,1.213c-.055.215-.106.127-.129.135a5.578,5.578,0,0,1,.049-.7,4.1,4.1,0,0,1,.051-.675,4.78,4.78,0,0,0,.1-.712c.04-.528-.293-.474-.409.009-.044.184-.09.385-.136.589-.179.793-.174,1.557-.26,1.563a5.8,5.8,0,0,1-.038-1.382s-.17-.77-.34-.055A6.2,6.2,0,0,0,25.9,6.233a5.992,5.992,0,0,0,.042,1.624" transform="translate(-8.804 -1.164)"/><path class="e" d="M36.124,26.015a18.679,18.679,0,0,1-3.707-.483c-.462-.208-4.252-3.263-4.252-3.263l.042-8.178-2.666-.2s-1.382,9.039-.9,10.029c.495,1.022,6.043,5.228,7.153,7.054.638,1.052,1.972,15.353,2.174,15.483,1.435.747,5.869,1.493,5.764,1.04a165.024,165.024,0,0,1-3.606-21.478" transform="translate(-8.355 -4.729)"/><path class="a" d="M66.369,8.866A8.866,8.866,0,1,1,57.5,0a8.866,8.866,0,0,1,8.865,8.866" transform="translate(-16.562 0)"/><path class="g" d="M65.68,9.6a7.44,7.44,0,1,1-7.44-7.44A7.44,7.44,0,0,1,65.68,9.6" transform="translate(-17.299 -0.737)"/><path class="i" d="M61.737,25.866s.82-.352,1.04-.425.923-.2.923-.2,1.091-1.122,1.37-1.151-.638,1.224-.638,1.224l-.381.366s.615-.528.732-.6,1.04-1.405,1.275-1.318-.4,1.025-.7,1.523-1.714.806-1.714.806Z" transform="translate(-21.023 -8.088)"/><path class="n" d="M61.718,13.889a.58.58,0,0,1-.418.7,3.52,3.52,0,0,1-1.731.009l-.479.809a.6.6,0,0,1-1.08-.508.537.537,0,0,1,.058-.1l.4-.681a2.965,2.965,0,0,1-.439-.342l-.439.741a.6.6,0,0,1-1.08-.508.635.635,0,0,1,.058-.1l.682-1.149a3.41,3.41,0,0,1-.277-.739,3.551,3.551,0,0,1,2.56-4.318,3.729,3.729,0,0,1,.781-.112L61,6.445a.6.6,0,0,1,1.022.606l-.441.743a4.86,4.86,0,0,1,.51.22l.406-.685a.6.6,0,0,1,1.022.606l-.483.815a3.479,3.479,0,0,1,.823,1.523.58.58,0,0,1-1.124.287,2.42,2.42,0,0,0-.5-.971,2.488,2.488,0,0,0-.6-.492l-.024-.015a2.39,2.39,0,0,0-2.439,4.111l.024.015a2.542,2.542,0,0,0,.718.287,2.357,2.357,0,0,0,1.093-.026.586.586,0,0,1,.7.421" transform="translate(-19.224 -2.111)"/><path class="n" d="M25.915,83.54a.579.579,0,0,1,.479.663,3.507,3.507,0,0,1-.681,1.587l.549.76a.595.595,0,1,1-.894.785.614.614,0,0,1-.067-.092l-.462-.64a2.919,2.919,0,0,1-.487.264l.5.7a.595.595,0,0,1-.894.784.644.644,0,0,1-.067-.091l-.78-1.08a3.485,3.485,0,0,1-.786-.041A3.541,3.541,0,0,1,19.4,83.08a3.688,3.688,0,0,1,.208-.759l-.784-1.086a.595.595,0,0,1,.96-.694l.5.7a4.882,4.882,0,0,1,.4-.379l-.465-.644a.595.595,0,0,1,.96-.693l.553.766a3.465,3.465,0,0,1,1.72-.146.578.578,0,0,1-.184,1.142,2.4,2.4,0,0,0-1.087.072,2.465,2.465,0,0,0-.687.349l-.023.016a2.383,2.383,0,0,0,2.79,3.864l.022-.016a2.528,2.528,0,0,0,.548-.542,2.35,2.35,0,0,0,.41-1.01.586.586,0,0,1,.665-.476" transform="translate(-6.382 -27.01)"/><path class="n" d="M86.01,86.965a.581.581,0,0,1-.419.7,3.52,3.52,0,0,1-1.731.009l-.479.809a.6.6,0,1,1-1.022-.606l.4-.681a2.86,2.86,0,0,1-.439-.342l-.44.742a.6.6,0,0,1-1.08-.508.688.688,0,0,1,.057-.1l.682-1.149a3.423,3.423,0,0,1-.277-.739,3.55,3.55,0,0,1,2.56-4.318,3.729,3.729,0,0,1,.782-.112l.685-1.155a.6.6,0,0,1,1.022.606l-.44.743a4.977,4.977,0,0,1,.51.22l.406-.685a.6.6,0,0,1,1.022.606l-.483.816a3.474,3.474,0,0,1,.822,1.523.58.58,0,0,1-1.123.287,2.421,2.421,0,0,0-.5-.971,2.469,2.469,0,0,0-.6-.492l-.024-.015a2.39,2.39,0,1,0-2.438,4.111l.024.015a2.554,2.554,0,0,0,.718.287,2.363,2.363,0,0,0,1.093-.026.587.587,0,0,1,.7.421" transform="translate(-27.496 -26.995)"/></g></svg>