<svg xmlns="http://www.w3.org/2000/svg" width="306" height="899.986" viewBox="0 0 306 899.986"><defs><style>.a{fill:#ff0144;}.b{fill:#cc0136;}.c,.h{fill:#ff4575;}.d{fill:#ff799d;}.e{fill:#ffafc4;}.f,.i{fill:#ffd7e1;}.g,.k{fill:none;}.g{stroke:#ffafc4;stroke-linecap:round;stroke-width:2px;}.h,.i{stroke:#800022;}.j{stroke:none;}</style></defs><g transform="translate(-530 -6802)"><g transform="translate(675.045 7337.141)"><path class="a" d="M233.986,538.374V663.522l-7.6-6.239-7.6,6.239V538.374l7.6-6.241Z" transform="translate(-218.786 -532.133)"/></g><g transform="translate(675 7470.61)"><path class="b" d="M233.986,538.374V763.509l-7.6-6.239-7.6,6.239V538.374l7.6-6.241Z" transform="translate(-218.786 -532.133)"/></g><g transform="translate(675.045 7203.669)"><path class="c" d="M233.986,432.237V557.383l-7.6-6.24-7.6,6.24V432.237l7.6-6.241Z" transform="translate(-218.786 -425.996)"/></g><g transform="translate(675.045 7068.941)"><path class="d" d="M233.986,326.1V451.247l-7.6-6.239-7.6,6.239V326.1l7.6-6.24Z" transform="translate(-218.786 -319.859)"/></g><g transform="translate(675.045 6935.47)"><path class="e" d="M233.986,219.993V345.141l-7.6-6.239-7.6,6.239V219.993l7.6-6.239Z" transform="translate(-218.786 -213.754)"/></g><g transform="translate(675.045 6802)"><path class="f" d="M233.986,113.821V238.969l-7.6-6.239-7.6,6.239V113.821l7.6-6.239Z" transform="translate(-218.786 -107.582)"/></g><g transform="translate(0 80)"><path class="g" d="M2863.039,6373.209h147.41" transform="translate(-2180 415)"/><g class="h" transform="translate(824 6782)"><circle class="j" cx="6" cy="6" r="6"/><circle class="k" cx="6" cy="6" r="5.5"/></g><g class="i" transform="translate(677 6782)"><circle class="j" cx="6" cy="6" r="6"/><circle class="k" cx="6" cy="6" r="5.5"/></g></g><g transform="translate(0 349)"><path class="g" d="M2863.039,6373.209h147.41" transform="translate(-2180 415)"/><g class="h" transform="translate(824 6782)"><circle class="j" cx="6" cy="6" r="6"/><circle class="k" cx="6" cy="6" r="5.5"/></g><g class="i" transform="translate(677 6782)"><circle class="j" cx="6" cy="6" r="6"/><circle class="k" cx="6" cy="6" r="5.5"/></g></g><g transform="translate(0 618)"><path class="g" d="M2863.039,6373.209h147.41" transform="translate(-2180 415)"/><g class="h" transform="translate(824 6782)"><circle class="j" cx="6" cy="6" r="6"/><circle class="k" cx="6" cy="6" r="5.5"/></g><g class="i" transform="translate(677 6782)"><circle class="j" cx="6" cy="6" r="6"/><circle class="k" cx="6" cy="6" r="5.5"/></g></g><g transform="translate(530 6997)"><path class="g" d="M3010.448,6373.209h-147.41" transform="translate(-2857.487 -6367)"/><g class="h"><circle class="j" cx="6" cy="6" r="6"/><circle class="k" cx="6" cy="6" r="5.5"/></g><g class="i" transform="translate(147)"><circle class="j" cx="6" cy="6" r="6"/><circle class="k" cx="6" cy="6" r="5.5"/></g></g><g transform="translate(530 7266)"><path class="g" d="M3010.448,6373.209h-147.41" transform="translate(-2857.487 -6367)"/><g class="h"><circle class="j" cx="6" cy="6" r="6"/><circle class="k" cx="6" cy="6" r="5.5"/></g><g class="i" transform="translate(147)"><circle class="j" cx="6" cy="6" r="6"/><circle class="k" cx="6" cy="6" r="5.5"/></g></g><g transform="translate(530 7535)"><path class="g" d="M3010.448,6373.209h-147.41" transform="translate(-2857.487 -6367)"/><g class="h"><circle class="j" cx="6" cy="6" r="6"/><circle class="k" cx="6" cy="6" r="5.5"/></g><g class="i" transform="translate(147)"><circle class="j" cx="6" cy="6" r="6"/><circle class="k" cx="6" cy="6" r="5.5"/></g></g></g></svg>