<svg xmlns="http://www.w3.org/2000/svg" xmlns:xlink="http://www.w3.org/1999/xlink" width="101.101" height="80" viewBox="0 0 101.101 80"><defs><style>.a{fill:none;}.b{clip-path:url(#a);}.c{fill:#550012;}.d{fill:#439557;}.e{fill:#cb2b37;}.f{fill:#f2acc2;}.g{fill:#7f1723;}.h{fill:#c8f2dc;}.i{fill:#bf7441;}.j{fill:#d8c1a7;}.k{fill:#65da8d;}.l{fill:#e9b58a;}.m{fill:#d59b6f;}.n{fill:#fff;}.o{fill:#ebf1f6;}</style><clipPath id="a"><rect class="a" width="101.101" height="80"/></clipPath></defs><g transform="translate(-396.494 -416.601)"><g transform="translate(396.494 416.601)"><g transform="translate(0 0)"><g class="b"><g transform="translate(0.634 1.655)"><path class="c" d="M409.063,494.881c-14.593-6.234,20.911-60.4,39.641-62.59s50.22,37.7,39.807,62.714c-5.871,14.107-25.886,14.607-42.185,4.884-13.777-8.217-29.432-1.662-37.263-5.008" transform="translate(-405.63 -428.153)"/><path class="c" d="M498.241,434.825c-1.419-8.628-20.592-8.118-27.441-3.227s7.135,18.012,14.409,18.508,14.24-7.926,13.03-15.282" transform="translate(-406.602 -428.09)"/><path class="d" d="M489.164,461.576l-9.377,3.1,1.883,1.566-8.117,8.493-7.112-6.106-28.387,23.264.249,0h7.073l21-17.207,7.5,6.438,11.374-11.906h0l2.031,1.694Z" transform="translate(-403.679 -427.516)"/><path class="d" d="M489.323,502.033H406.241a.129.129,0,1,1-.017-.258h83.1a.129.129,0,0,1,0,.258" transform="translate(-397.669 -435.078)"/><path class="e" d="M438.062,482.937l-2.2,14.659-19.541-2.942-8.235-1.24,2.208-14.657,15.373,2.313Z" transform="translate(-398.041 -430.748)"/><path class="f" d="M436.568,484.759l-1.711,11.38-24.965-3.754,1.712-11.38Zm-1.849,9.931,1.292-8.582a1.066,1.066,0,0,0-.894-1.214h0l-22.141-3.333a1.086,1.086,0,0,0-1.236.913l-1.288,8.549a1.077,1.077,0,0,0,.905,1.223l22.157,3.335a1.06,1.06,0,0,0,1.207-.89v0" transform="translate(-398.381 -431.171)"/><path class="f" d="M425.142,492.669a3.1,3.1,0,1,1,3.522-2.6h0a3.1,3.1,0,0,1-3.522,2.6" transform="translate(-400.754 -432.207)"/><path class="e" d="M440.493,478.887l-11.625,9.2-12.257-15.5-5.169-6.53,11.626-9.2,9.643,12.192Z" transform="translate(-398.673 -426.629)"/><path class="f" d="M438.673,479.117l-9.022,7.139-15.663-19.8,9.025-7.139Zm-8.132,5.988,6.807-5.384a1.067,1.067,0,0,0,.175-1.5l-13.893-17.562a1.085,1.085,0,0,0-1.526-.178l-6.779,5.363a1.077,1.077,0,0,0-.176,1.513l13.9,17.571a1.06,1.06,0,0,0,1.491.175h0" transform="translate(-399.152 -427.091)"/><path class="f" d="M426.045,477.112a3.1,3.1,0,1,1,4.349.507h0a3.1,3.1,0,0,1-4.349-.507" transform="translate(-401.294 -429.495)"/><path class="g" d="M478.17,463.826a.359.359,0,0,1,.045-.071.3.3,0,0,1,.043-.043l.064-.066.017.014a2.086,2.086,0,0,1,1.7.46c.835.545,1.37,1.294,1.215,1.693l.023.018-.093.093-.014.014h0a.363.363,0,0,1-.08.055h0a2.058,2.058,0,0,1-1.711-.455c-.85-.555-1.392-1.325-1.207-1.716" transform="translate(-411.218 -427.897)"/><path class="e" d="M480.163,464c-.85-.555-1.689-.687-1.872-.295s.356,1.16,1.206,1.716,1.689.687,1.872.295-.356-1.159-1.206-1.716" transform="translate(-411.24 -427.874)"/><path class="g" d="M479.589,465.345a3.353,3.353,0,0,1-.863-.791c-.206-.284-.276-.532-.2-.7a.322.322,0,0,1,.221-.175,2.044,2.044,0,0,1,1.415.442,3.355,3.355,0,0,1,.864.792c.206.283.276.531.2.7a.32.32,0,0,1-.221.174.694.694,0,0,1-.188.025,2.506,2.506,0,0,1-1.228-.464m-.828-1.6a.261.261,0,0,0-.179.14c-.066.144,0,.376.193.637a3.317,3.317,0,0,0,.848.773,2.468,2.468,0,0,0,1.2.453.636.636,0,0,0,.166-.02.267.267,0,0,0,.183-.141c.066-.144,0-.375-.194-.636a3.283,3.283,0,0,0-.847-.776,2.47,2.47,0,0,0-1.2-.453.572.572,0,0,0-.166.022" transform="translate(-411.285 -427.912)"/><path class="g" d="M484.5,439.28a.307.307,0,0,1,.032-.049h0a.212.212,0,0,1,.031-.03l.045-.048.012.009a1.489,1.489,0,0,1,1.209.327c.592.386.973.92.863,1.2l.017.012-.066.066-.01.01h0a.274.274,0,0,1-.055.04h0a1.461,1.461,0,0,1-1.215-.323c-.6-.394-.987-.939-.857-1.218" transform="translate(-412.41 -423.297)"/><path class="e" d="M485.91,439.4c-.6-.394-1.2-.488-1.329-.209s.253.824.857,1.219,1.2.487,1.329.208-.253-.824-.857-1.217" transform="translate(-412.425 -423.275)"/><path class="g" d="M485.5,440.353a2.4,2.4,0,0,1-.613-.561c-.146-.2-.2-.378-.142-.5a.234.234,0,0,1,.155-.124,1.455,1.455,0,0,1,1.005.313,2.378,2.378,0,0,1,.614.561c.146.2.2.378.141.5a.229.229,0,0,1-.155.123.462.462,0,0,1-.133.017,1.77,1.77,0,0,1-.872-.331m-.588-1.138a.189.189,0,0,0-.128.1c-.046.1,0,.266.138.451a2.342,2.342,0,0,0,.6.553,1.755,1.755,0,0,0,.849.322.421.421,0,0,0,.119-.015.187.187,0,0,0,.127-.1c.047-.1,0-.266-.137-.451a2.363,2.363,0,0,0-.6-.552,1.744,1.744,0,0,0-.849-.321.454.454,0,0,0-.119.014" transform="translate(-412.457 -423.302)"/><path class="g" d="M486.642,458.751a.227.227,0,0,0-.032-.051.222.222,0,0,0-.031-.032l-.046-.048-.014.009a1.532,1.532,0,0,0-1.245.336c-.607.4-1,.947-.888,1.238l-.016.014.067.067.011.011h0a.254.254,0,0,0,.058.041h0a1.506,1.506,0,0,0,1.251-.331c.622-.405,1.017-.967.884-1.254" transform="translate(-412.389 -426.958)"/><path class="e" d="M485.184,458.872c.621-.405,1.234-.5,1.368-.215s-.261.848-.883,1.254-1.233.5-1.368.214.261-.848.883-1.254" transform="translate(-412.372 -426.936)"/><path class="g" d="M484.772,460.2a.455.455,0,0,1-.136-.018.239.239,0,0,1-.159-.127c-.055-.123,0-.3.147-.511a2.449,2.449,0,0,1,.629-.577,1.5,1.5,0,0,1,1.036-.322.234.234,0,0,1,.159.127c.055.123,0,.3-.146.512a2.483,2.483,0,0,1-.631.577,1.829,1.829,0,0,1-.9.339m1.38-1.527a1.8,1.8,0,0,0-.874.331,2.4,2.4,0,0,0-.619.567c-.138.19-.189.36-.141.464a.19.19,0,0,0,.131.1.437.437,0,0,0,.122.015,1.808,1.808,0,0,0,.875-.331,2.376,2.376,0,0,0,.618-.567c.139-.19.189-.36.142-.465a.192.192,0,0,0-.131-.1.422.422,0,0,0-.123-.016" transform="translate(-412.406 -426.964)"/><path class="g" d="M478.5,445.048a.13.13,0,0,1,.019-.031.108.108,0,0,1,.019-.019l.028-.029.007.006a.93.93,0,0,1,.758.2c.371.243.607.576.54.753l.011.008-.042.041-.006.006h0a.153.153,0,0,1-.035.025h0a.917.917,0,0,1-.762-.2c-.378-.247-.618-.588-.537-.763" transform="translate(-411.283 -424.391)"/><path class="e" d="M479.385,445.121c-.378-.247-.75-.305-.832-.131s.159.517.537.763.75.3.832.13-.158-.516-.537-.762" transform="translate(-411.293 -424.378)"/><path class="g" d="M479.13,445.721a1.455,1.455,0,0,1-.383-.352c-.092-.125-.123-.235-.089-.31a.143.143,0,0,1,.1-.077.911.911,0,0,1,.628.2,1.452,1.452,0,0,1,.386.352c.092.125.124.237.09.311a.145.145,0,0,1-.1.076.27.27,0,0,1-.084.011,1.112,1.112,0,0,1-.546-.206m-.368-.713a.119.119,0,0,0-.08.063c-.029.063,0,.166.087.283a1.454,1.454,0,0,0,.377.345,1.1,1.1,0,0,0,.532.2.288.288,0,0,0,.074-.01.117.117,0,0,0,.08-.063c.029-.063,0-.166-.086-.283a1.482,1.482,0,0,0-.377-.345,1.1,1.1,0,0,0-.533-.2.23.23,0,0,0-.074.01" transform="translate(-411.313 -424.395)"/><path class="g" d="M443.1,459.7a.278.278,0,0,0-.037-.058h0a.366.366,0,0,0-.035-.037l-.055-.055-.014.011a1.765,1.765,0,0,0-1.432.386c-.7.459-1.151,1.089-1.021,1.424l-.019.015.078.077.011.011h0a.322.322,0,0,0,.067.047h0a1.729,1.729,0,0,0,1.44-.382c.715-.468,1.169-1.113,1.015-1.443" transform="translate(-404.135 -427.133)"/><path class="e" d="M441.421,459.842c.714-.467,1.418-.577,1.573-.247s-.3.976-1.013,1.441-1.418.577-1.573.248.3-.975,1.015-1.442" transform="translate(-404.115 -427.108)"/><path class="g" d="M440.947,461.364a.55.55,0,0,1-.158-.02.271.271,0,0,1-.183-.147c-.064-.14,0-.348.169-.586a2.778,2.778,0,0,1,.725-.663,1.724,1.724,0,0,1,1.19-.37.278.278,0,0,1,.183.146c.065.141.006.349-.166.588a2.836,2.836,0,0,1-.726.662,2.1,2.1,0,0,1-1.033.391m1.583-1.756a2.054,2.054,0,0,0-1.005.382,2.722,2.722,0,0,0-.712.651c-.159.221-.218.413-.162.534a.22.22,0,0,0,.15.119.524.524,0,0,0,.141.017,2.077,2.077,0,0,0,1.005-.381,2.746,2.746,0,0,0,.711-.651c.159-.221.221-.414.166-.535a.22.22,0,0,0-.15-.119.518.518,0,0,0-.141-.017" transform="translate(-404.154 -427.14)"/><path class="g" d="M434.025,448.69a.152.152,0,0,0-.022-.034h0a.13.13,0,0,0-.022-.02l-.03-.034-.009.006a1.027,1.027,0,0,0-.834.225c-.408.267-.671.634-.594.828l-.011.009.045.045.007.006h0a.194.194,0,0,0,.04.028,1.008,1.008,0,0,0,.84-.221c.416-.272.68-.648.589-.84" transform="translate(-402.634 -425.074)"/><path class="e" d="M433.049,448.769c.417-.271.829-.336.917-.144s-.175.568-.589.839-.828.336-.917.145.175-.568.59-.84" transform="translate(-402.623 -425.06)"/><path class="g" d="M432.771,449.659a.38.38,0,0,1-.091-.011.163.163,0,0,1-.11-.086c-.037-.082,0-.2.1-.342a1.654,1.654,0,0,1,.423-.386,1,1,0,0,1,.693-.214.155.155,0,0,1,.107.084c.037.082,0,.2-.1.342a1.64,1.64,0,0,1-.423.387,1.228,1.228,0,0,1-.6.227m.925-1.022a1.215,1.215,0,0,0-.586.221,1.635,1.635,0,0,0-.414.38c-.093.127-.127.24-.094.311a.129.129,0,0,0,.087.069.311.311,0,0,0,.082.009,1.2,1.2,0,0,0,.586-.221,1.589,1.589,0,0,0,.414-.379c.093-.128.128-.24.094-.311a.123.123,0,0,0-.087-.069.311.311,0,0,0-.082-.011" transform="translate(-402.644 -425.079)"/><path class="g" d="M442.791,451.883a.183.183,0,0,1,.028-.043.3.3,0,0,1,.027-.028l.041-.04.011.008a1.3,1.3,0,0,1,1.064.287c.521.341.857.809.759,1.06l.015.01-.055.055-.009.009h0a.26.26,0,0,1-.05.035h0a1.282,1.282,0,0,1-1.071-.285c-.532-.346-.869-.828-.755-1.072" transform="translate(-404.566 -425.67)"/><path class="e" d="M444.038,451.986c-.532-.347-1.056-.43-1.171-.184s.221.726.753,1.073,1.056.43,1.171.183-.221-.724-.753-1.072" transform="translate(-404.579 -425.651)"/><path class="g" d="M443.678,452.828a2.084,2.084,0,0,1-.539-.494c-.129-.178-.173-.331-.125-.437a.2.2,0,0,1,.136-.11,1.287,1.287,0,0,1,.884.276,2.074,2.074,0,0,1,.54.494c.127.177.173.331.124.437a.2.2,0,0,1-.136.11.406.406,0,0,1-.117.015,1.567,1.567,0,0,1-.768-.29m-.517-1a.163.163,0,0,0-.11.088c-.041.09,0,.235.122.4a2.046,2.046,0,0,0,.529.485,1.54,1.54,0,0,0,.749.283.378.378,0,0,0,.1-.013.167.167,0,0,0,.11-.088c.041-.09,0-.235-.121-.4a2.061,2.061,0,0,0-.529-.485,1.544,1.544,0,0,0-.749-.284.411.411,0,0,0-.1.014" transform="translate(-404.608 -425.675)"/><path class="e" d="M464.942,500.7v.643a.22.22,0,0,1-.051.138.285.285,0,0,1-.138.092.264.264,0,0,1-.055.014.327.327,0,0,1-.055,0H452.451a.279.279,0,0,1-.295-.235v-.668a.279.279,0,0,1,.295-.235h12.2a.312.312,0,0,1,.055,0,.213.213,0,0,1,.055.012.289.289,0,0,1,.139.092.216.216,0,0,1,.05.139" transform="translate(-406.331 -434.829)"/><path class="g" d="M458.951,501.592h-6.534a.257.257,0,0,1-.263-.235v-.667a.258.258,0,0,1,.263-.236h5.732a2,2,0,0,0,.8,1.138" transform="translate(-406.33 -434.829)"/><rect class="g" width="0.139" height="1.138" transform="translate(56.988 65.626)"/><rect class="g" width="0.139" height="1.138" transform="translate(56.518 65.626)"/><rect class="g" width="0.139" height="1.138" transform="translate(55.956 65.626)"/><rect class="g" width="0.139" height="1.138" transform="translate(55.093 65.626)"/><rect class="g" width="0.139" height="1.138" transform="translate(54.181 65.626)"/><rect class="g" width="0.139" height="1.138" transform="translate(52.783 65.626)"/><rect class="g" width="0.139" height="1.138" transform="translate(51.473 65.626)"/><rect class="g" width="0.139" height="1.138" transform="translate(50.304 65.626)"/><rect class="g" width="0.139" height="1.138" transform="translate(57.434 65.626)"/><rect class="g" width="0.139" height="1.138" transform="translate(57.729 65.626)"/><rect class="g" width="0.139" height="1.138" transform="translate(58.015 65.626)"/><path class="g" d="M467.573,500.459v1.129a.363.363,0,0,1-.052,0h-.086v-1.137h.083a.277.277,0,0,1,.052,0" transform="translate(-409.205 -434.829)"/><path class="g" d="M467.809,500.568v.92a.3.3,0,0,1-.139.093v-1.1a.289.289,0,0,1,.139.093" transform="translate(-409.249 -434.833)"/><path class="e" d="M463.334,499.3v.642a.216.216,0,0,1-.05.139.3.3,0,0,1-.138.093.351.351,0,0,1-.055.014.393.393,0,0,1-.052,0H450.845a.279.279,0,0,1-.295-.235v-.669a.278.278,0,0,1,.295-.235h12.249a.216.216,0,0,1,.055.012h.014l.016.006.008,0h.007l.015.008.015.009.011.008h0l.007.006a.228.228,0,0,1,.022.019l.006.006,0,.006.012.013a.227.227,0,0,1,.05.139" transform="translate(-406.029 -434.565)"/><path class="g" d="M457.346,500.191h-6.534a.259.259,0,0,1-.264-.235v-.668a.257.257,0,0,1,.264-.235h5.731l.008.028a2,2,0,0,0,.795,1.112" transform="translate(-406.028 -434.566)"/><rect class="g" width="0.139" height="1.139" transform="translate(55.684 64.487)"/><rect class="g" width="0.139" height="1.139" transform="translate(55.215 64.487)"/><rect class="g" width="0.139" height="1.139" transform="translate(54.652 64.487)"/><rect class="g" width="0.139" height="1.139" transform="translate(53.789 64.487)"/><rect class="g" width="0.139" height="1.139" transform="translate(52.877 64.487)"/><rect class="g" width="0.139" height="1.139" transform="translate(51.479 64.487)"/><rect class="g" width="0.139" height="1.139" transform="translate(50.17 64.487)"/><rect class="g" width="0.139" height="1.139" transform="translate(49.001 64.487)"/><rect class="g" width="0.139" height="1.139" transform="translate(56.13 64.487)"/><rect class="g" width="0.139" height="1.139" transform="translate(56.426 64.487)"/><rect class="g" width="0.139" height="1.139" transform="translate(56.71 64.487)"/><path class="g" d="M465.968,499.056v1.131a.372.372,0,0,1-.052,0h-.087v-1.139h.084a.287.287,0,0,1,.052,0" transform="translate(-408.903 -434.565)"/><path class="g" d="M466.2,499.166v.92a.3.3,0,0,1-.138.093v-1.1a.294.294,0,0,1,.138.093" transform="translate(-408.947 -434.57)"/><path class="e" d="M464.111,497.932v.642a.222.222,0,0,1-.051.139.292.292,0,0,1-.138.093.346.346,0,0,1-.055.014.315.315,0,0,1-.055,0H451.618a.34.34,0,0,1-.136-.028.257.257,0,0,1-.158-.2v-.68a.28.28,0,0,1,.295-.235h12.194a.44.44,0,0,1,.055,0,.216.216,0,0,1,.055.012.278.278,0,0,1,.138.093.22.22,0,0,1,.051.138" transform="translate(-406.174 -434.308)"/><path class="g" d="M458.122,498.823h-6.534a.277.277,0,0,1-.122-.028.249.249,0,0,1-.14-.2v-.679a.259.259,0,0,1,.263-.235h5.731a2,2,0,0,0,.762,1.112Z" transform="translate(-406.175 -434.308)"/><rect class="g" width="0.139" height="1.139" transform="translate(56.314 63.376)"/><rect class="g" width="0.139" height="1.139" transform="translate(55.845 63.376)"/><rect class="g" width="0.139" height="1.139" transform="translate(55.282 63.376)"/><rect class="g" width="0.139" height="1.139" transform="translate(54.419 63.376)"/><rect class="g" width="0.139" height="1.139" transform="translate(53.507 63.376)"/><rect class="g" width="0.139" height="1.139" transform="translate(52.109 63.376)"/><rect class="g" width="0.139" height="1.139" transform="translate(50.799 63.376)"/><rect class="g" width="0.139" height="1.139" transform="translate(49.631 63.376)"/><rect class="g" width="0.139" height="1.139" transform="translate(56.76 63.376)"/><rect class="g" width="0.138" height="1.139" transform="translate(57.056 63.376)"/><rect class="g" width="0.139" height="1.139" transform="translate(57.341 63.376)"/><path class="g" d="M466.742,497.687v1.131a.354.354,0,0,1-.052,0H466.6v-1.138h.086a.281.281,0,0,1,.052,0" transform="translate(-409.048 -434.308)"/><path class="g" d="M466.982,497.8v.92a.3.3,0,0,1-.138.093v-1.1a.3.3,0,0,1,.138.093" transform="translate(-409.093 -434.312)"/><path class="e" d="M464.471,496.53v.643a.216.216,0,0,1-.05.139.288.288,0,0,1-.138.092.325.325,0,0,1-.055.014.321.321,0,0,1-.055,0H451.979a.278.278,0,0,1-.295-.235v-.669a.271.271,0,0,1,.26-.232h12.231a.251.251,0,0,1,.055,0,.3.3,0,0,1,.192.1.221.221,0,0,1,.051.138" transform="translate(-406.242 -434.045)"/><path class="g" d="M458.481,497.421h-6.533a.256.256,0,0,1-.263-.235v-.668a.254.254,0,0,1,.232-.233h5.763a2,2,0,0,0,.8,1.137" transform="translate(-406.242 -434.045)"/><rect class="g" width="0.139" height="1.139" transform="translate(56.606 62.237)"/><rect class="g" width="0.139" height="1.139" transform="translate(56.136 62.237)"/><rect class="g" width="0.139" height="1.139" transform="translate(55.574 62.237)"/><rect class="g" width="0.138" height="1.139" transform="translate(54.712 62.237)"/><rect class="g" width="0.139" height="1.139" transform="translate(53.799 62.237)"/><rect class="g" width="0.139" height="1.139" transform="translate(52.401 62.237)"/><rect class="g" width="0.138" height="1.139" transform="translate(51.093 62.237)"/><rect class="g" width="0.138" height="1.139" transform="translate(49.924 62.237)"/><rect class="g" width="0.139" height="1.139" transform="translate(57.052 62.237)"/><rect class="g" width="0.139" height="1.139" transform="translate(57.348 62.237)"/><rect class="g" width="0.139" height="1.139" transform="translate(57.633 62.237)"/><path class="g" d="M467.1,496.285v1.131a.409.409,0,0,1-.055,0h-.084v-1.139h.086a.409.409,0,0,1,.055,0" transform="translate(-409.116 -434.044)"/><path class="g" d="M467.339,496.4v.92a.3.3,0,0,1-.138.093v-1.1a.3.3,0,0,1,.138.093" transform="translate(-409.161 -434.049)"/><path class="e" d="M463.365,495.13v.642a.22.22,0,0,1-.05.139.323.323,0,0,1-.193.106H450.873a.279.279,0,0,1-.294-.231v-.678a.268.268,0,0,1,.221-.218h.009a.334.334,0,0,1,.064-.006h12.249a.3.3,0,0,1,.193.106.219.219,0,0,1,.05.138" transform="translate(-406.034 -433.781)"/><path class="g" d="M457.377,496.02h-6.534a.256.256,0,0,1-.263-.235v-.678a.253.253,0,0,1,.2-.221h.011a.231.231,0,0,1,.047,0h5.733v.008a1.989,1.989,0,0,0,.8,1.129h0" transform="translate(-406.034 -433.781)"/><rect class="g" width="0.139" height="1.139" transform="translate(55.709 61.1)"/><rect class="g" width="0.139" height="1.139" transform="translate(55.24 61.1)"/><rect class="g" width="0.139" height="1.139" transform="translate(54.677 61.1)"/><rect class="g" width="0.139" height="1.139" transform="translate(53.815 61.1)"/><rect class="g" width="0.139" height="1.139" transform="translate(52.902 61.1)"/><rect class="g" width="0.139" height="1.139" transform="translate(51.504 61.1)"/><rect class="g" width="0.139" height="1.139" transform="translate(50.195 61.1)"/><rect class="g" width="0.139" height="1.139" transform="translate(49.026 61.1)"/><rect class="g" width="0.139" height="1.139" transform="translate(56.156 61.1)"/><rect class="g" width="0.139" height="1.139" transform="translate(56.451 61.1)"/><rect class="g" width="0.139" height="1.139" transform="translate(56.735 61.1)"/><path class="g" d="M466,494.885v1.131a.272.272,0,0,1-.051,0h-.088v-1.138h.088a.37.37,0,0,1,.051,0" transform="translate(-408.908 -433.781)"/><path class="g" d="M466.234,494.995v.92a.3.3,0,0,1-.138.093v-1.1a.293.293,0,0,1,.138.093" transform="translate(-408.953 -433.785)"/><path class="e" d="M463.334,493.737v.643a.218.218,0,0,1-.05.139.3.3,0,0,1-.138.092.256.256,0,0,1-.043.011h-.011a.382.382,0,0,1-.052,0H450.792a.268.268,0,0,1-.243-.231v-.671a.279.279,0,0,1,.295-.235h12.249a.255.255,0,0,1,.055.012h.015l.015.006.015.007.014.007.015.01.011.008h0l.006,0a.171.171,0,0,1,.022.019l.006.006.006.006.011.013a.216.216,0,0,1,.05.139" transform="translate(-406.029 -433.519)"/><path class="g" d="M457.346,494.628H450.78a.256.256,0,0,1-.231-.233v-.668a.258.258,0,0,1,.263-.235h5.731l.008.028a1.994,1.994,0,0,0,.783,1.1Z" transform="translate(-406.029 -433.519)"/><rect class="g" width="0.139" height="1.138" transform="translate(55.684 59.97)"/><rect class="g" width="0.139" height="1.138" transform="translate(55.215 59.97)"/><rect class="g" width="0.139" height="1.138" transform="translate(54.652 59.97)"/><rect class="g" width="0.139" height="1.138" transform="translate(53.789 59.97)"/><rect class="g" width="0.139" height="1.138" transform="translate(52.877 59.97)"/><rect class="g" width="0.139" height="1.138" transform="translate(51.479 59.97)"/><rect class="g" width="0.139" height="1.138" transform="translate(50.17 59.97)"/><rect class="g" width="0.139" height="1.138" transform="translate(49.001 59.97)"/><rect class="g" width="0.139" height="1.138" transform="translate(56.13 59.97)"/><rect class="g" width="0.139" height="1.138" transform="translate(56.426 59.97)"/><rect class="g" width="0.139" height="1.138" transform="translate(56.71 59.97)"/><path class="g" d="M465.968,493.493v1.129a.276.276,0,0,1-.052,0h-.087v-1.138h.084a.383.383,0,0,1,.052,0" transform="translate(-408.903 -433.519)"/><path class="g" d="M466.2,493.6v.92a.294.294,0,0,1-.138.093v-1.1a.288.288,0,0,1,.138.093" transform="translate(-408.947 -433.523)"/><path class="e" d="M464.111,492.37v.642a.222.222,0,0,1-.051.139.3.3,0,0,1-.138.093.346.346,0,0,1-.055.014.315.315,0,0,1-.055,0H451.618a.355.355,0,0,1-.136-.028.257.257,0,0,1-.158-.2v-.68a.279.279,0,0,1,.295-.235h12.194a.314.314,0,0,1,.055,0,.32.32,0,0,1,.055.012.284.284,0,0,1,.138.093.215.215,0,0,1,.051.138" transform="translate(-406.174 -433.262)"/><path class="g" d="M458.122,493.26h-6.534a.287.287,0,0,1-.122-.028.248.248,0,0,1-.14-.2v-.68a.258.258,0,0,1,.263-.235h5.731a2,2,0,0,0,.762,1.111Z" transform="translate(-406.175 -433.262)"/><rect class="g" width="0.139" height="1.139" transform="translate(56.314 58.859)"/><rect class="g" width="0.139" height="1.139" transform="translate(55.845 58.859)"/><rect class="g" width="0.139" height="1.139" transform="translate(55.282 58.859)"/><rect class="g" width="0.139" height="1.139" transform="translate(54.419 58.859)"/><rect class="g" width="0.139" height="1.139" transform="translate(53.507 58.859)"/><rect class="g" width="0.139" height="1.139" transform="translate(52.109 58.859)"/><rect class="g" width="0.139" height="1.139" transform="translate(50.799 58.859)"/><rect class="g" width="0.139" height="1.139" transform="translate(49.631 58.859)"/><rect class="g" width="0.139" height="1.139" transform="translate(56.76 58.859)"/><rect class="g" width="0.138" height="1.139" transform="translate(57.056 58.859)"/><rect class="g" width="0.139" height="1.139" transform="translate(57.341 58.859)"/><path class="g" d="M466.742,492.123v1.131a.271.271,0,0,1-.052,0H466.6v-1.134h.086a.275.275,0,0,1,.052,0" transform="translate(-409.048 -433.262)"/><path class="g" d="M466.982,492.235v.92a.3.3,0,0,1-.138.093v-1.1a.3.3,0,0,1,.138.093" transform="translate(-409.093 -433.266)"/><path class="e" d="M465.339,490.968v.642a.225.225,0,0,1-.051.14.322.322,0,0,1-.192.1.431.431,0,0,1-.055,0H452.846a.281.281,0,0,1-.295-.235v-.669a.272.272,0,0,1,.258-.232h12.234a.312.312,0,0,1,.055,0,.305.305,0,0,1,.192.106.212.212,0,0,1,.05.138" transform="translate(-406.405 -432.998)"/><path class="g" d="M459.349,491.859h-6.534a.258.258,0,0,1-.263-.235v-.668a.255.255,0,0,1,.232-.233h5.763a2,2,0,0,0,.8,1.137" transform="translate(-406.405 -432.998)"/><rect class="g" width="0.139" height="1.139" transform="translate(57.31 57.721)"/><rect class="g" width="0.139" height="1.139" transform="translate(56.842 57.721)"/><rect class="g" width="0.139" height="1.139" transform="translate(56.279 57.721)"/><rect class="g" width="0.139" height="1.139" transform="translate(55.416 57.721)"/><rect class="g" width="0.139" height="1.139" transform="translate(54.504 57.721)"/><rect class="g" width="0.139" height="1.139" transform="translate(53.106 57.721)"/><rect class="g" width="0.139" height="1.139" transform="translate(51.797 57.721)"/><rect class="g" width="0.139" height="1.139" transform="translate(50.627 57.721)"/><rect class="g" width="0.139" height="1.139" transform="translate(57.757 57.721)"/><rect class="g" width="0.139" height="1.139" transform="translate(58.052 57.721)"/><rect class="g" width="0.139" height="1.139" transform="translate(58.337 57.721)"/><path class="g" d="M467.97,490.722v1.13a.282.282,0,0,1-.052,0h-.087v-1.138h.087a.282.282,0,0,1,.052,0" transform="translate(-409.279 -432.998)"/><path class="g" d="M468.206,490.833v.922a.29.29,0,0,1-.138.093v-1.1a.29.29,0,0,1,.138.093" transform="translate(-409.324 -433.003)"/><path class="e" d="M463.365,489.566v.642a.22.22,0,0,1-.05.139.289.289,0,0,1-.139.093.325.325,0,0,1-.055.014H450.873a.28.28,0,0,1-.295-.235v-.668a.279.279,0,0,1,.295-.235h12.214a.275.275,0,0,1,.037,0,.313.313,0,0,1,.055.012l.025.01.015.007h0l.015.008h0l.013.009a.151.151,0,0,1,.029.021l.009.008h0l0,0h0l.009.008.012.015a.218.218,0,0,1,.05.138" transform="translate(-406.034 -432.734)"/><path class="g" d="M457.377,490.457h-6.534a.257.257,0,0,1-.263-.235v-.668a.257.257,0,0,1,.263-.236h5.732a.1.1,0,0,0,.007.026,1.99,1.99,0,0,0,.792,1.112h0" transform="translate(-406.034 -432.734)"/><rect class="g" width="0.139" height="1.139" transform="translate(55.709 56.584)"/><rect class="g" width="0.139" height="1.139" transform="translate(55.24 56.584)"/><rect class="g" width="0.139" height="1.139" transform="translate(54.677 56.584)"/><rect class="g" width="0.139" height="1.139" transform="translate(53.815 56.584)"/><rect class="g" width="0.139" height="1.139" transform="translate(52.902 56.584)"/><rect class="g" width="0.139" height="1.139" transform="translate(51.504 56.584)"/><rect class="g" width="0.139" height="1.139" transform="translate(50.195 56.584)"/><rect class="g" width="0.139" height="1.139" transform="translate(49.026 56.584)"/><rect class="g" width="0.139" height="1.139" transform="translate(56.156 56.584)"/><rect class="g" width="0.139" height="1.139" transform="translate(56.451 56.584)"/><rect class="g" width="0.139" height="1.139" transform="translate(56.735 56.584)"/><path class="g" d="M466,489.322v1.131a.361.361,0,0,1-.051,0h-.088v-1.139h.088a.361.361,0,0,1,.051,0" transform="translate(-408.908 -432.734)"/><path class="g" d="M466.234,489.432v.919a.294.294,0,0,1-.138.093v-1.1a.293.293,0,0,1,.138.093" transform="translate(-408.953 -432.739)"/><path class="e" d="M464.471,488.2v.643a.215.215,0,0,1-.05.138.288.288,0,0,1-.138.092.3.3,0,0,1-.11.017H451.979a.316.316,0,0,1-.132-.026.251.251,0,0,1-.162-.2v-.679a.27.27,0,0,1,.259-.233h12.231a.311.311,0,0,1,.055,0,.209.209,0,0,1,.055.012.282.282,0,0,1,.138.093.212.212,0,0,1,.051.138" transform="translate(-406.242 -432.477)"/><path class="g" d="M458.481,489.087h-6.533a.276.276,0,0,1-.117-.026.247.247,0,0,1-.145-.2v-.679a.256.256,0,0,1,.232-.234h5.762a2,2,0,0,0,.764,1.111l.037.026" transform="translate(-406.242 -432.477)"/><rect class="g" width="0.139" height="1.138" transform="translate(56.606 55.472)"/><rect class="g" width="0.139" height="1.138" transform="translate(56.136 55.472)"/><rect class="g" width="0.139" height="1.138" transform="translate(55.574 55.472)"/><rect class="g" width="0.138" height="1.138" transform="translate(54.712 55.472)"/><rect class="g" width="0.139" height="1.138" transform="translate(53.799 55.472)"/><rect class="g" width="0.139" height="1.138" transform="translate(52.401 55.472)"/><rect class="g" width="0.138" height="1.138" transform="translate(51.093 55.472)"/><rect class="g" width="0.138" height="1.138" transform="translate(49.924 55.472)"/><rect class="g" width="0.139" height="1.138" transform="translate(57.052 55.472)"/><rect class="g" width="0.139" height="1.138" transform="translate(57.348 55.472)"/><rect class="g" width="0.139" height="1.138" transform="translate(57.633 55.472)"/><path class="g" d="M467.1,487.953v1.129a.419.419,0,0,1-.055,0h-.084v-1.137h.086a.247.247,0,0,1,.055,0" transform="translate(-409.116 -432.477)"/><path class="g" d="M467.339,488.062v.92a.3.3,0,0,1-.138.093v-1.1a.3.3,0,0,1,.138.093" transform="translate(-409.161 -432.481)"/><path class="e" d="M464.942,486.8v.642a.221.221,0,0,1-.051.139.285.285,0,0,1-.138.092.259.259,0,0,1-.055.013H452.451a.279.279,0,0,1-.295-.235v-.668a.28.28,0,0,1,.295-.232h12.2a.312.312,0,0,1,.055,0,.216.216,0,0,1,.055.012.289.289,0,0,1,.139.093.216.216,0,0,1,.05.139" transform="translate(-406.331 -432.213)"/><path class="g" d="M458.951,487.686h-6.534a.258.258,0,0,1-.263-.235v-.667a.257.257,0,0,1,.263-.235h5.732a2,2,0,0,0,.8,1.137h0" transform="translate(-406.33 -432.214)"/><rect class="g" width="0.139" height="1.138" transform="translate(56.988 54.335)"/><rect class="g" width="0.139" height="1.138" transform="translate(56.518 54.335)"/><rect class="g" width="0.139" height="1.138" transform="translate(55.956 54.335)"/><rect class="g" width="0.139" height="1.138" transform="translate(55.093 54.335)"/><rect class="g" width="0.139" height="1.138" transform="translate(54.181 54.335)"/><rect class="g" width="0.139" height="1.138" transform="translate(52.783 54.335)"/><rect class="g" width="0.139" height="1.138" transform="translate(51.473 54.335)"/><rect class="g" width="0.139" height="1.138" transform="translate(50.304 54.335)"/><rect class="g" width="0.139" height="1.138" transform="translate(57.434 54.335)"/><rect class="g" width="0.138" height="1.138" transform="translate(57.73 54.335)"/><rect class="g" width="0.139" height="1.138" transform="translate(58.015 54.335)"/><path class="g" d="M467.573,486.552v1.13a.276.276,0,0,1-.052,0h-.086v-1.138h.083a.355.355,0,0,1,.052,0" transform="translate(-409.205 -432.213)"/><path class="g" d="M467.809,486.662v.92a.3.3,0,0,1-.139.093v-1.1a.3.3,0,0,1,.139.093" transform="translate(-409.249 -432.218)"/><path class="e" d="M464.161,485.37v.642a.225.225,0,0,1-.05.139.3.3,0,0,1-.138.093.345.345,0,0,1-.055.014.427.427,0,0,1-.055,0H451.668a.278.278,0,0,1-.295-.235v-.669a.277.277,0,0,1,.295-.235h12.2a.42.42,0,0,1,.055,0,.321.321,0,0,1,.055.012.294.294,0,0,1,.138.093.223.223,0,0,1,.051.139" transform="translate(-406.184 -431.945)"/><path class="g" d="M458.169,486.261h-6.534a.257.257,0,0,1-.262-.235v-.668a.257.257,0,0,1,.262-.235h5.734a2,2,0,0,0,.8,1.139" transform="translate(-406.184 -431.945)"/><rect class="g" width="0.139" height="1.139" transform="translate(56.353 53.177)"/><rect class="g" width="0.139" height="1.139" transform="translate(55.884 53.177)"/><rect class="g" width="0.139" height="1.139" transform="translate(55.321 53.177)"/><rect class="g" width="0.138" height="1.139" transform="translate(54.459 53.177)"/><rect class="g" width="0.139" height="1.139" transform="translate(53.547 53.177)"/><rect class="g" width="0.139" height="1.139" transform="translate(52.149 53.177)"/><rect class="g" width="0.138" height="1.139" transform="translate(50.84 53.177)"/><rect class="g" width="0.138" height="1.139" transform="translate(49.671 53.177)"/><rect class="g" width="0.139" height="1.139" transform="translate(56.8 53.177)"/><rect class="g" width="0.139" height="1.139" transform="translate(57.095 53.177)"/><rect class="g" width="0.139" height="1.139" transform="translate(57.38 53.177)"/><path class="g" d="M466.791,485.125v1.131a.379.379,0,0,1-.052,0h-.087v-1.138h.087a.372.372,0,0,1,.052,0" transform="translate(-409.057 -431.945)"/><path class="g" d="M467.028,485.235v.92a.3.3,0,0,1-.138.093v-1.1a.3.3,0,0,1,.138.093" transform="translate(-409.102 -431.949)"/><path class="e" d="M462.555,483.966v.642a.225.225,0,0,1-.05.139.294.294,0,0,1-.139.093.325.325,0,0,1-.055.014.286.286,0,0,1-.052,0h-12.2a.278.278,0,0,1-.295-.235v-.667a.278.278,0,0,1,.295-.235h12.247a.217.217,0,0,1,.055.012h.015l.015.006.007,0h.008l.014.008.015.01.011.007h0l.007,0a.166.166,0,0,1,.022.019l.006.006.006.006.011.014a.216.216,0,0,1,.05.138" transform="translate(-405.881 -431.681)"/><path class="g" d="M456.564,484.857H450.03a.258.258,0,0,1-.264-.235v-.667a.259.259,0,0,1,.264-.235h5.734a.1.1,0,0,0,.008.028,1.989,1.989,0,0,0,.795,1.111" transform="translate(-405.881 -431.681)"/><rect class="g" width="0.139" height="1.139" transform="translate(55.049 52.038)"/><rect class="g" width="0.139" height="1.139" transform="translate(54.58 52.038)"/><rect class="g" width="0.139" height="1.139" transform="translate(54.017 52.038)"/><rect class="g" width="0.139" height="1.139" transform="translate(53.155 52.038)"/><rect class="g" width="0.139" height="1.139" transform="translate(52.243 52.038)"/><rect class="g" width="0.139" height="1.139" transform="translate(50.844 52.038)"/><rect class="g" width="0.139" height="1.139" transform="translate(49.535 52.038)"/><rect class="g" width="0.139" height="1.139" transform="translate(48.366 52.038)"/><rect class="g" width="0.138" height="1.139" transform="translate(55.496 52.038)"/><rect class="g" width="0.139" height="1.139" transform="translate(55.791 52.038)"/><rect class="g" width="0.139" height="1.139" transform="translate(56.076 52.038)"/><path class="g" d="M465.184,483.723v1.13a.278.278,0,0,1-.051,0h-.087v-1.138h.087a.268.268,0,0,1,.051,0" transform="translate(-408.755 -431.681)"/><path class="g" d="M465.422,483.833v.919a.3.3,0,0,1-.139.093v-1.1a.3.3,0,0,1,.139.093" transform="translate(-408.8 -431.686)"/><path class="e" d="M463.329,482.6v.643a.218.218,0,0,1-.05.139.3.3,0,0,1-.138.092.321.321,0,0,1-.055.013.312.312,0,0,1-.055,0H450.837a.34.34,0,0,1-.136-.028.254.254,0,0,1-.158-.2v-.68a.279.279,0,0,1,.295-.235h12.2a.315.315,0,0,1,.055,0,.337.337,0,0,1,.055.012.3.3,0,0,1,.138.093.216.216,0,0,1,.05.138" transform="translate(-406.027 -431.424)"/><path class="g" d="M457.34,483.492h-6.533a.277.277,0,0,1-.122-.028.248.248,0,0,1-.14-.2v-.682a.257.257,0,0,1,.262-.235h5.732a2,2,0,0,0,.762,1.111l.04.028" transform="translate(-406.028 -431.424)"/><rect class="g" width="0.138" height="1.139" transform="translate(55.68 50.927)"/><rect class="g" width="0.139" height="1.139" transform="translate(55.21 50.927)"/><rect class="g" width="0.139" height="1.139" transform="translate(54.647 50.927)"/><rect class="g" width="0.139" height="1.139" transform="translate(53.786 50.927)"/><rect class="g" width="0.139" height="1.139" transform="translate(52.873 50.927)"/><rect class="g" width="0.139" height="1.139" transform="translate(51.475 50.927)"/><rect class="g" width="0.139" height="1.139" transform="translate(50.166 50.927)"/><rect class="g" width="0.139" height="1.139" transform="translate(48.997 50.927)"/><rect class="g" width="0.139" height="1.139" transform="translate(56.126 50.927)"/><rect class="g" width="0.139" height="1.139" transform="translate(56.421 50.927)"/><rect class="g" width="0.139" height="1.139" transform="translate(56.706 50.927)"/><path class="g" d="M465.961,482.354v1.131a.374.374,0,0,1-.052,0h-.087v-1.138h.088a.275.275,0,0,1,.052,0" transform="translate(-408.901 -431.424)"/><path class="g" d="M466.2,482.465v.92a.3.3,0,0,1-.138.093v-1.1a.3.3,0,0,1,.138.093" transform="translate(-408.946 -431.428)"/><path class="e" d="M463.689,481.2v.643a.217.217,0,0,1-.05.139.3.3,0,0,1-.138.092.354.354,0,0,1-.11.017H451.2a.28.28,0,0,1-.295-.235v-.667a.271.271,0,0,1,.26-.233h12.231a.312.312,0,0,1,.055,0,.211.211,0,0,1,.055.012.282.282,0,0,1,.138.093.216.216,0,0,1,.051.138" transform="translate(-406.095 -431.161)"/><path class="g" d="M457.7,482.087h-6.534a.259.259,0,0,1-.264-.235v-.668a.255.255,0,0,1,.232-.234H456.9a2,2,0,0,0,.8,1.137" transform="translate(-406.095 -431.16)"/><rect class="g" width="0.139" height="1.138" transform="translate(55.972 49.789)"/><rect class="g" width="0.139" height="1.138" transform="translate(55.502 49.789)"/><rect class="g" width="0.139" height="1.138" transform="translate(54.939 49.789)"/><rect class="g" width="0.139" height="1.138" transform="translate(54.077 49.789)"/><rect class="g" width="0.139" height="1.138" transform="translate(53.165 49.789)"/><rect class="g" width="0.139" height="1.138" transform="translate(51.767 49.789)"/><rect class="g" width="0.139" height="1.138" transform="translate(50.458 49.789)"/><rect class="g" width="0.139" height="1.138" transform="translate(49.289 49.789)"/><rect class="g" width="0.139" height="1.138" transform="translate(56.418 49.789)"/><rect class="g" width="0.139" height="1.138" transform="translate(56.713 49.789)"/><rect class="g" width="0.139" height="1.138" transform="translate(56.998 49.789)"/><path class="g" d="M466.321,480.952v1.131a.363.363,0,0,1-.052,0h-.087v-1.138h.087a.388.388,0,0,1,.052,0" transform="translate(-408.969 -431.16)"/><path class="g" d="M466.559,481.063v.92a.309.309,0,0,1-.138.092v-1.1a.31.31,0,0,1,.138.093" transform="translate(-409.014 -431.164)"/><path class="e" d="M462.585,479.8v.642a.224.224,0,0,1-.049.14.3.3,0,0,1-.139.092.317.317,0,0,1-.055.013H450.093a.28.28,0,0,1-.295-.235v-.674a.269.269,0,0,1,.221-.218h.008a.436.436,0,0,1,.064,0h12.251a.315.315,0,0,1,.055.012.3.3,0,0,1,.139.093.214.214,0,0,1,.05.138" transform="translate(-405.887 -430.897)"/><path class="g" d="M456.6,480.686h-6.533a.257.257,0,0,1-.264-.235v-.679a.255.255,0,0,1,.2-.221h.01a.316.316,0,0,1,.048,0h5.732v.008a1.993,1.993,0,0,0,.8,1.129h0" transform="translate(-405.887 -430.897)"/><rect class="g" width="0.139" height="1.138" transform="translate(55.075 48.652)"/><rect class="g" width="0.139" height="1.138" transform="translate(54.606 48.652)"/><rect class="g" width="0.139" height="1.138" transform="translate(54.044 48.652)"/><rect class="g" width="0.139" height="1.138" transform="translate(53.181 48.652)"/><rect class="g" width="0.139" height="1.138" transform="translate(52.269 48.652)"/><rect class="g" width="0.139" height="1.138" transform="translate(50.87 48.652)"/><rect class="g" width="0.139" height="1.138" transform="translate(49.56 48.652)"/><rect class="g" width="0.139" height="1.138" transform="translate(48.392 48.652)"/><rect class="g" width="0.139" height="1.138" transform="translate(55.522 48.652)"/><rect class="g" width="0.139" height="1.138" transform="translate(55.817 48.652)"/><rect class="g" width="0.139" height="1.138" transform="translate(56.102 48.652)"/><path class="g" d="M465.216,479.552v1.131a.282.282,0,0,1-.052,0h-.086v-1.138h.086a.355.355,0,0,1,.052,0" transform="translate(-408.761 -430.897)"/><path class="g" d="M465.453,479.662v.92a.3.3,0,0,1-.139.093v-1.1a.3.3,0,0,1,.139.093" transform="translate(-408.806 -430.901)"/><path class="e" d="M462.555,478.4v.643a.225.225,0,0,1-.05.138.3.3,0,0,1-.139.093.4.4,0,0,1-.042.01h-.012a.271.271,0,0,1-.052,0H450.007a.268.268,0,0,1-.242-.231v-.671a.278.278,0,0,1,.295-.235h12.249a.22.22,0,0,1,.055.012h.015l.015.006.015.007.014.008.015.009.011.009h0l.006,0a.124.124,0,0,1,.022.02l.006,0,.006.006.011.014a.216.216,0,0,1,.05.138" transform="translate(-405.881 -430.635)"/><path class="g" d="M456.564,479.295H450a.255.255,0,0,1-.231-.233v-.667a.259.259,0,0,1,.263-.235h5.734a.087.087,0,0,0,.008.028,1.989,1.989,0,0,0,.782,1.1Z" transform="translate(-405.882 -430.636)"/><rect class="g" width="0.139" height="1.139" transform="translate(55.049 47.521)"/><rect class="g" width="0.139" height="1.139" transform="translate(54.58 47.521)"/><rect class="g" width="0.139" height="1.139" transform="translate(54.017 47.521)"/><rect class="g" width="0.139" height="1.139" transform="translate(53.155 47.521)"/><rect class="g" width="0.139" height="1.139" transform="translate(52.243 47.521)"/><rect class="g" width="0.139" height="1.139" transform="translate(50.844 47.521)"/><rect class="g" width="0.139" height="1.139" transform="translate(49.535 47.521)"/><rect class="g" width="0.139" height="1.139" transform="translate(48.366 47.521)"/><rect class="g" width="0.138" height="1.139" transform="translate(55.496 47.521)"/><rect class="g" width="0.139" height="1.139" transform="translate(55.791 47.521)"/><rect class="g" width="0.139" height="1.139" transform="translate(56.076 47.521)"/><path class="g" d="M465.184,478.16v1.131a.36.36,0,0,1-.051,0h-.087v-1.138h.087a.371.371,0,0,1,.051,0" transform="translate(-408.755 -430.635)"/><path class="g" d="M465.422,478.269v.92a.316.316,0,0,1-.139.093v-1.1a.294.294,0,0,1,.139.093" transform="translate(-408.8 -430.639)"/><path class="e" d="M463.329,477.036v.642a.216.216,0,0,1-.05.139.29.29,0,0,1-.138.093.3.3,0,0,1-.11.017H450.837a.326.326,0,0,1-.136-.028.255.255,0,0,1-.158-.2v-.68a.278.278,0,0,1,.295-.235h12.2a.317.317,0,0,1,.055,0,.219.219,0,0,1,.055.012.29.29,0,0,1,.138.093.221.221,0,0,1,.05.139" transform="translate(-406.027 -430.378)"/><path class="g" d="M457.34,477.926h-6.533a.276.276,0,0,1-.122-.028.248.248,0,0,1-.14-.2v-.679a.257.257,0,0,1,.262-.235h5.732a2,2,0,0,0,.762,1.111l.04.028" transform="translate(-406.028 -430.378)"/><rect class="g" width="0.138" height="1.139" transform="translate(55.68 46.411)"/><rect class="g" width="0.139" height="1.139" transform="translate(55.21 46.411)"/><rect class="g" width="0.139" height="1.139" transform="translate(54.647 46.411)"/><rect class="g" width="0.139" height="1.139" transform="translate(53.786 46.411)"/><rect class="g" width="0.139" height="1.139" transform="translate(52.873 46.411)"/><rect class="g" width="0.139" height="1.139" transform="translate(51.475 46.411)"/><rect class="g" width="0.139" height="1.139" transform="translate(50.166 46.411)"/><rect class="g" width="0.139" height="1.139" transform="translate(48.997 46.411)"/><rect class="g" width="0.139" height="1.139" transform="translate(56.126 46.411)"/><rect class="g" width="0.139" height="1.139" transform="translate(56.421 46.411)"/><rect class="g" width="0.139" height="1.139" transform="translate(56.706 46.411)"/><path class="g" d="M465.961,476.792v1.128a.374.374,0,0,1-.052,0h-.087v-1.136h.088a.281.281,0,0,1,.052,0" transform="translate(-408.901 -430.378)"/><path class="g" d="M466.2,476.9v.92a.3.3,0,0,1-.138.093v-1.1a.3.3,0,0,1,.138.093" transform="translate(-408.946 -430.382)"/><path class="e" d="M464.557,475.634v.641a.224.224,0,0,1-.051.14.3.3,0,0,1-.138.092.354.354,0,0,1-.11.017H452.064a.279.279,0,0,1-.295-.235v-.667a.273.273,0,0,1,.26-.233h12.232a.41.41,0,0,1,.055,0,.32.32,0,0,1,.055.012.3.3,0,0,1,.139.093.215.215,0,0,1,.05.138" transform="translate(-406.258 -430.114)"/><path class="g" d="M458.567,476.525h-6.533a.259.259,0,0,1-.264-.235v-.668a.257.257,0,0,1,.233-.233h5.762a2,2,0,0,0,.8,1.138" transform="translate(-406.258 -430.114)"/><rect class="g" width="0.139" height="1.139" transform="translate(56.676 45.272)"/><rect class="g" width="0.139" height="1.139" transform="translate(56.207 45.272)"/><rect class="g" width="0.139" height="1.139" transform="translate(55.645 45.272)"/><rect class="g" width="0.139" height="1.139" transform="translate(54.782 45.272)"/><rect class="g" width="0.139" height="1.139" transform="translate(53.87 45.272)"/><rect class="g" width="0.139" height="1.139" transform="translate(52.472 45.272)"/><rect class="g" width="0.138" height="1.139" transform="translate(51.162 45.272)"/><rect class="g" width="0.139" height="1.139" transform="translate(49.993 45.272)"/><rect class="g" width="0.139" height="1.139" transform="translate(57.123 45.272)"/><rect class="g" width="0.139" height="1.139" transform="translate(57.418 45.272)"/><rect class="g" width="0.139" height="1.139" transform="translate(57.703 45.272)"/><path class="g" d="M467.188,475.391v1.131a.364.364,0,0,1-.052,0h-.086v-1.14h.086a.277.277,0,0,1,.052,0" transform="translate(-409.132 -430.114)"/><path class="g" d="M467.425,475.5v.92a.3.3,0,0,1-.138.093v-1.1a.3.3,0,0,1,.138.093" transform="translate(-409.177 -430.118)"/><path class="e" d="M490.405,500.66v.642a.22.22,0,0,1-.05.14.323.323,0,0,1-.192.1.42.42,0,0,1-.055,0H477.913a.287.287,0,0,1-.292-.211.117.117,0,0,1,0-.024v-.668a.109.109,0,0,1,0-.024.286.286,0,0,1,.292-.21h12.2c.019,0,.037,0,.055,0a.321.321,0,0,1,.055.012.292.292,0,0,1,.139.093.226.226,0,0,1,.05.138" transform="translate(-411.12 -434.821)"/><path class="g" d="M484.416,501.55h-6.533a.26.26,0,0,1-.254-.183.179.179,0,0,0-.007-.027.125.125,0,0,1,0-.024v-.668a.133.133,0,0,1,0-.025.116.116,0,0,1,.007-.027.261.261,0,0,1,.254-.183h5.732a2,2,0,0,0,.8,1.137" transform="translate(-411.121 -434.821)"/><rect class="g" width="0.139" height="1.138" transform="translate(77.663 65.592)"/><rect class="g" width="0.139" height="1.138" transform="translate(77.193 65.592)"/><rect class="g" width="0.139" height="1.138" transform="translate(76.63 65.592)"/><rect class="g" width="0.139" height="1.138" transform="translate(75.769 65.592)"/><rect class="g" width="0.139" height="1.138" transform="translate(74.855 65.592)"/><rect class="g" width="0.139" height="1.138" transform="translate(73.457 65.592)"/><rect class="g" width="0.139" height="1.138" transform="translate(72.148 65.592)"/><rect class="g" width="0.139" height="1.138" transform="translate(70.979 65.592)"/><rect class="g" width="0.139" height="1.138" transform="translate(78.109 65.592)"/><rect class="g" width="0.139" height="1.138" transform="translate(78.404 65.592)"/><rect class="g" width="0.139" height="1.138" transform="translate(78.689 65.592)"/><path class="g" d="M493.036,500.416v1.13a.276.276,0,0,1-.052,0H492.9v-1.138h.086a.373.373,0,0,1,.052,0" transform="translate(-413.994 -434.821)"/><path class="g" d="M493.273,500.524v.92a.3.3,0,0,1-.138.093v-1.1a.31.31,0,0,1,.138.093" transform="translate(-414.039 -434.825)"/><path class="e" d="M488.8,499.258v.642a.22.22,0,0,1-.05.139.294.294,0,0,1-.139.093.422.422,0,0,1-.055.014H476.307a.286.286,0,0,1-.292-.212v-.713a.284.284,0,0,1,.292-.21h12.248a.212.212,0,0,1,.055.012h.021l.01,0,.007,0h.006l.015.007.033.024.015.012c.01.01.019.019.029.031a.215.215,0,0,1,.05.138" transform="translate(-410.818 -434.558)"/><path class="g" d="M482.811,500.149h-6.534a.263.263,0,0,1-.255-.184l-.006-.027v-.717a.185.185,0,0,1,.007-.026.261.261,0,0,1,.254-.184h5.73l.008.028a2.067,2.067,0,0,0,.266.576,1.918,1.918,0,0,0,.529.534" transform="translate(-410.818 -434.558)"/><rect class="g" width="0.139" height="1.139" transform="translate(76.358 64.453)"/><rect class="g" width="0.138" height="1.139" transform="translate(75.889 64.453)"/><rect class="g" width="0.138" height="1.139" transform="translate(75.327 64.453)"/><rect class="g" width="0.139" height="1.139" transform="translate(74.464 64.453)"/><rect class="g" width="0.138" height="1.139" transform="translate(73.552 64.453)"/><rect class="g" width="0.139" height="1.139" transform="translate(72.153 64.453)"/><rect class="g" width="0.139" height="1.139" transform="translate(70.844 64.453)"/><rect class="g" width="0.139" height="1.139" transform="translate(69.675 64.453)"/><rect class="g" width="0.139" height="1.139" transform="translate(76.805 64.453)"/><rect class="g" width="0.139" height="1.139" transform="translate(77.1 64.453)"/><rect class="g" width="0.138" height="1.139" transform="translate(77.385 64.453)"/><path class="g" d="M491.43,499.014v1.131a.372.372,0,0,1-.052,0h-.087V499.01h.087a.355.355,0,0,1,.052,0" transform="translate(-413.692 -434.557)"/><path class="g" d="M491.667,499.123v.92a.3.3,0,0,1-.138.093v-1.1a.3.3,0,0,1,.138.093" transform="translate(-413.736 -434.562)"/><path class="e" d="M489.575,497.891v.642a.218.218,0,0,1-.05.139.3.3,0,0,1-.138.093.258.258,0,0,1-.055.013.287.287,0,0,1-.052,0h-12.2a.342.342,0,0,1-.136-.028.255.255,0,0,1-.158-.2v-.68a.057.057,0,0,1,0-.024.284.284,0,0,1,.292-.21h12.2a.275.275,0,0,1,.052,0,.217.217,0,0,1,.055.012.284.284,0,0,1,.139.093.216.216,0,0,1,.05.139" transform="translate(-410.964 -434.3)"/><path class="g" d="M483.587,498.78h-6.533a.275.275,0,0,1-.122-.028.253.253,0,0,1-.141-.2v-.679a.133.133,0,0,1,0-.025.1.1,0,0,1,.006-.026.261.261,0,0,1,.253-.184h5.732a2.1,2.1,0,0,0,.177.442,1.95,1.95,0,0,0,.585.667l.041.028" transform="translate(-410.964 -434.3)"/><rect class="g" width="0.139" height="1.139" transform="translate(76.989 63.343)"/><rect class="g" width="0.139" height="1.139" transform="translate(76.519 63.343)"/><rect class="g" width="0.139" height="1.139" transform="translate(75.956 63.343)"/><rect class="g" width="0.139" height="1.139" transform="translate(75.094 63.343)"/><rect class="g" width="0.139" height="1.139" transform="translate(74.182 63.343)"/><rect class="g" width="0.139" height="1.139" transform="translate(72.784 63.343)"/><rect class="g" width="0.139" height="1.139" transform="translate(71.475 63.343)"/><rect class="g" width="0.139" height="1.139" transform="translate(70.306 63.343)"/><rect class="g" width="0.139" height="1.139" transform="translate(77.435 63.343)"/><rect class="g" width="0.139" height="1.139" transform="translate(77.73 63.343)"/><rect class="g" width="0.139" height="1.139" transform="translate(78.015 63.343)"/><path class="g" d="M492.2,497.646v1.131a.266.266,0,0,1-.051,0h-.089v-1.138h.088a.362.362,0,0,1,.051,0" transform="translate(-413.837 -434.3)"/><path class="g" d="M492.444,497.756v.92a.308.308,0,0,1-.139.093v-1.1a.294.294,0,0,1,.139.093" transform="translate(-413.882 -434.305)"/><path class="e" d="M489.933,496.488v.643a.213.213,0,0,1-.05.139l-.028.03a.312.312,0,0,1-.111.063.322.322,0,0,1-.055.013l-.026,0h-12.22a.285.285,0,0,1-.292-.211.125.125,0,0,1,0-.024v-.688a.278.278,0,0,1,.258-.21H489.64a.37.37,0,0,1,.052,0,.318.318,0,0,1,.055.014.283.283,0,0,1,.138.093.214.214,0,0,1,.05.138" transform="translate(-411.032 -434.037)"/><path class="g" d="M483.946,497.379h-6.534a.261.261,0,0,1-.254-.184l-.006-.027a.117.117,0,0,1,0-.024v-.69a.258.258,0,0,1,.23-.21h5.761a2.13,2.13,0,0,0,.144.38,1.956,1.956,0,0,0,.658.757" transform="translate(-411.032 -434.037)"/><rect class="g" width="0.139" height="1.139" transform="translate(77.281 62.203)"/><rect class="g" width="0.139" height="1.139" transform="translate(76.811 62.203)"/><rect class="g" width="0.139" height="1.139" transform="translate(76.248 62.203)"/><rect class="g" width="0.139" height="1.139" transform="translate(75.387 62.203)"/><rect class="g" width="0.139" height="1.139" transform="translate(74.474 62.203)"/><rect class="g" width="0.139" height="1.139" transform="translate(73.076 62.203)"/><rect class="g" width="0.139" height="1.139" transform="translate(71.766 62.203)"/><rect class="g" width="0.139" height="1.139" transform="translate(70.597 62.203)"/><rect class="g" width="0.138" height="1.139" transform="translate(77.728 62.203)"/><rect class="g" width="0.139" height="1.139" transform="translate(78.022 62.203)"/><rect class="g" width="0.139" height="1.139" transform="translate(78.307 62.203)"/><path class="g" d="M492.566,496.242v1.131a.364.364,0,0,1-.052,0h-.087v-1.138h.087a.282.282,0,0,1,.052,0" transform="translate(-413.905 -434.036)"/><path class="g" d="M492.8,496.354v.92a.307.307,0,0,1-.139.093v-1.1a.3.3,0,0,1,.139.093" transform="translate(-413.95 -434.041)"/><path class="e" d="M488.833,495.086v.643a.221.221,0,0,1-.051.139.293.293,0,0,1-.139.092.325.325,0,0,1-.055.014H476.338a.286.286,0,0,1-.292-.212v-.7a.269.269,0,0,1,.221-.217h.008a.427.427,0,0,1,.064,0h12.25a.319.319,0,0,1,.055.012.279.279,0,0,1,.138.093.215.215,0,0,1,.051.138" transform="translate(-410.824 -433.772)"/><path class="g" d="M482.842,495.977h-6.534a.259.259,0,0,1-.253-.183.2.2,0,0,0-.007-.028.116.116,0,0,1,0-.024v-.68a.255.255,0,0,1,.205-.221h.011a.3.3,0,0,1,.046,0h5.733v.008a2,2,0,0,0,.8,1.129h0" transform="translate(-410.824 -433.773)"/><rect class="g" width="0.139" height="1.139" transform="translate(76.384 61.066)"/><rect class="g" width="0.139" height="1.139" transform="translate(75.914 61.066)"/><rect class="g" width="0.139" height="1.139" transform="translate(75.352 61.066)"/><rect class="g" width="0.139" height="1.139" transform="translate(74.489 61.066)"/><rect class="g" width="0.139" height="1.139" transform="translate(73.577 61.066)"/><rect class="g" width="0.139" height="1.139" transform="translate(72.179 61.066)"/><rect class="g" width="0.139" height="1.139" transform="translate(70.87 61.066)"/><rect class="g" width="0.139" height="1.139" transform="translate(69.701 61.066)"/><rect class="g" width="0.139" height="1.139" transform="translate(76.83 61.066)"/><rect class="g" width="0.139" height="1.139" transform="translate(77.125 61.066)"/><rect class="g" width="0.139" height="1.139" transform="translate(77.411 61.066)"/><path class="g" d="M491.461,494.843v1.131a.373.373,0,0,1-.052,0h-.086v-1.138h.086a.281.281,0,0,1,.052,0" transform="translate(-413.698 -433.773)"/><path class="g" d="M491.7,494.953v.92a.3.3,0,0,1-.139.093v-1.1a.3.3,0,0,1,.139.093" transform="translate(-413.742 -433.777)"/><path class="e" d="M488.8,493.695v.643a.222.222,0,0,1-.05.139.291.291,0,0,1-.139.091l-.042.012h-.012c-.017,0-.034,0-.052,0H476.254a.277.277,0,0,1-.241-.21v-.715a.285.285,0,0,1,.292-.21h12.249a.217.217,0,0,1,.055.012h.021l.009,0h0l.006,0a.255.255,0,0,1,.055.034l.015.012.012.012.006.006.011.013a.216.216,0,0,1,.05.139" transform="translate(-410.818 -433.511)"/><path class="g" d="M482.811,494.586h-6.568a.258.258,0,0,1-.229-.213v-.713l.007-.028a.262.262,0,0,1,.255-.183h5.731l.008.028a1.991,1.991,0,0,0,.784,1.1l.012.008" transform="translate(-410.818 -433.511)"/><rect class="g" width="0.139" height="1.138" transform="translate(76.358 59.936)"/><rect class="g" width="0.138" height="1.138" transform="translate(75.889 59.936)"/><rect class="g" width="0.138" height="1.138" transform="translate(75.327 59.936)"/><rect class="g" width="0.139" height="1.138" transform="translate(74.464 59.936)"/><rect class="g" width="0.138" height="1.138" transform="translate(73.552 59.936)"/><rect class="g" width="0.139" height="1.138" transform="translate(72.153 59.936)"/><rect class="g" width="0.139" height="1.138" transform="translate(70.844 59.936)"/><rect class="g" width="0.139" height="1.138" transform="translate(69.675 59.936)"/><rect class="g" width="0.139" height="1.138" transform="translate(76.805 59.936)"/><rect class="g" width="0.139" height="1.138" transform="translate(77.1 59.936)"/><rect class="g" width="0.138" height="1.138" transform="translate(77.385 59.936)"/><path class="g" d="M491.43,493.451v1.129a.364.364,0,0,1-.052,0h-.087v-1.138h.087a.276.276,0,0,1,.052,0" transform="translate(-413.692 -433.511)"/><path class="g" d="M491.667,493.561v.92a.3.3,0,0,1-.138.093v-1.1a.287.287,0,0,1,.138.093" transform="translate(-413.736 -433.515)"/><path class="e" d="M489.575,492.329v.642a.216.216,0,0,1-.05.139.3.3,0,0,1-.138.093.342.342,0,0,1-.055.012.149.149,0,0,1-.026,0H477.083a.341.341,0,0,1-.136-.028.254.254,0,0,1-.158-.2v-.681a.057.057,0,0,1,0-.024.284.284,0,0,1,.292-.21h12.2a.362.362,0,0,1,.052,0,.217.217,0,0,1,.055.012.3.3,0,0,1,.139.093.216.216,0,0,1,.05.139" transform="translate(-410.964 -433.254)"/><path class="g" d="M483.587,493.217h-6.533a.288.288,0,0,1-.122-.028.251.251,0,0,1-.141-.2v-.68a.133.133,0,0,1,0-.025.113.113,0,0,1,.006-.026.261.261,0,0,1,.253-.184h5.732a2,2,0,0,0,.762,1.112c.014.009.026.019.041.028" transform="translate(-410.964 -433.254)"/><rect class="g" width="0.139" height="1.139" transform="translate(76.989 58.825)"/><rect class="g" width="0.139" height="1.139" transform="translate(76.519 58.825)"/><rect class="g" width="0.139" height="1.139" transform="translate(75.956 58.825)"/><rect class="g" width="0.139" height="1.139" transform="translate(75.094 58.825)"/><rect class="g" width="0.139" height="1.139" transform="translate(74.182 58.825)"/><rect class="g" width="0.139" height="1.139" transform="translate(72.784 58.825)"/><rect class="g" width="0.139" height="1.139" transform="translate(71.475 58.825)"/><rect class="g" width="0.139" height="1.139" transform="translate(70.306 58.825)"/><rect class="g" width="0.139" height="1.139" transform="translate(77.435 58.825)"/><rect class="g" width="0.139" height="1.139" transform="translate(77.73 58.825)"/><rect class="g" width="0.139" height="1.139" transform="translate(78.015 58.825)"/><path class="g" d="M492.2,492.083v1.129a.359.359,0,0,1-.051,0h-.089v-1.138h.088a.362.362,0,0,1,.051,0" transform="translate(-413.837 -433.254)"/><path class="g" d="M492.444,492.193v.92a.308.308,0,0,1-.139.093v-1.1a.3.3,0,0,1,.139.093" transform="translate(-413.882 -433.258)"/><path class="e" d="M490.8,490.925v.642a.225.225,0,0,1-.05.138s-.009.011-.015.015a.292.292,0,0,1-.124.077.322.322,0,0,1-.055.013.311.311,0,0,1-.055,0H478.311a.285.285,0,0,1-.292-.211.123.123,0,0,1,0-.024v-.668a.277.277,0,0,1,.26-.233H490.51a.43.43,0,0,1,.055,0,.327.327,0,0,1,.055.012.315.315,0,0,1,.124.077l.014.015a.216.216,0,0,1,.05.138" transform="translate(-411.195 -432.99)"/><path class="g" d="M484.813,491.815h-6.534a.263.263,0,0,1-.254-.184l-.006-.027a.118.118,0,0,1,0-.024v-.668c0-.011,0-.023.006-.033a.26.26,0,0,1,.227-.2h5.763a1.991,1.991,0,0,0,.8,1.137" transform="translate(-411.195 -432.99)"/><rect class="g" width="0.139" height="1.139" transform="translate(77.986 57.686)"/><rect class="g" width="0.139" height="1.139" transform="translate(77.516 57.686)"/><rect class="g" width="0.139" height="1.139" transform="translate(76.953 57.686)"/><rect class="g" width="0.139" height="1.139" transform="translate(76.091 57.686)"/><rect class="g" width="0.139" height="1.139" transform="translate(75.178 57.686)"/><rect class="g" width="0.139" height="1.139" transform="translate(73.78 57.686)"/><rect class="g" width="0.139" height="1.139" transform="translate(72.471 57.686)"/><rect class="g" width="0.139" height="1.139" transform="translate(71.302 57.686)"/><rect class="g" width="0.139" height="1.139" transform="translate(78.432 57.686)"/><rect class="g" width="0.139" height="1.139" transform="translate(78.727 57.686)"/><rect class="g" width="0.139" height="1.139" transform="translate(79.012 57.686)"/><path class="g" d="M493.433,490.68v1.13a.273.273,0,0,1-.051,0H493.3v-1.138h.087a.273.273,0,0,1,.051,0" transform="translate(-414.069 -432.99)"/><path class="g" d="M493.671,490.791v.919a.3.3,0,0,1-.138.093v-1.1a.293.293,0,0,1,.138.093" transform="translate(-414.113 -432.994)"/><path class="e" d="M488.833,489.525v.643a.225.225,0,0,1-.051.139.291.291,0,0,1-.139.093.43.43,0,0,1-.055.013H476.338a.287.287,0,0,1-.292-.21v-.714a.285.285,0,0,1,.292-.21h12.25a.216.216,0,0,1,.055.012.053.053,0,0,1,.02.008h0a.284.284,0,0,1,.11.082.217.217,0,0,1,.051.139" transform="translate(-410.824 -432.727)"/><path class="g" d="M482.842,490.415h-6.534a.258.258,0,0,1-.253-.184c0-.009,0-.018-.007-.027v-.716a.083.083,0,0,1,.007-.027.259.259,0,0,1,.253-.183h5.735l.008.026a1.985,1.985,0,0,0,.792,1.11h0" transform="translate(-410.824 -432.727)"/><rect class="g" width="0.139" height="1.139" transform="translate(76.384 56.55)"/><rect class="g" width="0.139" height="1.139" transform="translate(75.914 56.55)"/><rect class="g" width="0.139" height="1.139" transform="translate(75.352 56.55)"/><rect class="g" width="0.139" height="1.139" transform="translate(74.489 56.55)"/><rect class="g" width="0.139" height="1.139" transform="translate(73.577 56.55)"/><rect class="g" width="0.139" height="1.139" transform="translate(72.179 56.55)"/><rect class="g" width="0.139" height="1.139" transform="translate(70.87 56.55)"/><rect class="g" width="0.139" height="1.139" transform="translate(69.701 56.55)"/><rect class="g" width="0.139" height="1.139" transform="translate(76.83 56.55)"/><rect class="g" width="0.139" height="1.139" transform="translate(77.125 56.55)"/><rect class="g" width="0.139" height="1.139" transform="translate(77.411 56.55)"/><path class="g" d="M491.461,489.279v1.131a.364.364,0,0,1-.052,0h-.086v-1.138h.086a.276.276,0,0,1,.052,0" transform="translate(-413.698 -432.727)"/><path class="g" d="M491.7,489.39v.92a.3.3,0,0,1-.139.093v-1.1a.289.289,0,0,1,.139.093" transform="translate(-413.742 -432.731)"/><path class="e" d="M489.933,488.156v.642a.216.216,0,0,1-.05.139.3.3,0,0,1-.138.093.462.462,0,0,1-.055.013.383.383,0,0,1-.052,0H477.443a.352.352,0,0,1-.132-.026.259.259,0,0,1-.159-.183v-.717a.279.279,0,0,1,.257-.21h12.283a.209.209,0,0,1,.055.012.288.288,0,0,1,.138.093.212.212,0,0,1,.051.139" transform="translate(-411.032 -432.47)"/><path class="g" d="M483.946,489.045h-6.534a.279.279,0,0,1-.118-.026.247.247,0,0,1-.142-.183v-.717a.257.257,0,0,1,.23-.21h5.76a1.994,1.994,0,0,0,.764,1.111l.037.027" transform="translate(-411.032 -432.469)"/><rect class="g" width="0.139" height="1.138" transform="translate(77.281 55.438)"/><rect class="g" width="0.139" height="1.138" transform="translate(76.811 55.438)"/><rect class="g" width="0.139" height="1.138" transform="translate(76.248 55.438)"/><rect class="g" width="0.139" height="1.138" transform="translate(75.387 55.438)"/><rect class="g" width="0.139" height="1.138" transform="translate(74.474 55.438)"/><rect class="g" width="0.139" height="1.138" transform="translate(73.076 55.438)"/><rect class="g" width="0.139" height="1.138" transform="translate(71.766 55.438)"/><rect class="g" width="0.139" height="1.138" transform="translate(70.597 55.438)"/><rect class="g" width="0.138" height="1.138" transform="translate(77.728 55.438)"/><rect class="g" width="0.139" height="1.138" transform="translate(78.022 55.438)"/><rect class="g" width="0.139" height="1.138" transform="translate(78.307 55.438)"/><path class="g" d="M492.566,487.91v1.129a.364.364,0,0,1-.052,0h-.087v-1.138h.087a.272.272,0,0,1,.052,0" transform="translate(-413.905 -432.469)"/><path class="g" d="M492.8,488.019v.92a.3.3,0,0,1-.139.093v-1.1a.3.3,0,0,1,.139.093" transform="translate(-413.95 -432.473)"/><path class="e" d="M490.405,486.753v.643a.22.22,0,0,1-.05.138l-.028.029a.316.316,0,0,1-.166.076h-12.28a.28.28,0,0,1-.26-.21.109.109,0,0,1,0-.024v-.668a.109.109,0,0,1,0-.024.285.285,0,0,1,.292-.21h12.2a.312.312,0,0,1,.055,0,.3.3,0,0,1,.055.012.291.291,0,0,1,.139.093.22.22,0,0,1,.05.138" transform="translate(-411.12 -432.205)"/><path class="g" d="M484.416,487.644h-6.562a.256.256,0,0,1-.232-.209.125.125,0,0,1,0-.024v-.669a.133.133,0,0,1,0-.025.148.148,0,0,1,.007-.028.261.261,0,0,1,.254-.183h5.732a2,2,0,0,0,.8,1.137h0" transform="translate(-411.121 -432.206)"/><rect class="g" width="0.139" height="1.138" transform="translate(77.663 54.301)"/><rect class="g" width="0.139" height="1.138" transform="translate(77.193 54.301)"/><rect class="g" width="0.139" height="1.138" transform="translate(76.63 54.301)"/><rect class="g" width="0.139" height="1.138" transform="translate(75.769 54.301)"/><rect class="g" width="0.139" height="1.138" transform="translate(74.855 54.301)"/><rect class="g" width="0.139" height="1.138" transform="translate(73.457 54.301)"/><rect class="g" width="0.139" height="1.138" transform="translate(72.148 54.301)"/><rect class="g" width="0.139" height="1.138" transform="translate(70.979 54.301)"/><rect class="g" width="0.139" height="1.138" transform="translate(78.109 54.301)"/><rect class="g" width="0.139" height="1.138" transform="translate(78.404 54.301)"/><rect class="g" width="0.139" height="1.138" transform="translate(78.689 54.301)"/><path class="g" d="M493.036,486.509v1.131a.271.271,0,0,1-.052,0H492.9v-1.138h.086c.018,0,.035,0,.052,0" transform="translate(-413.994 -432.206)"/><path class="g" d="M493.273,486.62v.92a.3.3,0,0,1-.138.093v-1.1a.3.3,0,0,1,.138.093" transform="translate(-414.039 -432.21)"/><path class="e" d="M443.046,500.66v.642a.224.224,0,0,1-.05.14.291.291,0,0,1-.139.091.264.264,0,0,1-.055.014.355.355,0,0,1-.052,0h-12.2a.28.28,0,0,1-.3-.235v-.668a.279.279,0,0,1,.3-.234h12.2a.369.369,0,0,1,.051,0,.327.327,0,0,1,.055.012.291.291,0,0,1,.139.093.212.212,0,0,1,.05.138" transform="translate(-402.212 -434.821)"/><path class="g" d="M437.056,501.551h-6.534a.258.258,0,0,1-.264-.235v-.668a.257.257,0,0,1,.264-.235h5.731a2,2,0,0,0,.8,1.138" transform="translate(-402.212 -434.821)"/><rect class="g" width="0.139" height="1.138" transform="translate(39.21 65.592)"/><rect class="g" width="0.138" height="1.138" transform="translate(38.742 65.592)"/><rect class="g" width="0.138" height="1.138" transform="translate(38.179 65.592)"/><rect class="g" width="0.139" height="1.138" transform="translate(37.316 65.592)"/><rect class="g" width="0.138" height="1.138" transform="translate(36.405 65.592)"/><rect class="g" width="0.139" height="1.138" transform="translate(35.006 65.592)"/><rect class="g" width="0.139" height="1.138" transform="translate(33.696 65.592)"/><rect class="g" width="0.139" height="1.138" transform="translate(32.528 65.592)"/><rect class="g" width="0.139" height="1.138" transform="translate(39.658 65.592)"/><rect class="g" width="0.139" height="1.138" transform="translate(39.953 65.592)"/><rect class="g" width="0.138" height="1.138" transform="translate(40.238 65.592)"/><path class="g" d="M445.676,500.416v1.13a.273.273,0,0,1-.051,0h-.087v-1.138h.087a.369.369,0,0,1,.051,0" transform="translate(-405.086 -434.821)"/><path class="g" d="M445.913,500.524v.92a.294.294,0,0,1-.139.093v-1.1a.309.309,0,0,1,.139.093" transform="translate(-405.13 -434.825)"/><path class="e" d="M441.439,499.258v.642a.216.216,0,0,1-.05.139.3.3,0,0,1-.139.093.331.331,0,0,1-.055.014.422.422,0,0,1-.055,0H428.947a.279.279,0,0,1-.295-.235v-.67a.28.28,0,0,1,.295-.235H441.2a.315.315,0,0,1,.055.012h.015l.015.007.008,0h.008l.015.007.015.01.011.008h0l.006,0a.268.268,0,0,1,.023.02l0,.006.006,0,.011.014a.216.216,0,0,1,.05.138" transform="translate(-401.91 -434.557)"/><path class="g" d="M435.449,500.149h-6.533a.26.26,0,0,1-.264-.235v-.668a.259.259,0,0,1,.264-.235h5.731l.008.028a1.993,1.993,0,0,0,.795,1.111" transform="translate(-401.91 -434.557)"/><rect class="g" width="0.139" height="1.139" transform="translate(37.906 64.453)"/><rect class="g" width="0.139" height="1.139" transform="translate(37.438 64.453)"/><rect class="g" width="0.139" height="1.139" transform="translate(36.874 64.453)"/><rect class="g" width="0.139" height="1.139" transform="translate(36.012 64.453)"/><rect class="g" width="0.139" height="1.139" transform="translate(35.1 64.453)"/><rect class="g" width="0.139" height="1.139" transform="translate(33.702 64.453)"/><rect class="g" width="0.139" height="1.139" transform="translate(32.392 64.453)"/><rect class="g" width="0.139" height="1.139" transform="translate(31.223 64.453)"/><rect class="g" width="0.139" height="1.139" transform="translate(38.353 64.453)"/><rect class="g" width="0.138" height="1.139" transform="translate(38.649 64.453)"/><rect class="g" width="0.139" height="1.139" transform="translate(38.933 64.453)"/><path class="g" d="M444.07,499.014v1.131a.364.364,0,0,1-.052,0h-.086V499.01h.086a.355.355,0,0,1,.052,0" transform="translate(-404.784 -434.557)"/><path class="g" d="M444.307,499.123v.92a.3.3,0,0,1-.139.093v-1.1a.3.3,0,0,1,.139.093" transform="translate(-404.828 -434.562)"/><path class="e" d="M442.215,497.89v.642a.218.218,0,0,1-.05.139.287.287,0,0,1-.138.093.312.312,0,0,1-.055.013.277.277,0,0,1-.052,0h-12.2a.342.342,0,0,1-.136-.028.252.252,0,0,1-.158-.2v-.68a.278.278,0,0,1,.295-.235h12.2a.371.371,0,0,1,.052,0,.219.219,0,0,1,.055.012.288.288,0,0,1,.139.093.216.216,0,0,1,.05.139" transform="translate(-402.056 -434.3)"/><path class="g" d="M436.227,498.78h-6.534a.27.27,0,0,1-.121-.028.252.252,0,0,1-.141-.2v-.679a.259.259,0,0,1,.264-.235h5.73a2,2,0,0,0,.762,1.111Z" transform="translate(-402.056 -434.3)"/><rect class="g" width="0.139" height="1.139" transform="translate(38.536 63.343)"/><rect class="g" width="0.139" height="1.139" transform="translate(38.068 63.343)"/><rect class="g" width="0.139" height="1.139" transform="translate(37.505 63.343)"/><rect class="g" width="0.139" height="1.139" transform="translate(36.642 63.343)"/><rect class="g" width="0.139" height="1.139" transform="translate(35.73 63.343)"/><rect class="g" width="0.139" height="1.139" transform="translate(34.331 63.343)"/><rect class="g" width="0.139" height="1.139" transform="translate(33.023 63.343)"/><rect class="g" width="0.139" height="1.139" transform="translate(31.853 63.343)"/><rect class="g" width="0.139" height="1.139" transform="translate(38.983 63.343)"/><rect class="g" width="0.139" height="1.139" transform="translate(39.278 63.343)"/><rect class="g" width="0.139" height="1.139" transform="translate(39.563 63.343)"/><path class="g" d="M444.845,497.646v1.131a.267.267,0,0,1-.051,0h-.087v-1.138h.087a.361.361,0,0,1,.051,0" transform="translate(-404.93 -434.3)"/><path class="g" d="M445.083,497.756v.92a.31.31,0,0,1-.138.093v-1.1a.282.282,0,0,1,.138.093" transform="translate(-404.974 -434.305)"/><path class="e" d="M442.576,496.488v.643a.223.223,0,0,1-.051.139.288.288,0,0,1-.138.092.273.273,0,0,1-.055.013.323.323,0,0,1-.055,0H430.083a.279.279,0,0,1-.295-.235v-.667a.271.271,0,0,1,.26-.232H442.28a.31.31,0,0,1,.055,0,.32.32,0,0,1,.055.012.3.3,0,0,1,.139.093.216.216,0,0,1,.05.138" transform="translate(-402.124 -434.037)"/><path class="g" d="M436.584,497.379h-6.533a.258.258,0,0,1-.263-.235v-.667a.255.255,0,0,1,.232-.233h5.763a2,2,0,0,0,.8,1.135" transform="translate(-402.124 -434.037)"/><rect class="g" width="0.139" height="1.139" transform="translate(38.829 62.203)"/><rect class="g" width="0.139" height="1.139" transform="translate(38.36 62.203)"/><rect class="g" width="0.139" height="1.139" transform="translate(37.797 62.203)"/><rect class="g" width="0.139" height="1.139" transform="translate(36.934 62.203)"/><rect class="g" width="0.139" height="1.139" transform="translate(36.023 62.203)"/><rect class="g" width="0.138" height="1.139" transform="translate(34.625 62.203)"/><rect class="g" width="0.139" height="1.139" transform="translate(33.315 62.203)"/><rect class="g" width="0.139" height="1.139" transform="translate(32.146 62.203)"/><rect class="g" width="0.139" height="1.139" transform="translate(39.275 62.203)"/><rect class="g" width="0.139" height="1.139" transform="translate(39.571 62.203)"/><rect class="g" width="0.139" height="1.139" transform="translate(39.856 62.203)"/><path class="g" d="M445.206,496.242v1.131a.372.372,0,0,1-.052,0h-.087v-1.138h.087a.286.286,0,0,1,.052,0" transform="translate(-404.997 -434.036)"/><path class="g" d="M445.443,496.354v.92a.3.3,0,0,1-.138.093v-1.1a.294.294,0,0,1,.138.093" transform="translate(-405.042 -434.041)"/><path class="e" d="M441.471,495.088v.643a.223.223,0,0,1-.051.139.293.293,0,0,1-.138.092.323.323,0,0,1-.055.013H428.979a.28.28,0,0,1-.3-.235v-.674a.269.269,0,0,1,.222-.218h.008a.568.568,0,0,1,.064-.006h12.25a.3.3,0,0,1,.055.012.29.29,0,0,1,.138.093.212.212,0,0,1,.051.138" transform="translate(-401.916 -433.774)"/><path class="g" d="M435.483,495.978h-6.536a.257.257,0,0,1-.263-.235v-.679a.257.257,0,0,1,.2-.221h.011a.3.3,0,0,1,.047,0h5.733v.008a1.991,1.991,0,0,0,.8,1.129Z" transform="translate(-401.916 -433.773)"/><rect class="g" width="0.139" height="1.139" transform="translate(37.932 61.066)"/><rect class="g" width="0.139" height="1.139" transform="translate(37.463 61.066)"/><rect class="g" width="0.139" height="1.139" transform="translate(36.9 61.066)"/><rect class="g" width="0.139" height="1.139" transform="translate(36.037 61.066)"/><rect class="g" width="0.139" height="1.139" transform="translate(35.125 61.066)"/><rect class="g" width="0.139" height="1.139" transform="translate(33.727 61.066)"/><rect class="g" width="0.139" height="1.139" transform="translate(32.418 61.066)"/><rect class="g" width="0.139" height="1.139" transform="translate(31.249 61.066)"/><rect class="g" width="0.139" height="1.139" transform="translate(38.379 61.066)"/><rect class="g" width="0.139" height="1.139" transform="translate(38.674 61.066)"/><rect class="g" width="0.139" height="1.139" transform="translate(38.958 61.066)"/><path class="g" d="M444.1,494.843v1.131a.369.369,0,0,1-.051,0h-.087v-1.138h.087a.278.278,0,0,1,.051,0" transform="translate(-404.79 -433.773)"/><path class="g" d="M444.338,494.953v.92a.3.3,0,0,1-.138.093v-1.1a.29.29,0,0,1,.138.093" transform="translate(-404.834 -433.777)"/><path class="e" d="M441.439,493.695v.643a.218.218,0,0,1-.05.139.32.32,0,0,1-.181.1H441.2a.317.317,0,0,1-.055,0H428.894a.269.269,0,0,1-.243-.231v-.668a.279.279,0,0,1,.295-.235H441.2a.214.214,0,0,1,.055.012h.007l.008,0,.015.007.016.006.015.007.015.01.011.008h0l.006,0a.257.257,0,0,1,.023.02l0,.006.006,0,.011.014a.215.215,0,0,1,.05.138" transform="translate(-401.91 -433.511)"/><path class="g" d="M435.45,494.585h-6.564a.256.256,0,0,1-.231-.233v-.67a.259.259,0,0,1,.264-.235h5.73l.008.028a1.991,1.991,0,0,0,.784,1.1l.011.008" transform="translate(-401.91 -433.511)"/><rect class="g" width="0.139" height="1.138" transform="translate(37.906 59.936)"/><rect class="g" width="0.139" height="1.138" transform="translate(37.438 59.936)"/><rect class="g" width="0.139" height="1.138" transform="translate(36.874 59.936)"/><rect class="g" width="0.139" height="1.138" transform="translate(36.012 59.936)"/><rect class="g" width="0.139" height="1.138" transform="translate(35.1 59.936)"/><rect class="g" width="0.139" height="1.138" transform="translate(33.702 59.936)"/><rect class="g" width="0.139" height="1.138" transform="translate(32.392 59.936)"/><rect class="g" width="0.139" height="1.138" transform="translate(31.223 59.936)"/><rect class="g" width="0.139" height="1.138" transform="translate(38.353 59.936)"/><rect class="g" width="0.138" height="1.138" transform="translate(38.649 59.936)"/><rect class="g" width="0.139" height="1.138" transform="translate(38.933 59.936)"/><path class="g" d="M444.07,493.451v1.129a.363.363,0,0,1-.052,0h-.086v-1.138h.086a.276.276,0,0,1,.052,0" transform="translate(-404.784 -433.511)"/><path class="g" d="M444.307,493.561v.92a.3.3,0,0,1-.139.093v-1.1a.289.289,0,0,1,.139.093" transform="translate(-404.828 -433.515)"/><path class="e" d="M442.215,492.329v.642a.216.216,0,0,1-.05.139.292.292,0,0,1-.138.093.423.423,0,0,1-.055.014c-.017,0-.035,0-.052,0h-12.2a.356.356,0,0,1-.136-.028.253.253,0,0,1-.158-.2v-.682a.278.278,0,0,1,.295-.235h12.2a.362.362,0,0,1,.052,0,.326.326,0,0,1,.055.012.289.289,0,0,1,.139.093.218.218,0,0,1,.05.139" transform="translate(-402.056 -433.254)"/><path class="g" d="M436.227,493.218h-6.534a.294.294,0,0,1-.121-.028.25.25,0,0,1-.141-.2v-.68a.259.259,0,0,1,.264-.235h5.73a2,2,0,0,0,.762,1.111Z" transform="translate(-402.056 -433.254)"/><rect class="g" width="0.139" height="1.139" transform="translate(38.536 58.825)"/><rect class="g" width="0.139" height="1.139" transform="translate(38.068 58.825)"/><rect class="g" width="0.139" height="1.139" transform="translate(37.505 58.825)"/><rect class="g" width="0.139" height="1.139" transform="translate(36.642 58.825)"/><rect class="g" width="0.139" height="1.139" transform="translate(35.73 58.825)"/><rect class="g" width="0.139" height="1.139" transform="translate(34.331 58.825)"/><rect class="g" width="0.139" height="1.139" transform="translate(33.023 58.825)"/><rect class="g" width="0.139" height="1.139" transform="translate(31.853 58.825)"/><rect class="g" width="0.139" height="1.139" transform="translate(38.983 58.825)"/><rect class="g" width="0.139" height="1.139" transform="translate(39.278 58.825)"/><rect class="g" width="0.139" height="1.139" transform="translate(39.563 58.825)"/><path class="g" d="M444.845,492.083v1.129a.361.361,0,0,1-.051,0h-.087v-1.138h.087a.361.361,0,0,1,.051,0" transform="translate(-404.93 -433.254)"/><path class="g" d="M445.083,492.193v.92a.309.309,0,0,1-.138.093v-1.1a.288.288,0,0,1,.138.093" transform="translate(-404.974 -433.258)"/><path class="e" d="M443.443,490.925v.642a.221.221,0,0,1-.05.138.292.292,0,0,1-.139.093.323.323,0,0,1-.055.013.363.363,0,0,1-.052,0h-12.2a.279.279,0,0,1-.295-.235v-.669a.271.271,0,0,1,.26-.232h12.232a.372.372,0,0,1,.052,0,.219.219,0,0,1,.055.012.284.284,0,0,1,.138.093.216.216,0,0,1,.05.138" transform="translate(-402.287 -432.99)"/><path class="g" d="M437.454,491.816h-6.532a.259.259,0,0,1-.264-.235v-.668a.257.257,0,0,1,.232-.233h5.761a2,2,0,0,0,.8,1.137" transform="translate(-402.287 -432.99)"/><rect class="g" width="0.139" height="1.139" transform="translate(39.534 57.686)"/><rect class="g" width="0.138" height="1.139" transform="translate(39.065 57.686)"/><rect class="g" width="0.138" height="1.139" transform="translate(38.502 57.686)"/><rect class="g" width="0.139" height="1.139" transform="translate(37.639 57.686)"/><rect class="g" width="0.138" height="1.139" transform="translate(36.727 57.686)"/><rect class="g" width="0.139" height="1.139" transform="translate(35.328 57.686)"/><rect class="g" width="0.139" height="1.139" transform="translate(34.019 57.686)"/><rect class="g" width="0.139" height="1.139" transform="translate(32.851 57.686)"/><rect class="g" width="0.139" height="1.139" transform="translate(39.981 57.686)"/><rect class="g" width="0.139" height="1.139" transform="translate(40.275 57.686)"/><rect class="g" width="0.138" height="1.139" transform="translate(40.561 57.686)"/><path class="g" d="M446.073,490.68v1.13a.276.276,0,0,1-.052,0h-.088v-1.138h.087a.287.287,0,0,1,.052,0" transform="translate(-405.16 -432.99)"/><path class="g" d="M446.311,490.791v.919a.3.3,0,0,1-.139.093v-1.1a.286.286,0,0,1,.139.093" transform="translate(-405.205 -432.994)"/><path class="e" d="M441.471,489.525v.643a.225.225,0,0,1-.051.139.294.294,0,0,1-.138.093.419.419,0,0,1-.055.013H428.979a.28.28,0,0,1-.3-.235v-.665a.279.279,0,0,1,.3-.235h12.213a.274.274,0,0,1,.037,0,.216.216,0,0,1,.055.012l.025.01.015.007h0l.015.008h0l.013.008a.148.148,0,0,1,.029.021l.009.007h0l.006,0h0l.008.008.012.014a.218.218,0,0,1,.05.139" transform="translate(-401.916 -432.727)"/><path class="g" d="M435.483,490.414h-6.536a.258.258,0,0,1-.263-.235v-.668a.257.257,0,0,1,.263-.235h5.732a.087.087,0,0,0,.008.026,1.986,1.986,0,0,0,.792,1.111Z" transform="translate(-401.916 -432.727)"/><rect class="g" width="0.139" height="1.139" transform="translate(37.932 56.55)"/><rect class="g" width="0.139" height="1.139" transform="translate(37.463 56.55)"/><rect class="g" width="0.139" height="1.139" transform="translate(36.9 56.55)"/><rect class="g" width="0.139" height="1.139" transform="translate(36.037 56.55)"/><rect class="g" width="0.139" height="1.139" transform="translate(35.125 56.55)"/><rect class="g" width="0.139" height="1.139" transform="translate(33.727 56.55)"/><rect class="g" width="0.139" height="1.139" transform="translate(32.418 56.55)"/><rect class="g" width="0.139" height="1.139" transform="translate(31.249 56.55)"/><rect class="g" width="0.139" height="1.139" transform="translate(38.379 56.55)"/><rect class="g" width="0.139" height="1.139" transform="translate(38.674 56.55)"/><rect class="g" width="0.139" height="1.139" transform="translate(38.958 56.55)"/><path class="g" d="M444.1,489.279v1.131a.361.361,0,0,1-.051,0h-.087v-1.138h.087a.272.272,0,0,1,.051,0" transform="translate(-404.79 -432.727)"/><path class="g" d="M444.338,489.39v.92a.307.307,0,0,1-.138.093v-1.1a.289.289,0,0,1,.138.093" transform="translate(-404.834 -432.731)"/><path class="e" d="M442.575,488.156v.642a.221.221,0,0,1-.051.139.294.294,0,0,1-.138.092.328.328,0,0,1-.055.013.317.317,0,0,1-.055,0H430.082a.345.345,0,0,1-.131-.026.257.257,0,0,1-.166-.2v-.68a.273.273,0,0,1,.26-.233H442.28a.419.419,0,0,1,.055,0,.319.319,0,0,1,.055.012.288.288,0,0,1,.139.093.218.218,0,0,1,.05.139" transform="translate(-402.123 -432.469)"/><path class="g" d="M436.584,489.044h-6.533a.281.281,0,0,1-.118-.026.25.25,0,0,1-.145-.2v-.678a.256.256,0,0,1,.232-.235h5.762a2,2,0,0,0,.764,1.112l.037.026" transform="translate(-402.124 -432.469)"/><rect class="g" width="0.139" height="1.138" transform="translate(38.829 55.438)"/><rect class="g" width="0.139" height="1.138" transform="translate(38.36 55.438)"/><rect class="g" width="0.139" height="1.138" transform="translate(37.797 55.438)"/><rect class="g" width="0.139" height="1.138" transform="translate(36.934 55.438)"/><rect class="g" width="0.139" height="1.138" transform="translate(36.023 55.438)"/><rect class="g" width="0.138" height="1.138" transform="translate(34.625 55.438)"/><rect class="g" width="0.139" height="1.138" transform="translate(33.315 55.438)"/><rect class="g" width="0.139" height="1.138" transform="translate(32.146 55.438)"/><rect class="g" width="0.139" height="1.138" transform="translate(39.275 55.438)"/><rect class="g" width="0.139" height="1.138" transform="translate(39.571 55.438)"/><rect class="g" width="0.139" height="1.138" transform="translate(39.856 55.438)"/><path class="g" d="M445.206,487.91v1.129a.372.372,0,0,1-.052,0h-.087v-1.138h.087a.276.276,0,0,1,.052,0" transform="translate(-404.997 -432.469)"/><path class="g" d="M445.443,488.019v.92a.3.3,0,0,1-.138.093v-1.1a.292.292,0,0,1,.138.093" transform="translate(-405.042 -432.473)"/><path class="e" d="M443.046,486.753v.643a.216.216,0,0,1-.05.138.288.288,0,0,1-.139.092.324.324,0,0,1-.055.014H430.554a.277.277,0,0,1-.3-.235v-.668a.28.28,0,0,1,.3-.235h12.2a.273.273,0,0,1,.051,0,.209.209,0,0,1,.055.012.285.285,0,0,1,.139.093.216.216,0,0,1,.05.139" transform="translate(-402.212 -432.205)"/><path class="g" d="M437.056,487.644h-6.534a.259.259,0,0,1-.264-.235v-.667a.259.259,0,0,1,.264-.235h5.731a2,2,0,0,0,.8,1.138h0" transform="translate(-402.212 -432.206)"/><rect class="g" width="0.139" height="1.138" transform="translate(39.21 54.301)"/><rect class="g" width="0.138" height="1.138" transform="translate(38.742 54.301)"/><rect class="g" width="0.139" height="1.138" transform="translate(38.179 54.301)"/><rect class="g" width="0.139" height="1.138" transform="translate(37.316 54.301)"/><rect class="g" width="0.138" height="1.138" transform="translate(36.405 54.301)"/><rect class="g" width="0.139" height="1.138" transform="translate(35.006 54.301)"/><rect class="g" width="0.139" height="1.138" transform="translate(33.696 54.301)"/><rect class="g" width="0.139" height="1.138" transform="translate(32.528 54.301)"/><rect class="g" width="0.139" height="1.138" transform="translate(39.658 54.301)"/><rect class="g" width="0.139" height="1.138" transform="translate(39.953 54.301)"/><rect class="g" width="0.138" height="1.138" transform="translate(40.238 54.301)"/><path class="g" d="M445.676,486.509v1.131a.361.361,0,0,1-.051,0h-.087v-1.138h.087c.017,0,.034,0,.051,0" transform="translate(-405.086 -432.206)"/><path class="g" d="M445.913,486.62v.92a.3.3,0,0,1-.139.093v-1.1a.3.3,0,0,1,.139.093" transform="translate(-405.13 -432.21)"/><path class="g" d="M468.506,492.958a6.084,6.084,0,1,1,6.084,6.084,6.084,6.084,0,0,1-6.084-6.084" transform="translate(-409.406 -432.275)"/><path class="g" d="M483.134,493.992q0,.287-.022.568h0c-.01.128-.023.254-.04.381a6.926,6.926,0,0,1-.137.761q-.055.225-.121.444a6.8,6.8,0,0,1-.244.666.183.183,0,0,1-.012.028c-.084.2-.176.391-.276.577a6.023,6.023,0,0,1-.322.534c-.007.011-.014.022-.022.032q-.067.1-.139.2a6.517,6.517,0,0,1-.8.909h-3.417a.262.262,0,0,1-.254-.184.092.092,0,0,1-.006-.026.065.065,0,0,1,0-.025v-.672a.116.116,0,0,1,0-.023.157.157,0,0,1,.006-.027.263.263,0,0,1,.254-.183h-1.3a.262.262,0,0,1-.254-.184.138.138,0,0,0-.006-.026.12.12,0,0,1,0-.024v-.693a.135.135,0,0,1,.007-.026.261.261,0,0,1,.253-.185h.509a.25.25,0,0,1-.14-.2v-.679a.117.117,0,0,1,0-.024.23.23,0,0,1,.006-.026.261.261,0,0,1,.253-.184h.293a.262.262,0,0,1-.254-.184.161.161,0,0,0-.006-.027.109.109,0,0,1,0-.024v-.671a.094.094,0,0,1,0-.022.258.258,0,0,1,.23-.212H476.3a.258.258,0,0,1-.253-.183.116.116,0,0,1-.008-.028v-.7a.256.256,0,0,1,.2-.221.259.259,0,0,1-.233-.209V492.5c0-.009,0-.018.008-.028a.261.261,0,0,1,.253-.183h.512a.251.251,0,0,1-.14-.2v-.68a.109.109,0,0,1,0-.024c0-.009,0-.018.006-.027a.263.263,0,0,1,.253-.184h1a.261.261,0,0,1-.253-.184.107.107,0,0,1-.006-.027.123.123,0,0,1,0-.024v-.671c0-.011,0-.022.006-.033a.261.261,0,0,1,.227-.2H476.3a.259.259,0,0,1-.253-.184.106.106,0,0,1-.008-.028v-.715a.106.106,0,0,1,.008-.028.259.259,0,0,1,.253-.184h.779a.245.245,0,0,1-.142-.184v-.716a.257.257,0,0,1,.23-.21h.384a.258.258,0,0,1-.231-.21.117.117,0,0,1,0-.024v-.254a5.6,5.6,0,0,1,2.025.484h0a6.019,6.019,0,0,1,1.656,1.111l.028.027a6.492,6.492,0,0,1,.658.728c.046.06.093.122.138.185s.092.129.136.2h0c.055.081.106.166.157.247s.093.158.138.24a6.667,6.667,0,0,1,.315.65,7.014,7.014,0,0,1,.363,1.111.107.107,0,0,0,.007.028l.027.122a7.257,7.257,0,0,1,.139.934c0,.016,0,.032,0,.049v.007c.014.185.022.373.022.561" transform="translate(-410.818 -432.356)"/><path class="e" d="M467.852,492.958a6.084,6.084,0,1,1,6.084,6.084h0a6.084,6.084,0,0,1-6.084-6.084" transform="translate(-409.283 -432.275)"/><path class="g" d="M474.061,498.715a5.544,5.544,0,1,1,3.92-1.624,5.545,5.545,0,0,1-3.92,1.624m0-10.756a5.212,5.212,0,1,0,5.212,5.212,5.212,5.212,0,0,0-5.212-5.212" transform="translate(-409.408 -432.416)"/><path class="g" d="M475.546,495.116a.88.88,0,0,0-.014-.322.659.659,0,0,0-.136-.266,1.232,1.232,0,0,0-.271-.24,3.364,3.364,0,0,0-.422-.237,8.507,8.507,0,0,1-.779-.428,2.776,2.776,0,0,1-.583-.473,1.627,1.627,0,0,1-.343-.577,1.674,1.674,0,0,1-.059-.739,1.641,1.641,0,0,1,.2-.648,1.533,1.533,0,0,1,.43-.478,1.96,1.96,0,0,1,.615-.294,2.633,2.633,0,0,1,.768-.088l.11-.913.736.087-.11.927a2.284,2.284,0,0,1,.693.295,1.732,1.732,0,0,1,.773,1.112,2.333,2.333,0,0,1,.031.784l-1.329-.157a1.129,1.129,0,0,0-.136-.793.781.781,0,0,0-.579-.326.991.991,0,0,0-.363.016.685.685,0,0,0-.265.127.64.64,0,0,0-.17.221.9.9,0,0,0-.08.29.839.839,0,0,0,.011.292.634.634,0,0,0,.131.256,1.281,1.281,0,0,0,.276.24,4.345,4.345,0,0,0,.438.253q.426.222.773.437a2.848,2.848,0,0,1,.58.478,1.74,1.74,0,0,1,.192,1.974,1.513,1.513,0,0,1-.432.473,1.848,1.848,0,0,1-.618.282,2.753,2.753,0,0,1-.773.081l-.1.852-.731-.087.1-.846a3.034,3.034,0,0,1-.718-.254,1.972,1.972,0,0,1-.589-.444,1.754,1.754,0,0,1-.369-.663,2.144,2.144,0,0,1-.061-.9l1.325.158a1.314,1.314,0,0,0,.026.516.837.837,0,0,0,.188.352.817.817,0,0,0,.3.209,1.382,1.382,0,0,0,.365.093,1.187,1.187,0,0,0,.386-.011.777.777,0,0,0,.292-.122.616.616,0,0,0,.193-.213.77.77,0,0,0,.09-.286" transform="translate(-410.13 -432.752)"/><path class="g" d="M430.082,476.444a6.876,6.876,0,1,1,6.877,6.876h0a6.876,6.876,0,0,1-6.875-6.876" transform="translate(-402.179 -429.02)"/><path class="e" d="M429.343,476.444a6.876,6.876,0,1,1,6.877,6.876h0a6.876,6.876,0,0,1-6.876-6.876h0" transform="translate(-402.04 -429.02)"/><path class="g" d="M436.358,482.95a6.266,6.266,0,1,1,4.429-1.836,6.265,6.265,0,0,1-4.429,1.836m0-12.156a5.891,5.891,0,1,0,5.891,5.891,5.891,5.891,0,0,0-5.891-5.891" transform="translate(-402.181 -429.18)"/><path class="g" d="M438.038,478.883a1.01,1.01,0,0,0-.015-.363.765.765,0,0,0-.153-.3,1.485,1.485,0,0,0-.308-.271,3.71,3.71,0,0,0-.477-.267,9.733,9.733,0,0,1-.88-.484,3.093,3.093,0,0,1-.658-.535,1.834,1.834,0,0,1-.386-.654,2.073,2.073,0,0,1,.166-1.565,1.767,1.767,0,0,1,.486-.54,2.172,2.172,0,0,1,.7-.331,2.924,2.924,0,0,1,.868-.1l.121-1.033.828.1-.124,1.049a2.644,2.644,0,0,1,.783.331,1.965,1.965,0,0,1,.874,1.257,2.584,2.584,0,0,1,.035.887l-1.5-.179a1.276,1.276,0,0,0-.156-.9.882.882,0,0,0-.654-.368,1.128,1.128,0,0,0-.411.017.761.761,0,0,0-.3.145.722.722,0,0,0-.193.248,1.039,1.039,0,0,0-.09.326.946.946,0,0,0,.013.331.718.718,0,0,0,.147.29,1.459,1.459,0,0,0,.311.271,4.774,4.774,0,0,0,.5.286q.481.247.87.5a3.122,3.122,0,0,1,.654.54,1.848,1.848,0,0,1,.386.655,2.083,2.083,0,0,1-.171,1.575,1.718,1.718,0,0,1-.488.535,2.09,2.09,0,0,1-.7.317,3.117,3.117,0,0,1-.871.093l-.114.959-.828-.1.113-.956a3.512,3.512,0,0,1-.812-.287,2.237,2.237,0,0,1-.663-.5,2,2,0,0,1-.417-.747,2.411,2.411,0,0,1-.069-1.016l1.5.178a1.5,1.5,0,0,0,.028.583.964.964,0,0,0,.214.4.933.933,0,0,0,.343.237,1.56,1.56,0,0,0,.411.1,1.315,1.315,0,0,0,.437-.012.885.885,0,0,0,.331-.136.72.72,0,0,0,.221-.24.879.879,0,0,0,.1-.323" transform="translate(-402.996 -429.559)"/><path class="h" d="M488.788,478.139s-.645.909-1.239.922a4.325,4.325,0,0,1-1.491-.421s-.544-1.215-.175-1.687a.792.792,0,0,1,.757.124,1.151,1.151,0,0,1,.2.192.64.64,0,0,0,.312.211c.424.13.925-.174,1.112.119a1.986,1.986,0,0,0,.327.386,1.369,1.369,0,0,0,.2.154" transform="translate(-412.65 -430.4)"/><path class="h" d="M479.114,485.2s2.285-5.534,6.4-5.641c0,0,3.8.423,4.008,5.641Z" transform="translate(-411.401 -430.899)"/><path class="i" d="M485.6,479.6a6.1,6.1,0,0,0,2.156.151.509.509,0,0,0-.4-.6.516.516,0,0,0-.214,0,1.452,1.452,0,0,1-.967-.255c-.257-.13-.641.408-.572.7" transform="translate(-412.62 -430.772)"/><path class="j" d="M487.275,478.231c-.106.08-.43-1.115-.43-1.115a1.142,1.142,0,0,1,.2.192.641.641,0,0,0,.312.211c0,.035.019.635-.082.711" transform="translate(-412.855 -430.439)"/><path class="j" d="M489.036,478.146a6.834,6.834,0,0,1-.888.47c-.106,0,.562-.857.562-.857a1.983,1.983,0,0,0,.327.386" transform="translate(-413.098 -430.561)"/><path class="k" d="M481.862,484.034c-.042-.036,1.617-2.443,2.074-2.46s1.483.527,2.227.6,1.463-.14,1.6.3.527,2,.29,2.246-5.282.1-6.194-.682" transform="translate(-411.918 -431.278)"/><path class="h" d="M461.361,468.745s-.511.718-.979.729a3.41,3.41,0,0,1-1.181-.331s-.43-.958-.138-1.333a.626.626,0,0,1,.6.1.94.94,0,0,1,.158.152.5.5,0,0,0,.245.166c.334.1.732-.137.88.093a1.553,1.553,0,0,0,.258.306,1.209,1.209,0,0,0,.158.122" transform="translate(-407.611 -428.682)"/><path class="h" d="M453.712,474.329s1.806-4.377,5.057-4.46c0,0,3,.331,3.169,4.46Z" transform="translate(-406.623 -429.076)"/><path class="i" d="M458.843,469.9a4.8,4.8,0,0,0,1.7.12.4.4,0,0,0-.319-.473.4.4,0,0,0-.169,0,1.151,1.151,0,0,1-.764-.2c-.2-.1-.507.322-.452.552" transform="translate(-407.587 -428.976)"/><path class="j" d="M460.161,468.816c-.084.063-.339-.883-.339-.883a.876.876,0,0,1,.158.152.52.52,0,0,0,.247.166c0,.028.015.5-.066.563" transform="translate(-407.773 -428.712)"/><path class="j" d="M461.557,468.749a5.275,5.275,0,0,1-.7.371c-.084,0,.444-.678.444-.678a1.58,1.58,0,0,0,.258.306" transform="translate(-407.965 -428.808)"/><path class="k" d="M455.885,473.4c-.034-.028,1.278-1.932,1.639-1.945s1.173.416,1.76.473,1.159-.11,1.27.235.417,1.579.229,1.776-4.176.077-4.9-.539" transform="translate(-407.032 -429.376)"/><path class="h" d="M448.024,485.547s1.257,1.77,2.41,1.8a8.4,8.4,0,0,0,2.9-.821s1.058-2.359.34-3.281a1.539,1.539,0,0,0-1.472.242,2.235,2.235,0,0,0-.39.374,1.236,1.236,0,0,1-.607.41c-.822.249-1.8-.339-2.163.23a3.779,3.779,0,0,1-.637.752,2.908,2.908,0,0,1-.39.3" transform="translate(-405.553 -431.574)"/><path class="h" d="M463.524,499.284s-4.444-10.767-12.442-10.971c0,0-7.382.819-7.792,10.971Z" transform="translate(-404.663 -432.545)"/><path class="i" d="M454.609,488.395s-3.206.713-4.2.294a.991.991,0,0,1,1.2-1.153,2.824,2.824,0,0,0,1.877-.5c.5-.254,1.247.794,1.115,1.355" transform="translate(-406 -432.298)"/><path class="j" d="M452.111,485.726c.2.155.835-2.167.835-2.167a2.178,2.178,0,0,0-.39.373,1.235,1.235,0,0,1-.6.409c0,.068-.039,1.235.16,1.384" transform="translate(-406.292 -431.651)"/><path class="j" d="M448.506,485.557a13.065,13.065,0,0,0,1.729.915c.2,0-1.093-1.668-1.093-1.668a3.843,3.843,0,0,1-.636.753" transform="translate(-405.644 -431.885)"/><path class="k" d="M460.04,497.012c.082-.071-3.144-4.748-4.03-4.785s-2.885,1.026-4.33,1.163-2.847-.276-3.121.581-1.025,3.885-.565,4.37,10.275.188,12.049-1.325" transform="translate(-405.52 -433.281)"/><path class="k" d="M447.388,468.485s-.1-.5,1.049-2.04c.249-.331,1.006-1.582,1.006-1.582a3.68,3.68,0,0,1,1.477.575l.08.048s.4,1.729-.45,1.534c-.027-.006-.055-.011-.08-.015-.818-.128-1.61.685-1.97,1.2-.235.335-.956.293-1.112.276" transform="translate(-405.434 -428.133)"/><path class="k" d="M454.872,464.349s-.1-.5,1.049-2.039c.249-.331,1.007-1.582,1.007-1.582a3.7,3.7,0,0,1,1.477.574l.079.049s.4,1.729-.45,1.533l-.08-.015c-.818-.127-1.61.685-1.97,1.2-.235.335-.956.292-1.112.276" transform="translate(-406.841 -427.355)"/><path class="g" d="M468.552,453.823c-.235-1.012-2.854-4.167-4.2-3.436s-.646,4.7.753,9.379c.021.071.043.142.065.214a60.465,60.465,0,0,0-6.171-.6l-.354,1.63a71.131,71.131,0,0,1,9.542,4.19c.792.359,1.721.359,1.91-.338.633-2.33-1.546-11.035-1.546-11.035" transform="translate(-407.552 -425.391)"/><path class="l" d="M462.167,471.28a103.252,103.252,0,0,0-9.649-3.8c-.453-.136-.869-.246-1.234-.323l.387-1.567s.359-.007.939-.006c2.276.006,7.975.133,8.993,1.25,1.276,1.4.567,4.443.567,4.443" transform="translate(-406.167 -428.271)"/><path class="l" d="M469.921,426.768a2.123,2.123,0,0,1,.221,1.361,1.236,1.236,0,0,0-.11.613l-.322.079-.386.094s-.02-.033-.051-.09a2.363,2.363,0,0,1-.113-.228.332.332,0,0,0-.182-.248.709.709,0,0,1-.368-.468c-.032-.192-.228-.549-.173-.585.135-.091.338.464.457.489a.117.117,0,0,0,.147-.068h0c.187-.454-.159-1.6.115-1.664.1-.024.679.525.762.718" transform="translate(-409.391 -420.835)"/><path class="l" d="M444.639,437.938a2.125,2.125,0,0,0,1.156.752,1.213,1.213,0,0,1,.6.147l.2-.262.242-.314s-.022-.033-.061-.083-.313-.281-.317-.462a.7.7,0,0,0-.276-.524c-.162-.107-.41-.43-.466-.394-.138.085.288.5.262.614a.118.118,0,0,1-.123.11h0c-.5-.019-1.4-.795-1.573-.571a2.164,2.164,0,0,0,.349.987" transform="translate(-404.851 -422.855)"/><path class="e" d="M460.7,454.794c-1.478.386-1.107,2.161-.887,7.041.026.552.076,1.086.15,1.594a43.256,43.256,0,0,0-7.111-.505A3.005,3.005,0,0,0,452.6,464a3.086,3.086,0,0,0,.542,1.684c3.654,1.093,9.273,2.938,9.273,2.938v0c.374.1.727-.089,1.008-.627,1.117-2.14,3.03-16.384,3.03-16.384.016-1.038-4.271,2.808-5.749,3.192" transform="translate(-406.414 -425.607)"/><path class="l" d="M459.493,441.366a4.027,4.027,0,0,0-.49-3.2l1.436.319.976.216a9.355,9.355,0,0,1,.373.952c.055.162.262.815.322,1.018.343.014-.15.534-.855.637a10.379,10.379,0,0,1-1.762.055" transform="translate(-407.619 -423.114)"/><path class="m" d="M461.522,438.779a9.314,9.314,0,0,1,.373.952,4.218,4.218,0,0,1-2.334-.566,2.732,2.732,0,0,1,.986-.6Z" transform="translate(-407.723 -423.188)"/><path class="l" d="M461.771,437.544s-1.664,1.841-2.8.786-2.107-1.526-1.092-2.745,1.656-1.044,2.12-.783,2.172,2.236,1.767,2.743" transform="translate(-407.328 -422.445)"/><path class="d" d="M458.7,437.917s.17-.189-.076-.435-.529-.6-.256-.71.425.058.433-.117a.955.955,0,0,1,.3-1.159c.632-.552,1.079-.535,1.277-.91s-.15-.852-.15-.852a.681.681,0,0,1-.046.391s-.043-1.1-1.011-1.11-1.321.78-1.645,1.072c-.718.641-1.163,1.073-1.018,1.759a3.463,3.463,0,0,0,2.195,2.071" transform="translate(-407.143 -422.145)"/><path class="n" d="M461.489,437.615l.617-.581s.252.387.076.552-.693.028-.693.028" transform="translate(-408.086 -422.9)"/><path class="d" d="M466.992,432.659a16.627,16.627,0,0,0-1.059-3.43l-.865-.041s.1,2.213.074,3.762a3.289,3.289,0,0,1-.423,1.535c-.27.36-4.229,4.171-4.362,4.293l0,0h0c-.421.071-.374.763-.807.879-.722.193-1.92-.158-2.562.079,0,0-5.141.006-5.923-.369s-3.834-2.626-3.834-2.626l-.565.658s2.094,4.031,3.754,4.758a31.488,31.488,0,0,0,4.51,1.22,1.816,1.816,0,0,1,1.349,1.24,20.873,20.873,0,0,1,.758,9.066,9.553,9.553,0,0,0,3.282-.342,17.6,17.6,0,0,0,4.094-1.722c.667-.808.273-3.772.273-3.772a2.859,2.859,0,0,1,.614,1.325c.11.6.171.93.208,1.14a.271.271,0,0,0,.427.171,3.926,3.926,0,0,0,.982-.939c.533-1.01-.652-5.128-2.288-8a1.608,1.608,0,0,1,.031-1.647,27.307,27.307,0,0,0,2.572-4.689,21,21,0,0,0-.236-2.553" transform="translate(-405.298 -421.425)"/><path class="e" d="M461.152,442.51a3.975,3.975,0,0,1,.368,3.851c-1.012,1.893-4.988,1.63-5.724,4l.447,1.472,1.662-.9a2.407,2.407,0,0,1,1.774-1.833c3.194-1.084,3.963-2.957,3.293-4.633a5.572,5.572,0,0,0-1.387-2.1Z" transform="translate(-407.015 -423.903)"/><path class="e" d="M459.693,441.217l1.6.529.079.3-2-.047a2.887,2.887,0,0,1,.317-.784" transform="translate(-407.689 -423.687)"/><path class="e" d="M462.651,440.675l.055.828s.21.172.207.149.45-.71.45-.71a4.616,4.616,0,0,0-.71-.266" transform="translate(-408.305 -423.585)"/><path class="g" d="M461.719,441.8l.817-.276a.124.124,0,0,1,.159.076.141.141,0,0,1,.006.027l.067.549a.123.123,0,0,1-.084.132l-.359.123a.131.131,0,0,1-.116-.019l-.524-.4a.126.126,0,0,1-.024-.175.129.129,0,0,1,.059-.042" transform="translate(-408.114 -423.744)"/><path class="k" d="M469.264,429.045l-.071.688s.866.013.866,0,.027-.34.027-.34l.145.38.322-.106-.369-.622a1.337,1.337,0,0,1-.92,0" transform="translate(-409.535 -421.398)"/><path class="k" d="M447.228,438.5l-.565.658.166.643.229-.158-.113-.483.4.326.512-.678Z" transform="translate(-405.298 -423.176)"/><path class="o" d="M447.207,439.229a.055.055,0,1,1,.058.052h-.006a.051.051,0,0,1-.052-.052" transform="translate(-405.4 -423.302)"/><path class="o" d="M470.062,429.57a.042.042,0,0,1,.042-.041.04.04,0,0,1,.041.041.041.041,0,0,1-.041.041.042.042,0,0,1-.042-.042" transform="translate(-409.699 -421.489)"/><path class="o" d="M468.383,449.261a.11.11,0,1,1,.11.11h0a.11.11,0,0,1-.11-.11" transform="translate(-409.383 -425.179)"/><path class="o" d="M467.29,446.985a.11.11,0,1,1,.11.11h0a.111.111,0,0,1-.11-.11" transform="translate(-409.177 -424.751)"/><path class="o" d="M465.788,445.262a.11.11,0,1,1,.11.11h0a.11.11,0,0,1-.11-.11" transform="translate(-408.895 -424.427)"/></g></g></g></g></g></svg>