<svg xmlns="http://www.w3.org/2000/svg" xmlns:xlink="http://www.w3.org/1999/xlink" width="137.817" height="137.816" viewBox="0 0 137.817 137.816"><defs><style>.a{fill:url(#a);}.b{fill:url(#d);}.c{filter:url(#e);}.d{filter:url(#b);}</style><linearGradient id="a" y1="0.5" x2="1" y2="0.5" gradientUnits="objectBoundingBox"><stop offset="0" stop-color="#2bd67b"/><stop offset="1" stop-color="#166c3d"/></linearGradient><filter id="b" x="0" y="0" width="137.817" height="137.816" filterUnits="userSpaceOnUse"><feOffset dx="3" dy="3" input="SourceAlpha"/><feGaussianBlur stdDeviation="10" result="c"/><feFlood flood-color="#161f2d" flood-opacity="0.302"/><feComposite operator="in" in2="c"/><feComposite in="SourceGraphic"/></filter><linearGradient id="d" x1="0.5" x2="0.5" y2="1" gradientUnits="objectBoundingBox"><stop offset="0" stop-color="#eafbf3"/><stop offset="1" stop-color="#a0edc4"/></linearGradient><filter id="e" x="40.771" y="47.845" width="51.637" height="44.371" filterUnits="userSpaceOnUse"><feOffset dx="2" dy="2" input="SourceAlpha"/><feGaussianBlur stdDeviation="1.5" result="f"/><feFlood flood-opacity="0.161"/><feComposite operator="in" in2="f"/><feComposite in="SourceGraphic"/></filter></defs><g transform="translate(27 27)"><g class="d" transform="matrix(1, 0, 0, 1, -27, -27)"><rect class="a" width="77.817" height="77.817" rx="20" transform="translate(27 27)"/></g><g class="c" transform="matrix(1, 0, 0, 1, -27, -27)"><path class="b" d="M2017.62,438.993a9.453,9.453,0,0,1-1.727-.778q-6.409-4.575-12.772-9.213a1.808,1.808,0,0,1-.181-3.055q6.374-6.137,12.752-12.27c.1-.093.186-.193.287-.281.352-.307.59-.661.243-1.093s-.745-.233-1.126.009q-8.911,5.654-17.822,11.31a4.539,4.539,0,0,1-4.212.5c-2.333-.836-4.682-1.627-7.024-2.437-1.085-.375-1.6-.961-1.6-1.813,0-.835.484-1.423,1.519-1.815q16.193-6.128,32.389-12.249c1.712-.647,3.432-1.275,5.138-1.94a2.482,2.482,0,0,1,2.752.389,2.525,2.525,0,0,1,.749,2.623q-3.137,14.227-6.256,28.457c-.11.5-.2,1.01-.343,1.5A3.128,3.128,0,0,1,2017.62,438.993Z" transform="translate(-1941.17 -353.28)"/></g></g></svg>