<svg xmlns="http://www.w3.org/2000/svg" xmlns:xlink="http://www.w3.org/1999/xlink" width="545.587" height="545.587" viewBox="0 0 545.587 545.587"><defs><style>.a{fill:#ffafc4;}.b{clip-path:url(#a);}.c{fill:#ff0144;}.d{fill:#cc0136;}.e{fill:#ffd7e1;}.f{fill:#ff799d;}.g{fill:#ff4575;}</style><clipPath id="a"><circle class="a" cx="230" cy="230" r="230" transform="translate(382 4299)"/></clipPath></defs><g class="b" transform="translate(4575.582 -1267.465) rotate(78)"><path class="c" d="M2622,6462V6225.727l286.641,22.218-26.914,418.741-125.637-17.8Z" transform="translate(-2010 -1933)"/><path class="d" d="M2593.247,6232l29.448,230.639V6209.685Z" transform="translate(-2010 -1933)"/><path class="e" d="M2486.355,6276.818l136.083,185.921-30.9-246.847-105.178,37.526Z" transform="translate(-2010 -1933)"/><path class="f" d="M2403.5,6390.685l219.118,72.332-150.131-233.771-73.563,104.615Z" transform="translate(-2010 -1933)"/><path class="g" d="M2486.355,6648.353l135.9-185.828-234.7-83.238-13,251.657Z" transform="translate(-2010 -1933)"/><path class="a" d="M2756.561,6648.353l-134.49-187.266L2486.53,6648.353l-6.873,23.64,226.393,86.407Z" transform="translate(-2010 -1933)"/></g></svg>