<svg xmlns="http://www.w3.org/2000/svg" xmlns:xlink="http://www.w3.org/1999/xlink" width="676" height="545.587" viewBox="0 0 676 545.587"><defs><style>.a,.l{fill:#ffafc4;}.b{clip-path:url(#a);}.c,.m{fill:#ff0144;}.d{fill:#cc0136;}.e,.j{fill:#ffd7e1;}.f{fill:#ff799d;}.g,.k{fill:#ff4575;}.h,.i,.o{fill:none;}.h,.i{stroke:#ffafc4;stroke-linecap:round;stroke-width:2px;}.h{stroke-linejoin:round;}.j,.k,.l,.m{stroke:#800022;}.n{stroke:none;}</style><clipPath id="a"><circle class="a" cx="230" cy="230" r="230" transform="translate(382 4299)"/></clipPath></defs><g transform="translate(-330 -4300.392)"><g class="b" transform="translate(4985.582 3032.927) rotate(78)"><path class="c" d="M2622,6462V6225.727l286.641,22.218-26.914,418.741-125.637-17.8Z" transform="translate(-2010 -1933)"/><path class="d" d="M2593.247,6232l29.448,230.639V6209.685Z" transform="translate(-2010 -1933)"/><path class="e" d="M2486.355,6276.818l136.083,185.921-30.9-246.847-105.178,37.526Z" transform="translate(-2010 -1933)"/><path class="f" d="M2403.5,6390.685l219.118,72.332-150.131-233.771-73.563,104.615Z" transform="translate(-2010 -1933)"/><path class="g" d="M2486.355,6648.353l135.9-185.828-234.7-83.238-13,251.657Z" transform="translate(-2010 -1933)"/><path class="a" d="M2756.561,6648.353l-134.49-187.266L2486.53,6648.353l-6.873,23.64,226.393,86.407Z" transform="translate(-2010 -1933)"/></g><path class="h" d="M2790.342,6309.556v-74.43H3010.4" transform="translate(-2010 -1913)"/><path class="i" d="M2863.039,6373.209h147.41" transform="translate(-2010 -1913)"/><path class="h" d="M2903.23,6432.425h71.679V6574.4h34.569" transform="translate(-2010 -1914)"/><path class="h" d="M2551.442,6330.937v-73.185H2349.8" transform="translate(-2010 -1913)"/><path class="i" d="M2438.487,6451.02H2345.45v-29.788h-53.518" transform="translate(-1955.629 -1913)"/><path class="h" d="M2577.738,6670.157H2419.614v-85.073h-70.44" transform="translate(-2010 -1913)"/><g class="j" transform="translate(536 4411)"><circle class="n" cx="6" cy="6" r="6"/><circle class="o" cx="6" cy="6" r="5.5"/></g><g class="k" transform="translate(333 4339)"><circle class="n" cx="6" cy="6" r="6"/><circle class="o" cx="6" cy="6" r="5.5"/></g><g class="k" transform="translate(994 4316)"><circle class="n" cx="6" cy="6" r="6"/><circle class="o" cx="6" cy="6" r="5.5"/></g><g class="k" transform="translate(994 4454)"><circle class="n" cx="6" cy="6" r="6"/><circle class="o" cx="6" cy="6" r="5.5"/></g><g class="k" transform="translate(994 4654)"><circle class="n" cx="6" cy="6" r="6"/><circle class="o" cx="6" cy="6" r="5.5"/></g><g class="l" transform="translate(330 4502)"><circle class="n" cx="6" cy="6" r="6"/><circle class="o" cx="6" cy="6" r="5.5"/></g><g class="m" transform="translate(333 4666)"><circle class="n" cx="6" cy="6" r="6"/><circle class="o" cx="6" cy="6" r="5.5"/></g><g class="j" transform="translate(477 4532)"><circle class="n" cx="6" cy="6" r="6"/><circle class="o" cx="6" cy="6" r="5.5"/></g><g class="j" transform="translate(562 4751)"><circle class="n" cx="6" cy="6" r="6"/><circle class="o" cx="6" cy="6" r="5.5"/></g><g class="j" transform="translate(774 4391)"><circle class="n" cx="6" cy="6" r="6"/><circle class="o" cx="6" cy="6" r="5.5"/></g><g class="j" transform="translate(847 4454)"><circle class="n" cx="6" cy="6" r="6"/><circle class="o" cx="6" cy="6" r="5.5"/></g><g class="j" transform="translate(887 4513)"><circle class="n" cx="6" cy="6" r="6"/><circle class="o" cx="6" cy="6" r="5.5"/></g></g></svg>