<svg xmlns="http://www.w3.org/2000/svg" xmlns:xlink="http://www.w3.org/1999/xlink" width="101.56" height="90" viewBox="0 0 101.56 90"><defs><style>.a{fill:none;}.b{fill:#ff4575;}.c{clip-path:url(#a);}.d{clip-path:url(#b);}.e{fill:#e5fbf2;}.f{opacity:0.998;isolation:isolate;}.g{clip-path:url(#c);}.h{fill:#00da71;}.i{fill:#fff;}.j{fill:#006e38;}.k{fill:#de002f;}.l{fill:#8b001f;}.m{fill:#ff6e9c;}.n{fill:#550012;}.o{fill:#ff003b;}.p{fill:#8d4237;}.q{fill:#ffd4e0;}.r{fill:#00994f;}</style><clipPath id="a"><rect class="a" width="101.56" height="90"/></clipPath><clipPath id="b"><rect class="a" width="101.56" height="90.652"/></clipPath><clipPath id="c"><rect class="b" width="81.326" height="53.872"/></clipPath></defs><g transform="translate(0 18)"><g class="c" transform="translate(0 -18)"><g transform="translate(0 -0.652)"><g class="d"><path class="e" d="M33.291,97.24c-17.737-12.1-21.118-52.393-1.945-70.481,20.26-19.112,82.367-2.538,82.788,30.318S51.281,109.51,33.291,97.24" transform="translate(-15.491 -0.103)"/><path class="e" d="M61.684.575c-6.514-2.509-11.9,3.754-11.323,7.832s13.584,2.379,15.221.36-2.1-7.5-3.9-8.192" transform="translate(-19.456 2.216)"/><g class="f" transform="translate(7.702 29.118)"><g class="g"><path class="b" d="M92.408,86.383H11.082V32.511H92.408Zm-81.193-.134H92.273v-53.6H11.215Z" transform="translate(-11.082 -32.511)"/><rect class="b" width="81.191" height="0.134" transform="translate(0.068 9.159)"/><rect class="b" width="81.191" height="0.134" transform="translate(0.068 18.319)"/><rect class="b" width="81.191" height="0.134" transform="translate(0.068 27.477)"/><rect class="b" width="81.191" height="0.134" transform="translate(0.068 36.637)"/><rect class="b" width="81.191" height="0.134" transform="translate(0.068 45.795)"/><rect class="b" width="0.134" height="53.737" transform="translate(8.571 0.068)"/><rect class="b" width="0.134" height="53.737" transform="translate(16.539 0.068)"/><rect class="b" width="0.134" height="53.737" transform="translate(24.508 0.068)"/><rect class="b" width="0.134" height="53.737" transform="translate(32.477 0.068)"/><rect class="b" width="0.134" height="53.737" transform="translate(40.446 0.068)"/><rect class="b" width="0.133" height="53.737" transform="translate(48.414 0.068)"/><rect class="b" width="0.134" height="53.737" transform="translate(56.382 0.068)"/><rect class="b" width="0.134" height="53.737" transform="translate(64.351 0.068)"/><rect class="b" width="0.134" height="53.737" transform="translate(72.319 0.068)"/></g></g><path class="h" d="M55.633,62.392A1.149,1.149,0,0,1,54.767,62l-18-20.685L19.214,60.679a1.149,1.149,0,0,1-1.7-1.544L35.937,38.811a1.183,1.183,0,0,1,.863-.377,1.15,1.15,0,0,1,.855.395l17.664,20.3,8.943-20.018a1.149,1.149,0,0,1,1.627-.524L83.658,48.942,101.88,28a1.149,1.149,0,0,1,1.733,1.508L84.768,51.168a1.15,1.15,0,0,1-1.445.238L65.838,41.22,56.682,61.712a1.148,1.148,0,0,1-.879.667,1.079,1.079,0,0,1-.17.013" transform="translate(-5.25 3.973)"/><path class="h" d="M134.444,24.985l6.815,6.328,1.3-7.993Z" transform="translate(-41.001 5.28)"/><path class="h" d="M46.731,44.329a3.62,3.62,0,1,1-3.62-3.62,3.62,3.62,0,0,1,3.62,3.62" transform="translate(-12.044 -0.024)"/><path class="i" d="M45.678,45.152a1.743,1.743,0,1,1-1.743-1.743,1.743,1.743,0,0,1,1.743,1.743" transform="translate(-12.867 -0.847)"/><path class="h" d="M88.335,44.329a3.62,3.62,0,1,1-3.62-3.62,3.62,3.62,0,0,1,3.62,3.62" transform="translate(-24.731 -0.024)"/><path class="i" d="M87.282,45.152a1.743,1.743,0,1,1-1.743-1.743,1.743,1.743,0,0,1,1.743,1.743" transform="translate(-25.555 -0.847)"/><path class="h" d="M115.193,58.2a3.62,3.62,0,1,1-3.62-3.62,3.62,3.62,0,0,1,3.62,3.62" transform="translate(-32.922 -4.254)"/><path class="i" d="M114.14,59.025a1.743,1.743,0,1,1-1.743-1.743,1.743,1.743,0,0,1,1.743,1.743" transform="translate(-33.746 -5.078)"/><path class="j" d="M96.919,15.64H90.579a5.385,5.385,0,0,1-5.385-5.385V7.372a4.083,4.083,0,0,1,4.083-4.083h7.642A4.084,4.084,0,0,1,101,7.372v4.185a4.083,4.083,0,0,1-4.083,4.083" transform="translate(-25.981 11.388)"/><path class="i" d="M100.275,7.412l-.7-.141a.06.06,0,0,1-.044-.044l-.141-.7c-.017-.082-.078-.1-.137-.042L98.236,7.5a.156.156,0,0,0-.038.127l.1.5-2.4,2.366a.264.264,0,1,0,.373.373l2.4-2.366.5.1a.159.159,0,0,0,.128-.038l1.013-1.013c.059-.059.04-.12-.042-.136" transform="translate(-29.221 10.425)"/><path class="i" d="M95.968,9.952l.442-.442a.032.032,0,0,0-.006-.051,2.408,2.408,0,1,0,.856.857.03.03,0,0,0-.051-.006l-.443.441a.066.066,0,0,0-.012.068,1.73,1.73,0,1,1-.855-.855.066.066,0,0,0,.068-.012" transform="translate(-28.294 9.608)"/><path class="i" d="M97.889,9.205l-.449.45a.065.065,0,0,0-.013.068A3.084,3.084,0,1,1,95.8,8.1a.068.068,0,0,0,.068-.013l.449-.45a.029.029,0,0,0-.008-.049,3.768,3.768,0,1,0,1.626,1.626.029.029,0,0,0-.049-.008" transform="translate(-27.697 10.205)"/><path class="k" d="M11.552,44.03H7.927A5.447,5.447,0,0,1,2.48,38.583V35.667a4.13,4.13,0,0,1,4.13-4.13h4.942a4.13,4.13,0,0,1,4.129,4.13V39.9a4.129,4.129,0,0,1-4.129,4.13" transform="translate(-0.756 2.774)"/><path class="i" d="M6.93,38.445a.586.586,0,0,1-.3-1.093L9.128,35.9a.587.587,0,0,1,.767.159l.294.4,1.667-1.081a.586.586,0,0,1,.44-1.047l1.174.174a.586.586,0,0,1,.233,1.072l-3.339,2.165a.587.587,0,0,1-.79-.144l-.311-.422L7.224,38.365a.582.582,0,0,1-.295.08" transform="translate(-1.934 1.923)"/><path class="i" d="M15.615,36.888a.587.587,0,0,1-.55-.788l.419-1.138a.586.586,0,1,1,1.1.4L16.164,36.5a.586.586,0,0,1-.55.384" transform="translate(-4.583 1.846)"/><rect class="i" width="1.173" height="2.326" transform="translate(5.264 41.447)"/><rect class="i" width="1.173" height="3.01" transform="translate(6.902 40.763)"/><rect class="i" width="1.173" height="3.734" transform="translate(8.581 40.039)"/><rect class="i" width="1.173" height="4.351" transform="translate(10.276 39.423)"/><path class="k" d="M43.675,16.7a2.929,2.929,0,1,1-2.917-2.948A2.932,2.932,0,0,1,43.675,16.7" transform="translate(-11.533 8.196)"/><path class="i" d="M42.011,17.967a.731.731,0,0,1-.95,0,1.125,1.125,0,0,0-.654,1.017.07.07,0,0,0,.07.07l2.109.008a.07.07,0,0,0,.071-.07,1.126,1.126,0,0,0-.646-1.022" transform="translate(-12.323 6.913)"/><path class="i" d="M41.776,16.2a.6.6,0,1,0,.594.6.6.6,0,0,0-.594-.6" transform="translate(-12.557 7.451)"/><path class="l" d="M40.064,76.173A6.533,6.533,0,1,1,33.53,69.64a6.533,6.533,0,0,1,6.533,6.533" transform="translate(-8.233 -8.847)"/><path class="m" d="M38.688,76.173a6.534,6.534,0,1,1-6.533-6.533,6.534,6.534,0,0,1,6.533,6.533" transform="translate(-7.814 -8.847)"/><path class="l" d="M37.962,76.741A5.24,5.24,0,1,1,32.722,71.5a5.241,5.241,0,0,1,5.241,5.241" transform="translate(-8.381 -9.414)"/><path class="l" d="M27.873,77.033a5.24,5.24,0,0,1,8.166-4.347A5.239,5.239,0,1,0,29.413,80.8a5.5,5.5,0,0,1-1.541-3.77" transform="translate(-8.381 -9.414)"/><path class="i" d="M36.118,78.656a.42.42,0,0,1,0,.593,2.549,2.549,0,0,1-1.074.644v.68a.431.431,0,1,1-.859.082.4.4,0,0,1,0-.082V80a2.126,2.126,0,0,1-.4-.051v.623a.432.432,0,1,1-.86.082.4.4,0,0,1,0-.082v-.966a2.5,2.5,0,0,1-.445-.357,2.568,2.568,0,0,1,0-3.631,2.692,2.692,0,0,1,.445-.358V74.29a.432.432,0,0,1,.86,0v.624a3.319,3.319,0,0,1,.4-.051v-.576a.431.431,0,0,1,.859,0v.685a2.513,2.513,0,0,1,1.074.644.42.42,0,0,1-.594.593,1.746,1.746,0,0,0-.669-.42A1.778,1.778,0,0,0,34.3,75.7h-.021a1.729,1.729,0,0,0,0,3.457H34.3a1.847,1.847,0,0,0,.553-.087,1.7,1.7,0,0,0,.669-.419.425.425,0,0,1,.594,0" transform="translate(-9.677 -10.144)"/><rect class="l" width="15.528" height="1.971" transform="translate(15.733 85.52)"/><rect class="n" width="2.953" height="1.971" transform="translate(17.339 85.52)"/><rect class="m" width="2.165" height="1.971" transform="translate(27.247 85.52)"/><rect class="l" width="15.528" height="1.971" transform="translate(15.733 81.578)"/><rect class="n" width="2.953" height="1.971" transform="translate(17.339 81.578)"/><rect class="m" width="2.165" height="1.971" transform="translate(27.247 81.578)"/><rect class="l" width="15.528" height="1.971" transform="translate(15.733 75.666)"/><rect class="n" width="2.953" height="1.971" transform="translate(17.339 75.666)"/><rect class="m" width="2.165" height="1.971" transform="translate(27.247 75.666)"/><rect class="l" width="15.528" height="1.97" transform="translate(17.581 87.492)"/><rect class="n" width="2.953" height="1.97" transform="translate(19.187 87.492)"/><rect class="m" width="2.165" height="1.97" transform="translate(29.096 87.492)"/><rect class="l" width="15.528" height="1.97" transform="translate(17.581 79.608)"/><rect class="n" width="2.953" height="1.97" transform="translate(19.187 79.608)"/><rect class="m" width="2.165" height="1.97" transform="translate(29.096 79.608)"/><rect class="l" width="15.528" height="1.97" transform="translate(17.581 73.695)"/><rect class="n" width="2.953" height="1.97" transform="translate(19.187 73.695)"/><rect class="m" width="2.165" height="1.97" transform="translate(29.096 73.695)"/><rect class="l" width="15.528" height="1.97" transform="translate(17.581 77.637)"/><rect class="n" width="2.953" height="1.97" transform="translate(19.187 77.637)"/><rect class="m" width="2.165" height="1.97" transform="translate(29.096 77.637)"/><rect class="l" width="15.528" height="1.97" transform="translate(17.581 83.55)"/><rect class="n" width="2.953" height="1.97" transform="translate(19.187 83.55)"/><rect class="m" width="2.165" height="1.97" transform="translate(29.096 83.55)"/><rect class="o" width="13.68" height="0.502" transform="translate(17.581 87.24)"/><rect class="o" width="13.68" height="0.502" transform="translate(17.581 85.269)"/><rect class="o" width="13.68" height="0.502" transform="translate(17.581 83.299)"/><rect class="o" width="13.68" height="0.502" transform="translate(17.581 81.328)"/><rect class="o" width="15.528" height="0.502" transform="translate(17.582 79.356)"/><rect class="o" width="15.528" height="0.502" transform="translate(17.582 77.386)"/><rect class="o" width="13.68" height="0.502" transform="translate(17.581 75.415)"/><path class="i" d="M24.712,97.027h0A1.331,1.331,0,0,0,23.381,95.7a1.331,1.331,0,0,0,1.331-1.331A1.331,1.331,0,0,0,26.043,95.7a1.331,1.331,0,0,0-1.331,1.331" transform="translate(-7.13 -16.387)"/><path class="i" d="M43.637,80.689h0a1.817,1.817,0,0,0-1.817-1.818,1.817,1.817,0,0,0,1.817-1.818,1.818,1.818,0,0,0,1.818,1.818,1.818,1.818,0,0,0-1.818,1.818" transform="translate(-12.754 -11.108)"/><path class="p" d="M99.035,92.625l.243-4.655,2.287.3-.45,4.87-2.187-.388Z" transform="translate(-30.169 -14.436)"/><path d="M99.661,93.672s-1.54.794-2.394-.386l-4.151,2.231,7.11-.045Z" transform="translate(-28.397 -16.058)"/><rect class="i" width="7.11" height="0.643" transform="translate(64.719 79.459) rotate(-0.364)"/><path class="k" d="M101.33,50.159s-2.052,1.211-2.3,7.982-.667,20.152-.667,20.152h3.46L103.6,54.221l-.466-4.062Z" transform="translate(-29.998 -2.905)"/><path class="p" d="M107.579,92.625l-.224-4.655,2.287.3.017,4.87-2.187-.388Z" transform="translate(-32.739 -14.436)"/><path d="M108.256,93.656s-1.768.757-2.622-.423L101.711,95.5l7.11-.045Z" transform="translate(-31.018 -16.042)"/><path class="i" d="M101.715,97.119l7.11-.045,0-.643-7.11.045Z" transform="translate(-31.018 -17.017)"/><path class="k" d="M107.839,51.317a9.516,9.516,0,0,1,1.77,6.612l-.1,20.692-3.932-.1-1.245-27.439Z" transform="translate(-31.817 -3.186)"/><path d="M104.336,64.007a.109.109,0,0,1-.109-.1l-.22-5.377-1.264-1.448a.108.108,0,0,1,.163-.142l1.29,1.476a.1.1,0,0,1,.027.067l.222,5.415a.109.109,0,0,1-.1.113Z" transform="translate(-31.325 -4.961)"/><path d="M108.607,27.674s2.141-1.872,3.442-.781a3.837,3.837,0,0,1,.982,3.114,3.186,3.186,0,0,0,.1,1.12,2.268,2.268,0,0,0,1.113,1.266l-3.3,1.339s.554-1.238-.115-1.764-1.348-.63-1.5-1.228c-.215-.867,1.468-2.832-.487-2.289Z" transform="translate(-33.121 4.294)"/><path class="k" d="M107.464,27.825s.917-.677,1.287.2c.288.686.147,1.1-.43,1.13s-.858-1.331-.858-1.331" transform="translate(-32.773 3.982)"/><path class="p" d="M102.844,33.633,102.9,36.8l2.333.182L105,32.1Z" transform="translate(-31.364 2.603)"/><path d="M102.871,35.907l1.65-1.779-1.677.124Z" transform="translate(-31.364 1.983)"/><path class="p" d="M100.836,27.49a1.108,1.108,0,0,0-.441.585,7.584,7.584,0,0,0-.556,2.971,1.991,1.991,0,0,0,2.276,1.693,2.616,2.616,0,0,0,2.185-2.057c.9-3.107-1.655-4.363-3.463-3.192" transform="translate(-30.438 4.139)"/><path d="M103.969,30.286a2.777,2.777,0,0,1-.163-2.1,26.519,26.519,0,0,1-3.105-.426s.626-2.063,3.6-1.168c3.089.929,2.615,4.555.133,5.57Z" transform="translate(-30.71 4.35)"/><path class="p" d="M106.8,32.422a.924.924,0,1,1-.465-1.221.923.923,0,0,1,.465,1.221" transform="translate(-32.03 2.901)"/><path d="M102.586,26.36c-.551-.029-2.253-.134-3.088.753a.6.6,0,0,0,.431.983l3.169.575a.638.638,0,0,0,.72-.4l.158-.48a.587.587,0,0,0-.246-.66l-.621-.537a1.5,1.5,0,0,0-.523-.238" transform="translate(-30.298 4.358)"/><path class="p" d="M84.115,38.593l4.423,4.2a1.209,1.209,0,0,0,1.9-.3l.426-1.179-6.178-4.142Z" transform="translate(-25.652 1.054)"/><path class="p" d="M84.2,37.59a1.351,1.351,0,1,1-.868-1.7,1.351,1.351,0,0,1,.868,1.7" transform="translate(-24.874 1.467)"/><path class="p" d="M83.219,35.447l-1.442-.965a.233.233,0,0,0-.318.047.2.2,0,0,0,.026.271l1.377,1.245Z" transform="translate(-24.83 1.888)"/><path class="p" d="M91.217,41.58l5.7-2.1-.267,2.692a27.239,27.239,0,0,1-5,1.638c-1.931.3-.43-2.226-.43-2.226" transform="translate(-27.648 0.352)"/><path class="q" d="M99.3,39.109s-.056-.706-1.489-.432a19.161,19.161,0,0,0-4.195,1.58l2.141,3.67L99.816,42.4Z" transform="translate(-28.551 0.615)"/><path class="q" d="M105.927,37.937l-2.314-.193-3.727.638a41.687,41.687,0,0,0,.337,8.264,1.011,1.011,0,0,0,1.056.789l5.381.076a2.118,2.118,0,0,0,.768-1.649l-.386-7.392c-.013-.231-.884-.511-1.114-.533" transform="translate(-30.441 0.881)"/><path d="M99.791,44.215a.114.114,0,0,1-.114-.113L99.654,42a.114.114,0,0,1,.113-.115h0a.113.113,0,0,1,.114.113L99.9,44.1a.113.113,0,0,1-.113.115Z" transform="translate(-30.391 -0.381)"/><path class="p" d="M105.7,37.847l-1.676-.168-2.22.458a1.548,1.548,0,0,0,1.8,1.517,2.249,2.249,0,0,0,2.091-1.806" transform="translate(-31.046 0.901)"/><path class="p" d="M115.539,45.449l.653-1.246-3.258-3.135c-.537-.667-3.12-2.717-3.608-2.014-.359.516,1.05,3.366,1.5,3.8l3.345,3.021Z" transform="translate(-33.323 0.525)"/><path class="q" d="M107.142,37.938a8.162,8.162,0,0,1,2.708.513,9.311,9.311,0,0,1,3.585,3.03l-2.907,2.46-3.99-3.216Z" transform="translate(-32.49 0.822)"/><path d="M109.779,44.7a.112.112,0,0,1-.069-.023l-1.68-1.271a.114.114,0,0,1,.138-.181l1.68,1.271a.114.114,0,0,1-.07.2" transform="translate(-32.932 -0.784)"/><path class="p" d="M114.686,46.54l-4.119,3.9.937,1.092,5.078-3.328a1.268,1.268,0,1,0-1.9-1.667" transform="translate(-33.719 -1.643)"/><path class="p" d="M106.055,52.307l1.432-.761-.148-.314a.28.28,0,0,1,.42-.345l1.385,1.024L110.081,53c-.768.683-1.278.683-1.575.56-.033.012-.067.025-.1.035l-1.195.366a.229.229,0,0,1-.3-.1c-.04-.078-.057-.2.172-.325l-.229.122a.237.237,0,0,1-.311-.111c-.054-.1.008-.238.141-.328l-.176.072a.243.243,0,0,1-.329-.138.253.253,0,0,1,.126-.306l.254-.134-.3.079a.265.265,0,0,1-.344-.165.274.274,0,0,1,.14-.322" transform="translate(-32.297 -3.111)"/><rect class="l" width="18.411" height="2.337" transform="translate(61.634 84.859)"/><rect class="n" width="3.502" height="2.337" transform="translate(63.538 84.859)"/><rect class="m" width="2.567" height="2.337" transform="translate(75.286 84.859)"/><rect class="l" width="18.411" height="2.337" transform="translate(61.634 80.186)"/><rect class="n" width="3.502" height="2.337" transform="translate(63.538 80.186)"/><rect class="m" width="2.567" height="2.337" transform="translate(75.286 80.186)"/><rect class="l" width="18.411" height="2.337" transform="translate(63.826 87.196)"/><rect class="n" width="3.502" height="2.337" transform="translate(65.729 87.196)"/><rect class="m" width="2.567" height="2.337" transform="translate(77.478 87.196)"/><rect class="l" width="18.411" height="2.337" transform="translate(63.826 82.522)"/><rect class="n" width="3.502" height="2.337" transform="translate(65.729 82.522)"/><rect class="m" width="2.567" height="2.337" transform="translate(77.478 82.522)"/><rect class="o" width="16.221" height="0.595" transform="translate(63.826 86.899)"/><rect class="o" width="16.221" height="0.595" transform="translate(63.826 84.562)"/><rect class="o" width="16.221" height="0.595" transform="translate(63.826 82.225)"/><rect class="r" width="99.726" height="0.509" transform="translate(0 89.278)"/></g></g></g></g></svg>