<svg xmlns="http://www.w3.org/2000/svg" xmlns:xlink="http://www.w3.org/1999/xlink" width="138" height="138" viewBox="0 0 138 138"><defs><style>.a{fill:url(#a);}.b{fill:url(#d);}.c{filter:url(#e);}.d{filter:url(#b);}</style><linearGradient id="a" y1="0.5" x2="1" y2="0.5" gradientUnits="objectBoundingBox"><stop offset="0" stop-color="#2bd67b"/><stop offset="1" stop-color="#166c3d"/></linearGradient><filter id="b" x="0" y="0" width="138" height="138" filterUnits="userSpaceOnUse"><feOffset dx="3" dy="3" input="SourceAlpha"/><feGaussianBlur stdDeviation="10" result="c"/><feFlood flood-color="#161f2d" flood-opacity="0.302"/><feComposite operator="in" in2="c"/><feComposite in="SourceGraphic"/></filter><linearGradient id="d" x1="0.5" x2="0.5" y2="1" gradientUnits="objectBoundingBox"><stop offset="0" stop-color="#eafbf3"/><stop offset="1" stop-color="#a0edc4"/></linearGradient><filter id="e" x="41.354" y="45.582" width="52.624" height="44.573" filterUnits="userSpaceOnUse"><feOffset dx="2" dy="2" input="SourceAlpha"/><feGaussianBlur stdDeviation="1.5" result="f"/><feFlood flood-opacity="0.161"/><feComposite operator="in" in2="f"/><feComposite in="SourceGraphic"/></filter></defs><g transform="translate(26.779 26.738)"><g class="d" transform="matrix(1, 0, 0, 1, -26.78, -26.74)"><rect class="a" width="78" height="78" rx="20" transform="translate(27 27)"/></g><g class="c" transform="matrix(1, 0, 0, 1, -26.78, -26.74)"><path class="b" d="M473.46,1053.791a22.419,22.419,0,0,1-.093-2.6,8.511,8.511,0,0,1,5.555-7.725,8.609,8.609,0,0,1,9.631,1.871.651.651,0,0,0,.675.177,18.247,18.247,0,0,0,4.845-1.839c.1-.056.2-.106.3-.155.02-.01.049,0,.118,0a9.242,9.242,0,0,1-3.692,4.782,16.2,16.2,0,0,0,4.806-1.266l.089.109c-.715.835-1.394,1.7-2.155,2.5a23.276,23.276,0,0,1-1.984,1.745.686.686,0,0,0-.276.613,25.92,25.92,0,0,1-5.476,16.646,23.788,23.788,0,0,1-15.157,9.228,25.9,25.9,0,0,1-13.736-1.157,23.985,23.985,0,0,1-4.84-2.422,18.311,18.311,0,0,0,13.205-3.724,9.1,9.1,0,0,1-5.179-1.791,8.941,8.941,0,0,1-3.173-4.424,9.361,9.361,0,0,0,3.911-.173,8.978,8.978,0,0,1-7.027-8.87,9.438,9.438,0,0,0,3.983,1.055,8.976,8.976,0,0,1-3.715-5.461,8.876,8.876,0,0,1,.977-6.465A25.64,25.64,0,0,0,473.46,1053.791Z" transform="translate(-408.22 -994.65)"/></g></g></svg>