<svg xmlns="http://www.w3.org/2000/svg" width="582.423" height="320.072" viewBox="0 0 582.423 320.072"><defs><style>.a{fill:#f5fffa;}.b{fill:#dcf4e9;}.c{fill:#de002f;}.d{fill:#00df86;}.e{fill:#3f5478;}.f{fill:#3be7a4;}.g{fill:#e5fbf2;}.h{fill:#363f46;}.i{fill:#8d4237;}.j{fill:#6d2922;}.k{fill:#0f2f4e;}.l{fill:#ffb094;opacity:0.3;mix-blend-mode:multiply;isolation:isolate;}.m{fill:#495a63;}.n{fill:#00994f;}.o{fill:#283237;}.p{opacity:0.2;}.q{fill:#e09c75;}</style></defs><g transform="translate(0 0)"><path class="a" d="M415.827,514.412c-.82-2.478-2.609-4.333-4.058-6.379-6.453-9.11-12.183-18.584-15.069-29.588a99.4,99.4,0,0,1-2.5-13,159.183,159.183,0,0,1-1.455-18.567,69.13,69.13,0,0,1,3.128-19.85,141,141,0,0,1,10.516-25.734c2.634-5.041,5.5-9.955,8.33-14.888,6.2-10.822,13.19-21.145,19.452-31.928,1.779-3.064,3.686-6.105,4.378-9.717a32.736,32.736,0,0,0,.159-10.45c-1.134-8.664-4.163-16.831-6.657-25.133-1.615-5.378-3.312-10.762-4.02-16.336a40.493,40.493,0,0,1,.587-12.736,73.3,73.3,0,0,1,9.364-24.135,63.638,63.638,0,0,1,7.217-9.785c1.467-1.629,2.742-3.436,4.355-4.936a101.9,101.9,0,0,1,38.788-23.109,99.171,99.171,0,0,1,19.711-4.361c3.971-.422,7.937-.772,11.915-1.086a56.263,56.263,0,0,1,8.475-.331c4.225.309,8.46.455,12.686.838,3.645.329,7.3.678,10.89,1.277,4.827.806,9.657,1.7,14.415,2.945,6.377,1.666,12.741,3.377,18.953,5.6,6.529,2.342,12.991,4.861,19.3,7.8,6.917,3.226,13.746,6.63,20.576,10.042,10.5,5.244,21.08,10.312,32.316,13.758a105.106,105.106,0,0,0,16.065,3.532c3.231.459,6.525-.174,9.677.869,3.755-1.036,7.628-.152,11.439-.8,2.936-.5,5.923-.809,8.889-1.174,3.636-.447,7.194-1.291,10.8-1.864,4.51-.717,9.017-1.468,13.5-2.315,5.317-1,10.727-1.171,16.06-2.013a1.147,1.147,0,0,1,.251-.011c4.179.266,8.321-.561,12.485-.5,5.488.083,10.964.535,16.443.9a157.685,157.685,0,0,1,19.239,2.679,139.85,139.85,0,0,1,23.271,6.8,119.893,119.893,0,0,1,13.691,6.3,108.166,108.166,0,0,1,17.746,11.9,87.49,87.49,0,0,1,6.887,6.3,100.8,100.8,0,0,1,14.615,18.754,104.32,104.32,0,0,1,10.6,24.248,92.8,92.8,0,0,1,3.371,16.463,112.259,112.259,0,0,1,.965,12.977,124.271,124.271,0,0,1-3.736,29.808,83.119,83.119,0,0,1-12.683,27.375c-3.156,4.506-6.267,9.046-9.048,13.818-3.022,5.186-5.411,10.6-6.079,16.652a20.284,20.284,0,0,0,1.381,9.273c2.282,6.16,4.278,12.421,4.93,18.966a55.386,55.386,0,0,1-.185,12.013,75.3,75.3,0,0,1-4.69,17.713c-1.171,3.1-2.54,6.128-3.82,9.187a4.953,4.953,0,0,0-.679,1.912,1.919,1.919,0,0,1-1.53.734c-6.2.065-12.412.48-18.6-.231-1.665-1.315-.426-2.709.08-3.887A88.293,88.293,0,0,0,834.17,494.7c2.329-10.859,1.949-21.747.364-32.666-1.412-9.734-3.353-19.393-4.158-29.212a91.933,91.933,0,0,1,2.395-28.276c1.881-8.166,4-16.271,5.886-24.437,3.768-16.293,3.477-32.6.4-48.912a99.9,99.9,0,0,0-20.552-45.155,83.428,83.428,0,0,0-50.932-30.371,101.765,101.765,0,0,0-22.186-2,144.267,144.267,0,0,0-54.65,12.9c-7.271,3.268-14.57,6.478-22.03,9.3-14.556,5.5-29.28,5.4-44.18,1.778-9.693-2.357-19.149-5.54-28.694-8.411a174.321,174.321,0,0,0-41.366-7.532c-18.177-.94-35.758,1.517-52.433,8.943-22.986,10.237-39.226,27.334-47.546,51.74a74.018,74.018,0,0,0-2.429,38c1.336,7.147,2.688,14.3,3.645,21.506a63.56,63.56,0,0,1-4.694,34.377c-3.2,7.349-6.717,14.552-9.61,22.04a107.3,107.3,0,0,0-3.565,62.026,65.029,65.029,0,0,0,3.877,11.11c.5,1.125,1.269,2.359-.178,3.427a9.642,9.642,0,0,1-3.7.38c-6.156.012-12.313.024-18.469-.009C418.14,515.237,416.835,515.442,415.827,514.412Z" transform="translate(-343.23 -195.239)"/><path class="b" d="M375.9,317.784a48.812,48.812,0,0,1,17.189,2.939c4.485,1.665,8.534,4.062,11.481,7.9,3.207,4.176,4.836,8.862,3.137,14.318a32.874,32.874,0,0,1-6.755,11.53c-4.885,5.742-10.341,10.923-15.462,16.429a47.329,47.329,0,0,0-5.456,6.971,27.762,27.762,0,0,1-6.86,7.416c-5.194,3.885-10.976,4.5-17.062,2.109-6.82-2.681-11.694-7.728-15.92-13.543a37.984,37.984,0,0,1-6.165-13.893,34.633,34.633,0,0,1,8.385-30.232,32.737,32.737,0,0,1,12.74-8.355,57.453,57.453,0,0,1,13.077-3.149C370.647,317.9,373.038,317.906,375.9,317.784Z" transform="translate(-333.284 -212.887)"/><path class="b" d="M1017.639,468.521c.177,7.956-3.208,12.77-9.221,15.939a27.4,27.4,0,0,1-14.429,3.443c-4.787-.27-9.33-1.426-12.939-5.169-3.18-3.3-3.7-7.121-2.752-11.336a31.508,31.508,0,0,1,2.5-6.684c2.1-4.368,4.27-8.685,5.4-13.473a10.473,10.473,0,0,1,1.984-3.825c2.51-3.283,5.94-3.692,9.51-2.922,3.895.841,7.206,3.011,10.29,5.583a28.25,28.25,0,0,1,7.175,8.721C1016.875,462.108,1017.949,465.556,1017.639,468.521Z" transform="translate(-441.118 -234.029)"/><path class="b" d="M964.561,240.2c.075,5.908-.97,10.907-4.016,15.345a9.028,9.028,0,0,1-11.052,3.343,17.144,17.144,0,0,1-5.252-3.407c-2.068-1.983-4.275-3.818-6.259-5.876a73.85,73.85,0,0,0-8.564-7.431c-4.871-3.708-5.925-9.069-3.144-14.294,3.146-5.911,7.973-10.089,14.558-11.523a17.763,17.763,0,0,1,13.676,2.334c5.926,3.7,8.426,9.363,9.57,16A26.762,26.762,0,0,1,964.561,240.2Z" transform="translate(-432.233 -195.841)"/><path class="c" d="M789.976,202.867a10.619,10.619,0,1,1-10.427-11.053A10.619,10.619,0,0,1,789.976,202.867Z" transform="translate(-406.133 -191.813)"/><path class="d" d="M371.27,536.911a4.258,4.258,0,0,1-4.293,4.324,4.473,4.473,0,0,1-4.235-4.472,4.359,4.359,0,0,1,4.38-4.273A4.159,4.159,0,0,1,371.27,536.911Z" transform="translate(-338.212 -248.805)"/><path class="c" d="M421.182,246.015a4.279,4.279,0,0,1-4.069,4.07,4.046,4.046,0,0,1-3.957-4.344,3.926,3.926,0,0,1,4.109-3.878A4.075,4.075,0,0,1,421.182,246.015Z" transform="translate(-346.645 -200.186)"/><path class="d" d="M1027.1,419.392a3.928,3.928,0,0,1-4.03-3.974,4.085,4.085,0,0,1,4.061-4.264,4.249,4.249,0,0,1,3.973,4.169A4.08,4.08,0,0,1,1027.1,419.392Z" transform="translate(-448.678 -228.506)"/><path class="c" d="M1022.41,311.56a3.144,3.144,0,0,1,3.189,3.211,3.26,3.26,0,0,1-3.231,3.462,3.544,3.544,0,0,1-3.291-3.261A3.321,3.321,0,0,1,1022.41,311.56Z" transform="translate(-448.011 -211.846)"/><path class="e" d="M495.367,200.333a3.277,3.277,0,1,1-6.554-.029,3.5,3.5,0,0,1,3.439-3.35A3.4,3.4,0,0,1,495.367,200.333Z" transform="translate(-359.302 -192.672)"/><path class="e" d="M990.511,228.867a3.514,3.514,0,0,1-3.33-3.434,3.551,3.551,0,0,1,3.294-3.235,3.2,3.2,0,0,1,3.193,3.467A3.087,3.087,0,0,1,990.511,228.867Z" transform="translate(-442.674 -196.896)"/><path class="c" d="M993.281,548.038a3.419,3.419,0,0,1,3.175,3.338,3.465,3.465,0,0,1-3.1,3.167,3.364,3.364,0,0,1-3.26-3.232A3.268,3.268,0,0,1,993.281,548.038Z" transform="translate(-443.163 -251.406)"/><path class="d" d="M744.886,216.126a2.721,2.721,0,0,1,2.451,2.726,2.565,2.565,0,1,1-5.115-.235A2.686,2.686,0,0,1,744.886,216.126Z" transform="translate(-401.695 -195.88)"/><path class="f" d="M388.219,270.432c-.124.811-.535,1.3-1.334,1.268a1.246,1.246,0,0,1-1.346-1.466,1.259,1.259,0,0,1,1.578-1.217C387.931,269.112,388.195,269.707,388.219,270.432Z" transform="translate(-342.024 -204.726)"/><path class="g" d="M532.5,522.59h-82.3c-.145-2.392-1.655-4.247-2.432-6.4a86.77,86.77,0,0,1-4.109-16.035c-.585-3.7-.874-7.42-1.087-11.167-.136-2.372-.637-4.783-.334-7.127.621-4.807.57-9.656,1.3-14.472a103.731,103.731,0,0,1,4.518-18.556c1.424-4.108,3.136-8.094,4.937-12.032,2.654-5.8,5.392-11.568,7.5-17.6,1.971-5.629,3.473-11.39,3.274-17.469-.052-1.625-.07-3.256,0-4.879.172-3.785-.625-7.451-1.146-11.158-.956-6.812-2.566-13.506-3.433-20.336a77.427,77.427,0,0,1-.933-13.487,80.271,80.271,0,0,1,4.955-24.914,84.428,84.428,0,0,1,8.153-16.137A88.622,88.622,0,0,1,487.487,292.4a91.058,91.058,0,0,1,19.032-12.638,97.892,97.892,0,0,1,25.094-8.422,111.077,111.077,0,0,1,18.051-2.168c2.389-.078,4.811-.517,7.215-.372,4.394.265,8.793.436,13.182.893,2.895.3,5.766.7,8.649,1.078a146.015,146.015,0,0,1,16.6,3.411c6.718,1.683,13.294,3.865,19.9,5.931a214.894,214.894,0,0,0,21.954,5.911,84.633,84.633,0,0,0,9.622,1.327,69.189,69.189,0,0,0,6.968.418,68.364,68.364,0,0,0,19.145-3.12c7.751-2.42,15.134-5.816,22.539-9.136A167.575,167.575,0,0,1,725.4,264.9a111.981,111.981,0,0,1,17.19-2.881c4.558-.348,9.107-1.092,13.676-.912a133.013,133.013,0,0,1,18.579,1.836,92.947,92.947,0,0,1,19.87,5.857,86.764,86.764,0,0,1,15.971,9c5.776,4.064,10.565,9.179,15.3,14.33a72.947,72.947,0,0,1,9.651,13.644,105.37,105.37,0,0,1,9.335,21.214,144.252,144.252,0,0,1,4.289,19.654c1.354,8.681,1.028,17.39.825,26.077a73.339,73.339,0,0,1-2.555,16.081q-3.205,12.735-6.145,25.539c-.848,3.716-1.309,7.519-1.822,11.311a79.6,79.6,0,0,0-.346,13.3,110.6,110.6,0,0,0,1.636,14.166c.818,5.025,1.551,10.066,2.313,15.1q.667,4.405,1.3,8.816a16.884,16.884,0,0,1,.191,2.287c.021,3.767-.008,7.535.019,11.3.039,5.417-1.119,10.636-2.39,15.845a94.019,94.019,0,0,1-5.4,15.128,5.966,5.966,0,0,0-.241.985l-82.3,0c-.426-1.566.493-2.814,1.01-4.122,1.892-4.79,3.463-9.625,3.338-14.9a28.268,28.268,0,0,0-1.954-10.275c-2.452-5.881-1.2-11.217,1.8-16.383,1.407-2.427,2.867-4.827,4.459-7.137,5.741-8.332,8.047-17.672,8.285-27.785a57.242,57.242,0,0,0-4.986-25.93c-6.6-14.219-17.663-23.185-31.935-28.217-14.745-5.2-29.8-5.4-45.041-2.579a132.046,132.046,0,0,1-16.856,2.456c-9.871.537-18.823-2.4-27.5-6.682-7.83-3.862-15.467-8.125-23.6-11.334a85.587,85.587,0,0,0-38.34-6.115,50.476,50.476,0,0,0-32.1,14.135,37.91,37.91,0,0,0-11.655,24.113,21.959,21.959,0,0,0,.951,7.089c1.367,5.911,3.423,11.629,4.573,17.611a15.764,15.764,0,0,1-2.118,11.3c-4.988,8.611-10.381,16.981-14.8,25.931-3.417,6.926-6.383,14.138-6.464,21.951-.1,9.521.865,19,5.936,27.433,1.446,2.4,2.843,4.842,4.506,7.1A2.318,2.318,0,0,1,532.5,522.59Z" transform="translate(-351.493 -203.401)"/><path class="b" d="M548.277,543.018c-1.535-2.735-3.358-5.285-5.053-7.911a39.764,39.764,0,0,1-5.473-14.443c-.616-3.263-.744-6.583-1.1-9.872-.848-7.855,1.386-14.955,4.228-22,3.133-7.772,7.523-14.836,11.744-22,1.938-3.287,3.931-6.539,5.811-9.86,2.08-3.672,2.108-7.555,1.149-11.614-1.2-5.058-2.651-10.038-4.132-15-1.878-6.3-.9-12.234,1.281-18.211a42.6,42.6,0,0,1,8.464-13.476,37.7,37.7,0,0,1,9.883-7.748c4.9-2.773,9.962-5.2,15.54-6.244,3.675-.687,7.317-1.588,11.1-1.428,1.837.077,3.681.056,5.519.005a66.554,66.554,0,0,1,15.322,1.81c9.382,1.937,18.177,5.539,26.742,9.823,6.074,3.039,11.969,6.456,18.325,8.9a48.257,48.257,0,0,0,17.489,3.709c5.794,0,11.4-.993,17.067-1.939,4.005-.669,8.012-1.371,12.06-1.854a82.157,82.157,0,0,1,15-.309c13.522.862,26.263,4.545,37.383,12.806a51.56,51.56,0,0,1,17.061,22.3,59.859,59.859,0,0,1,3.875,14.759c.32,2.353.01,4.79.139,7.18a53.9,53.9,0,0,1-2.094,17.175,39.4,39.4,0,0,1-4.493,10.255c-2.13,3.466-4.386,6.851-6.518,10.316a20.129,20.129,0,0,0-2.85,9.417,12.007,12.007,0,0,0,1.059,4.955,33.125,33.125,0,0,1,2.367,12.446,30.488,30.488,0,0,1-1.317,8.29,75.957,75.957,0,0,1-3.725,9.77Z" transform="translate(-367.275 -223.829)"/></g><g transform="translate(163.518 11.825)"><g transform="translate(64.712)"><g transform="translate(37.011)"><path class="h" d="M719.164,319.1c5.925-3.725,9.044-10.675,10.528-17.514s1.67-13.926,3.423-20.7c1.307-5.05-1.779-12.443,2.171-15.849,4.943-4.263,3.676-13.739.989-18.21-2.925-4.866-9.57-7.914-10.2-9.494-1.645-4.149,1.5-9.267-.424-13.294-4.515-9.467-12.4-7.14-12.4-7.14-4.236-3.975-9.944-9.214-18.26-10.272-9.014-1.147-22.092-1.182-29.277,4.38s-12.5,9.342-13.91,18.32" transform="translate(-651.812 -206.013)"/></g><path class="i" d="M717.226,261.258a42.77,42.77,0,0,0-46.677-34.44l-2.2.242c-23.583,4-33.363,26.259-28.714,49.723l13.549,119.093,59.169-6.286-6.271-45.512s22.427-6.058,20.2-28.9C725.2,304.144,721.141,281.611,717.226,261.258Z" transform="translate(-612.575 -209.45)"/><g transform="translate(0 12.155)"><g transform="translate(37.011)"><path class="h" d="M653.3,229.921a17.375,17.375,0,0,0,22.5,14.432c3.76-1.194,7.73-3.676,11.324-2.05,3.779,1.71,4.6,6.975,8.048,9.277,4.932,3.289,11.534-1.227,17.386-.273,4.519.737,7.769,4.552,11.108,7.685s8.1,5.911,12.285,4.064a51.55,51.55,0,0,0-3.207-11.4,17.326,17.326,0,0,0-7.8-8.626c-1.952-.944-4.136-1.393-5.981-2.531-3.986-2.458-5.47-7.43-8.221-11.22a19.046,19.046,0,0,0-15.608-7.715c-5.02.125-9.938,2.262-14.925,1.66-3.686-.446-7.1-2.367-10.807-2.593-7.217-.442-13.123,5.448-17.59,11.134" transform="translate(-651.812 -220.61)"/></g><g transform="translate(0 4.456)"><path class="h" d="M669.69,237.974c-3.273-.5-10-1.725-12.04-4.248-4.438-5.482-11.442-8.719-18.024-7.513a16.065,16.065,0,0,0-12.743,14.423c-8.012,1.082-15.2,7.115-18.08,15.185a26.778,26.778,0,0,0,3.86,24.613c1.364,1.77,3.029,3.5,3.349,5.761.4,2.8-1.4,5.285-2.564,7.79-3.187,6.831-1.781,15.478,2.182,21.971s6.444,8.637,11.013,9.456c8.939,1.6,2.6,19.982,16.9,18.161l-3.643-51.6a5.1,5.1,0,0,0,1.4.322c8.708.837,7.721-15.837,5.229-20.326a49.608,49.608,0,0,0,7.357-10.012c1.9-3.752,2.755-13.432,1.716-17.61C658.677,244.14,671.128,238.193,669.69,237.974Z" transform="translate(-607.365 -225.961)"/></g></g><g transform="translate(19.582 82.536)"><path class="i" d="M645.065,305.4c-.408-.125-16.185-2.912-13.972,12.631s17.361,10.113,17.325,9.664S645.065,305.4,645.065,305.4Z" transform="translate(-630.88 -305.131)"/><g transform="translate(4.091 5.449)"><path class="j" d="M643.654,323.579c-.076-.041-.244.227-.672.5a2.731,2.731,0,0,1-2.018.33c-1.728-.369-3.481-2.778-3.956-5.568a9.051,9.051,0,0,1,.206-3.985,3.158,3.158,0,0,1,1.741-2.368,1.391,1.391,0,0,1,1.7.515c.271.4.216.729.3.744.049.033.3-.308.079-.932a1.741,1.741,0,0,0-.749-.887,2.064,2.064,0,0,0-1.554-.182,3.842,3.842,0,0,0-2.485,2.813,9.276,9.276,0,0,0-.322,4.465c.546,3.118,2.566,5.821,4.906,6.15a2.933,2.933,0,0,0,2.418-.764C643.679,323.958,643.711,323.6,643.654,323.579Z" transform="translate(-635.794 -311.675)"/></g></g><g transform="translate(10.336 108.916)"><path class="h" d="M620.537,338.82a9.733,9.733,0,0,1,.11,14.866,6.433,6.433,0,0,0,4.933,1.015c.854,1.885-1.733,3.577-2.041,5.623a3.554,3.554,0,0,0,1.516,3.211,8.746,8.746,0,0,0,3.433,1.375,35.177,35.177,0,0,0,11.023.691c2.145-.2,4.514-.762,5.686-2.571.974-1.5.835-3.442.661-5.225l-1.3-13.327a6.341,6.341,0,0,0-1.172-3.7c-1-1.122-2.63-1.376-4.123-1.56l-19.485-2.409" transform="translate(-619.777 -336.81)"/></g><g transform="translate(53.396 51.004)"><circle class="k" cx="3.088" cy="3.088" r="3.088" transform="translate(11.509 21.904)"/><path class="k" d="M679.633,303.258a10.129,10.129,0,0,1,6.388-11.216,7.666,7.666,0,0,1,4.58-.282.293.293,0,0,1,.2.36.3.3,0,0,1-.206.2,21.247,21.247,0,0,0-3.837,1.456,12.436,12.436,0,0,0-3.2,2.249,12.171,12.171,0,0,0-3.369,7.2.285.285,0,0,1-.315.253A.289.289,0,0,1,679.633,303.258Z" transform="translate(-672.821 -271.323)"/><circle class="k" cx="3.088" cy="3.088" r="3.088" transform="translate(38.42 8.949)"/><path class="k" d="M711.951,287.7a10.131,10.131,0,0,1,6.388-11.216,7.667,7.667,0,0,1,4.58-.282.292.292,0,0,1,.2.36.3.3,0,0,1-.206.2,21.4,21.4,0,0,0-3.837,1.456,12.434,12.434,0,0,0-3.2,2.25,12.161,12.161,0,0,0-3.369,7.2.287.287,0,0,1-.316.254A.292.292,0,0,1,711.951,287.7Z" transform="translate(-678.227 -268.72)"/><path class="k" d="M671.489,293.746a11.81,11.81,0,0,1,.758-4.2,13.938,13.938,0,0,1,2.159-3.785,13.607,13.607,0,0,1,3.278-2.969,9.258,9.258,0,0,1,4.2-1.431,1.251,1.251,0,0,1,.659,2.358l-.045.023c-1.1.568-2.144,1.1-3.158,1.73a16.515,16.515,0,0,0-2.883,2.159,15.5,15.5,0,0,0-2.371,2.828,15.754,15.754,0,0,0-1.7,3.427l0,.006a.461.461,0,0,1-.9-.149Z" transform="translate(-671.488 -269.622)"/><path class="k" d="M702.29,267.268a17.947,17.947,0,0,1,3.55.646,19.548,19.548,0,0,0,3.54.554,21.693,21.693,0,0,0,3.656-.087,24.044,24.044,0,0,0,3.7-.726.461.461,0,0,1,.57.316.467.467,0,0,1-.174.5,14.239,14.239,0,0,1-3.635,1.869,16.576,16.576,0,0,1-4.065.876,17.81,17.81,0,0,1-4.213-.121,7.318,7.318,0,0,1-3.876-1.671,1.239,1.239,0,0,1,.885-2.16Z" transform="translate(-676.414 -267.264)"/></g><g transform="translate(65.958 67.037)"><rect class="l" width="10.181" height="4.266" rx="1.532" transform="translate(0 29.17) rotate(-27.549)"/><rect class="l" width="10.181" height="4.266" rx="1.532" transform="translate(34.622 9.114) rotate(-27.549)"/><path class="j" d="M710.718,310.494a.687.687,0,0,0,.151-.082l4.12-2.963a6.908,6.908,0,0,0,.391-10.913l-11.829-9.86a.677.677,0,1,0-.868,1.04l11.828,9.86a5.555,5.555,0,0,1-.314,8.774l-4.119,2.963a.677.677,0,0,0,.64,1.182Z" transform="translate(-689.229 -286.518)"/></g><path class="j" d="M712.746,366.036s-21.139-.534-34.4-8.221c0,0,8.8,18.181,35.279,15.353Z" transform="translate(-619.24 -231.409)"/><g transform="translate(80.714 105.261)"><path class="k" d="M704.465,332.433c.522-.241,1.932,3.328,5.985,4.664s7.7-.55,7.926-.062c.137.2-.576,1.027-2.166,1.7a9.561,9.561,0,0,1-6.537.254,8.324,8.324,0,0,1-4.789-4C704.161,333.549,704.212,332.508,704.465,332.433Z" transform="translate(-704.295 -332.421)"/></g><g transform="translate(16.159 24.013)"><path class="m" d="M629.261,277.969a3.442,3.442,0,0,1-.535-.393,5.767,5.767,0,0,1-1.162-1.511,8.248,8.248,0,0,1-.113-6.853,11.434,11.434,0,0,1,2.848-3.917,23.974,23.974,0,0,1,4.533-3.2c1.7-.967,3.531-1.854,5.339-2.921a18.478,18.478,0,0,0,5-4.03,20.333,20.333,0,0,0,3.1-5.643c.763-1.959,1.374-3.908,2.113-5.717a21.269,21.269,0,0,1,2.648-4.878,10.758,10.758,0,0,1,3.66-3.173,7.943,7.943,0,0,1,6.838-.221,5.405,5.405,0,0,1,1.536,1.128,3.438,3.438,0,0,1,.4.53,6.541,6.541,0,0,0-2.014-1.491,7.84,7.84,0,0,0-6.61.355,10.5,10.5,0,0,0-3.5,3.108,21.216,21.216,0,0,0-2.557,4.806c-.719,1.791-1.321,3.74-2.085,5.721a20.607,20.607,0,0,1-3.164,5.778,18.756,18.756,0,0,1-5.131,4.128c-1.834,1.076-3.676,1.955-5.36,2.9a23.978,23.978,0,0,0-4.482,3.1,11.206,11.206,0,0,0-2.805,3.757,8.167,8.167,0,0,0-.032,6.641A6.967,6.967,0,0,0,629.261,277.969Z" transform="translate(-626.77 -234.851)"/></g></g><g transform="translate(8.739 136.069)"><path class="n" d="M540.147,465.27s25.066-72.932,29.587-76.32c14.7-11.017,62.029-19.532,62.029-19.532s11.894,31.408,33.78,31.182c22.056-.227,29.141-23.818,29.141-23.818s25.492-1.282,38.226,4.817c5.091,2.438,38.718,68.812,38.718,68.812l-31,14.8,10.285,75.172-184.96.074,1.755-74.542Z" transform="translate(-540.147 -369.418)"/><g transform="translate(30.558 26.16)"><path class="o" d="M590.647,414.217c-.092.094-3.255-2.825-7.065-6.52s-6.827-6.767-6.736-6.861,3.254,2.825,7.066,6.521S590.738,414.123,590.647,414.217Z" transform="translate(-576.844 -400.833)"/></g><g transform="translate(91.49 9.764)"><path class="o" d="M654.718,381.179a39.622,39.622,0,0,0-4.693,2.6,6.65,6.65,0,0,1,4.693-2.6Z" transform="translate(-650.018 -381.144)"/></g><g transform="translate(98.673 18.989)"><path class="o" d="M658.68,396.015a4.294,4.294,0,0,1,3.186-3.771c.059.127-.958.642-1.827,1.688C659.153,394.963,658.815,396.052,658.68,396.015Z" transform="translate(-658.643 -392.222)"/></g><g transform="translate(104.977 24.953)"><path class="o" d="M666.231,403.505a12.4,12.4,0,0,1,2.515-4.117,12.376,12.376,0,0,1-2.515,4.117Z" transform="translate(-666.214 -399.384)"/></g><g transform="translate(116.649 30.052)"><path class="o" d="M680.308,409.617a9.247,9.247,0,0,1,.626-4.109,9.213,9.213,0,0,1-.626,4.109Z" transform="translate(-680.231 -405.508)"/></g><g transform="translate(126.014 30.617)"><path class="o" d="M692.913,411.629c-.139,0-.217-1.26-.611-2.745s-.928-2.628-.807-2.7a7.157,7.157,0,0,1,1.418,5.441Z" transform="translate(-691.477 -406.185)"/></g><g transform="translate(137.585 28.156)"><path class="o" d="M707.284,409.238a29.169,29.169,0,0,1-.886-3.021,29.048,29.048,0,0,1-1.01-2.984,9.463,9.463,0,0,1,1.9,6Z" transform="translate(-705.373 -403.231)"/></g><g transform="translate(145.179 22.462)"><path class="o" d="M717.664,401.773a12.325,12.325,0,0,0-3.167-5.37,5.989,5.989,0,0,1,3.167,5.37Z" transform="translate(-714.492 -396.392)"/></g><g class="p" transform="translate(46.269 63.067)"><path d="M601.118,445.155c-1.754,21.516-3.184,42.539-5.407,64.07l1.223.2C603.792,488.993,603.1,466.617,601.118,445.155Z" transform="translate(-595.711 -445.155)"/></g><g transform="translate(48.806 55.023)"><path class="o" d="M601.9,435.495c.131.008-.464,11.164-1.327,24.915s-1.67,24.9-1.8,24.888.464-11.162,1.327-24.918S601.774,435.487,601.9,435.495Z" transform="translate(-598.758 -435.495)"/></g><g class="p" transform="translate(146.812 16.082)"><path d="M747.838,474.022c-4.885-23.346-11.65-46.251-18.423-69.12-1.043-3.525-2.114-7.106-4.136-10.176s-5.17-5.608-8.826-6l.269,4.707c6.369,20.048,8.121,41.222,12.158,61.866S739.7,496.9,754.1,512.228Q751.808,493,747.838,474.022Z" transform="translate(-716.453 -388.731)"/></g></g><g transform="translate(0 104.878)"><g transform="translate(0 127.209)"><path class="i" d="M728.6,525.738c-4.3,0-29.517,9.175-29.517,9.175S616.849,521.1,584.631,515.8l2.859-29.978-47.812-1.1-8.56,35.654-.123.471a40.161,40.161,0,0,0,3.536,29.566c2.825,5.1,7.394,10.379,12.014,10.379,24.752,0,160.365.089,160.365.089l20.737-.3c4.3-3.341,1.432-.954,5.25-.477s16.23-.477,16.23-.477,7.16-.477,9.547-4.3,5.727-13.366,5.727-14.8S732.9,525.738,728.6,525.738Z" transform="translate(-529.652 -484.727)"/><path class="q" d="M784.478,558.779a3.3,3.3,0,0,1-.71.471c-.471.28-1.158.672-2.012,1.149-1.708.954-4.079,2.247-6.712,3.652a29.832,29.832,0,0,0-3.611,2.083,4.237,4.237,0,0,0-1.794,2.675,3,3,0,0,0,.4,2.138,7.41,7.41,0,0,0,.563.612c-.007.013-.077-.018-.207-.09a2.02,2.02,0,0,1-.486-.426,3.05,3.05,0,0,1-.563-2.276,3.66,3.66,0,0,1,.564-1.556,5.738,5.738,0,0,1,1.286-1.38,26.964,26.964,0,0,1,3.651-2.147c2.632-1.406,5.025-2.657,6.768-3.545.872-.444,1.581-.8,2.074-1.032A3.4,3.4,0,0,1,784.478,558.779Z" transform="translate(-569.747 -497.115)"/><path class="q" d="M792.97,561.467a1.88,1.88,0,0,1-1.021.1,5.928,5.928,0,0,1-4.252-2.33c-.376-.515-.509-.89-.466-.913a8.211,8.211,0,0,0,5.738,3.144Z" transform="translate(-572.742 -497.038)"/></g><g transform="translate(28.962 158.245)"><path class="q" d="M591.017,522.011c.013.094-1.794.274-4.612,1.009a38.426,38.426,0,0,0-4.837,1.627,38.062,38.062,0,0,0-10.575,6.563,38.3,38.3,0,0,0-3.606,3.612c-1.91,2.2-2.873,3.737-2.952,3.684a6.5,6.5,0,0,1,.64-1.1,14.256,14.256,0,0,1,.844-1.234c.35-.465.726-1.015,1.212-1.566a34.69,34.69,0,0,1,3.571-3.722,35.961,35.961,0,0,1,10.7-6.641,34.7,34.7,0,0,1,4.921-1.548c.71-.191,1.369-.284,1.942-.391a14.37,14.37,0,0,1,1.48-.209A6.427,6.427,0,0,1,591.017,522.011Z" transform="translate(-564.432 -521.998)"/></g><g transform="translate(152.771)"><path class="i" d="M777.038,527.988c-5.979-4.321-26-16.182-33.123-55.613s-24.164-86.9-24.164-86.9-6.553-9.227-6.441-10.672-.441-8.392,4.923-11.973,16.149-11.468,16.149-11.468-7.056-2.726-6.055-6.283a13.467,13.467,0,0,1,3.7-5.891s5.28-6.859,7.114-7.081,3.833,2.113,3.833,2.113,3.481-2.719,5.922-1.4a83.564,83.564,0,0,1,7.247,4.961s6.529.142,7.474,2.032c.633,1.267,2.422,5.937,3.532,8.878a9.586,9.586,0,0,1,.368,5.567c-.438,1.88-1.158,4.121-2.248,5.205a49.764,49.764,0,0,0-9.739,14.676S785.875,423.2,793.8,438.416c6.087,11.687,27.31,38.526,27.584,44.361,0,0,12.3,70.973-44.348,45.211" transform="translate(-713.147 -331.984)"/><path class="j" d="M759.468,355.561c-.018-.029.322-.242.883-.693a14.054,14.054,0,0,0,2.112-2.182,33.5,33.5,0,0,0,2.5-3.771,20.443,20.443,0,0,0,1.266-2.338,4.905,4.905,0,0,0,.446-2.7,5.278,5.278,0,0,0-1.2-2.476,19.7,19.7,0,0,0-1.847-1.914c-1.242-1.182-2.338-2.263-3.3-3.129s-1.768-1.526-2.333-1.977a7.294,7.294,0,0,1-.865-.72,5.871,5.871,0,0,1,.953.6,30.636,30.636,0,0,1,2.422,1.894c.987.845,2.1,1.911,3.357,3.075a19.381,19.381,0,0,1,1.9,1.934,5.608,5.608,0,0,1,1.288,2.65,5.242,5.242,0,0,1-.479,2.907,19.825,19.825,0,0,1-1.308,2.372,30.559,30.559,0,0,1-2.59,3.76,12.463,12.463,0,0,1-2.229,2.131,7.52,7.52,0,0,1-.707.451C759.565,355.529,759.475,355.573,759.468,355.561Z" transform="translate(-720.478 -332.245)"/><path class="j" d="M763.585,339.8c-.014.01-.092-.152-.331-.388a3.948,3.948,0,0,0-1.317-.719,20.788,20.788,0,0,0-5.827-.86h-.021l-.017-.012c-1.506-1.116-3.3-2.435-5.423-3.825-1.069-.633-2.183-1.612-3.617-1.435a8.39,8.39,0,0,0-4.023,1.73l-.08.057-.068-.072a7.242,7.242,0,0,0-2.5-1.87,2.14,2.14,0,0,0-1.541-.1,6.012,6.012,0,0,0-1.371.956,45.579,45.579,0,0,0-4.88,5.4,19.467,19.467,0,0,0-2.163,3.219,15.675,15.675,0,0,0-1.471,3.735,2.489,2.489,0,0,0-.056.488l.042.492a3.565,3.565,0,0,0,.371.93,5.745,5.745,0,0,0,1.367,1.549A14.406,14.406,0,0,0,734.4,351.2l.258.1-.221.162q-4.044,2.957-8.448,6.11l-4.492,3.177-2.321,1.6c-.385.271-.8.52-1.165.811l-.562.425c-.185.145-.343.321-.517.48A10.7,10.7,0,0,0,714.108,369a21.2,21.2,0,0,0-.638,5.888,5.038,5.038,0,0,0,.518,1.339c.237.445.479.89.739,1.329.516.879,1.061,1.75,1.624,2.615,1.122,1.734,2.3,3.46,3.516,5.183l.015.022.008.022c3.055,8.645,6.058,17.821,8.99,27.295,2.611,8.461,5.012,16.767,7.176,24.831,1.1,4.028,2.087,8.009,3.067,11.9.917,3.91,1.854,7.73,2.632,11.487.843,3.743,1.515,7.425,2.207,10.993q.552,2.665,1.088,5.252c.188.859.339,1.721.553,2.56s.448,1.665.669,2.488.441,1.637.658,2.446q.164.606.325,1.206l.392,1.174,1.531,4.588q.884,2.2,1.732,4.31l.423,1.048.48,1.009q.478,1,.948,1.983a75.574,75.574,0,0,0,8.186,13.278,66.089,66.089,0,0,0,8.1,8.562,69.7,69.7,0,0,0,5.855,4.623l1.576,1.137c.354.258.53.4.53.4s-.191-.118-.552-.366l-1.6-1.107a64.914,64.914,0,0,1-14.076-13.117,75.342,75.342,0,0,1-8.259-13.292q-.473-.982-.957-1.986-.24-.5-.484-1.012l-.426-1.05q-.857-2.115-1.749-4.319-.758-2.253-1.546-4.6l-.4-1.177-.329-1.209-.664-2.451q-.336-1.237-.676-2.494c-.216-.84-.369-1.7-.559-2.565q-.541-2.591-1.1-5.262c-.7-3.564-1.374-7.24-2.221-10.979-.782-3.753-1.723-7.568-2.642-11.475-.983-3.892-1.973-7.869-3.074-11.894-2.168-8.058-4.57-16.359-7.18-24.816-2.93-9.469-5.929-18.643-8.975-27.281l.023.043c-1.216-1.729-2.4-3.457-3.521-5.2q-.847-1.3-1.63-2.63c-.261-.442-.507-.894-.747-1.347a4.991,4.991,0,0,1-.556-1.492,21.542,21.542,0,0,1,.658-5.991,11.035,11.035,0,0,1,2.924-5.079c.18-.165.345-.346.536-.5l.581-.439c.384-.3.785-.542,1.174-.814l2.32-1.6,4.494-3.168,8.456-6.092.037.266a14.7,14.7,0,0,1-3.826-2.191,6.008,6.008,0,0,1-1.431-1.634,3.833,3.833,0,0,1-.4-1.017l-.046-.548a2.7,2.7,0,0,1,.062-.541,15.867,15.867,0,0,1,1.51-3.811,19.693,19.693,0,0,1,2.2-3.253,45.582,45.582,0,0,1,4.93-5.416,6.141,6.141,0,0,1,1.44-.992,2.353,2.353,0,0,1,1.711.108,7.441,7.441,0,0,1,2.581,1.942l-.147-.014a8.568,8.568,0,0,1,4.14-1.755,3.483,3.483,0,0,1,2.05.449c.592.331,1.146.685,1.677,1.034,2.123,1.406,3.908,2.737,5.407,3.867l-.038-.013a20.3,20.3,0,0,1,5.846.928,3.849,3.849,0,0,1,1.318.756,1.354,1.354,0,0,1,.239.3C763.565,339.759,763.585,339.8,763.585,339.8Z" transform="translate(-713.115 -331.962)"/><path class="j" d="M744.4,349.608a1.193,1.193,0,0,1-.09.5,5.177,5.177,0,0,1-.582,1.265,6.01,6.01,0,0,1-8.151,2.05,5.209,5.209,0,0,1-1.111-.839c-.23-.235-.333-.385-.316-.4a16.649,16.649,0,0,0,1.553,1.005,6.04,6.04,0,0,0,7.8-1.964A16.7,16.7,0,0,0,744.4,349.608Z" transform="translate(-716.634 -334.914)"/><path class="j" d="M749.157,356.876c-.016-.031.35-.218.96-.631a14.192,14.192,0,0,0,2.334-2.054,35.693,35.693,0,0,0,2.861-3.644,16.863,16.863,0,0,0,1.459-2.291,4.554,4.554,0,0,0,.514-2.744,5.941,5.941,0,0,0-1.187-2.574c-.555-.759-1.185-1.423-1.761-2.092-1.148-1.332-2.113-2.582-2.968-3.59s-1.59-1.784-2.118-2.3a9.027,9.027,0,0,1-.811-.818c.008-.01.094.047.25.166s.38.3.661.545a25.129,25.129,0,0,1,2.218,2.235c.886.992,1.873,2.226,3.028,3.536.574.653,1.221,1.322,1.8,2.1a6.258,6.258,0,0,1,1.262,2.735,4.892,4.892,0,0,1-.555,2.964,16.627,16.627,0,0,1-1.509,2.331,32.419,32.419,0,0,1-2.949,3.625,12.592,12.592,0,0,1-2.447,1.994,7.6,7.6,0,0,1-.759.4A.956.956,0,0,1,749.157,356.876Z" transform="translate(-719.025 -332.325)"/></g></g></g></svg>